SplineFontDB: 3.0
FontName: ShiShan
FullName: ShiShan
FamilyName: ShiShan
Weight: Book
Copyright: Copyright (c) 2012 SIL International, with Reserved Font Name <ShiShan>. Some glyphs taken and modified under the OFL from PollardTsu Copyright (c) 2000-2007 by David Morse; and SIL Doulos 4.100, Copyright (c) 2003-2005, SIL International (http://scripts.sil.org/).
Version: 1.001
ItalicAngle: 0
UnderlinePosition: -100
UnderlineWidth: 80
Ascent: 3900
Descent: 148
InvalidEm: 0
LayerCount: 2
Layer: 0 1 "Back" 1
Layer: 1 1 "Fore" 0
XUID: [1021 875 1453303924 3985220]
FSType: 0
OS2Version: 3
OS2_WeightWidthSlopeOnly: 0
OS2_UseTypoMetrics: 1
CreationTime: 1394085817
ModificationTime: 1430905549
PfmFamily: 17
TTFWeight: 400
TTFWidth: 5
LineGap: 0
VLineGap: 0
Panose: 2 0 0 0 0 0 0 0 0 0
OS2TypoAscent: 4800
OS2TypoAOffset: 0
OS2TypoDescent: -148
OS2TypoDOffset: 0
OS2TypoLinegap: 0
OS2WinAscent: 4800
OS2WinAOffset: 0
OS2WinDescent: 148
OS2WinDOffset: 0
HheadAscent: 4800
HheadAOffset: 0
HheadDescent: -148
HheadDOffset: 0
OS2SubXSize: 2800
OS2SubYSize: 2600
OS2SubXOff: 0
OS2SubYOff: 560
OS2SupXSize: 2800
OS2SupYSize: 2600
OS2SupXOff: 0
OS2SupYOff: 1908
OS2StrikeYSize: 200
OS2StrikeYPos: 1000
OS2CapHeight: 0
OS2XHeight: 0
OS2Vendor: 'PYRS'
OS2CodePages: 00001e03.00000000
OS2UnicodeRanges: 00000003.12000000.04000000.00000000
Lookup: 1 0 0 "lpoStyle" { "lpoStyle-1"  } ['clig' ('DFLT' <'dflt' > 'latn' <'LPO ' > 'plrd' <'LPO ' > ) ]
Lookup: 1 0 0 "lpoUnStyle" { "lpoUnStyle-1"  } ['clig' ('DFLT' <'dflt' 'HMD ' 'HMDC' 'HMDD' 'HMDN' 'YCL ' 'YIG ' 'YWG ' > 'latn' <'dflt' 'HMD ' 'HMDC' 'HMDD' 'HMDN' 'YCL ' 'YIG ' 'YWG ' > 'plrd' <'dflt' 'HMD ' 'HMDC' 'HMDD' 'HMDN' 'YCL ' 'YIG ' 'YWG ' > ) ]
Lookup: 1 0 0 "hmdStyle" { "hmdStyle-1"  } ['clig' ('DFL'' <'dflt' > 'latn' <'HMD ' > 'plrd' <'HMD ' > ) ]

StartChar: .notdef
Encoding: 0 -1 0
Width: 2192
VWidth: 4000
Flags: W
LayerCount: 2
Back
Fore
SplineSet
1752 2583 m 29,0,-1
 473.8 2585.8 l 25,1,-1
 480 311.6 l 25,2,-1
 1752 317.8 l 25,3,-1
 1752 2583 l 29,0,-1
2112 0 m 1,4,-1
 80 0 l 1,5,-1
 80 412 l 1,6,-1
 88.7998 2928.8 l 1,7,-1
 1696 2932 l 1,8,-1
 2112 2932 l 1,9,-1
 2112 0 l 1,4,-1
EndSplineSet
EndChar

StartChar: u16F2D.hmd
Encoding: 2 -1 2
Width: 2235
VWidth: 4000
GlyphClass: 2
Flags: W
LayerCount: 2
Back
Fore
SplineSet
2115 710 m 1,0,1
 2056.39 -82.4785 2056.39 -82.4785 1093 -81 c 0,2,3
 135 -79.5298 135 -79.5298 135 650 c 0,4,5
 135 1429.01 135 1429.01 750 1392 c 0,6,7
 750.998 1391.94 750.998 1391.94 750 1404 c 1,8,9
 134.994 1560.86 134.994 1560.86 134.994 2006.62 c 0,10,11
 134.994 2009.31 134.994 2009.31 135 2012 c 0,12,13
 135 2379.59 135 2379.59 521.5 2662.1 c 1,14,15
 1416.5 3260.69 l 1,16,-1
 1666.5 2910.69 l 1,17,18
 1536.5 2830.69 1536.5 2830.69 1156.5 2597.1 c 0,19,20
 592 2247.92 592 2247.92 592 2013 c 1,21,22
 594.312 1563 594.312 1563 1378 1661 c 1,23,-1
 1373 1202 l 1,24,25
 540.948 1202 540.948 1202 540 653 c 0,26,-1
 539.998 651.561 l 0,27,28
 539.998 236 539.998 236 1117 225 c 128,-1,29
 1694 214 1694 214 1716 710 c 1,30,-1
 2115 710 l 1,0,1
EndSplineSet
EndChar

StartChar: u16F00
Encoding: 4 93952 4
Width: 2432
VWidth: 4000
GlyphClass: 2
Flags: W
AnchorPoint: "SP" 1434 2680 basechar 0
AnchorPoint: "BL" 100 -1200 basechar 0
AnchorPoint: "B" 486 -1200 basechar 0
AnchorPoint: "AL" 908 3300 basechar 0
AnchorPoint: "A" 1294 3400 basechar 0
AnchorPoint: "F" 2432 0 exit 0
AnchorPoint: "R" 2432 850 exit 0
AnchorPoint: "C" 2432 3000 exit 0
AnchorPoint: "S" 2432 2455 exit 0
LayerCount: 2
Back
Fore
SplineSet
2232 0 m 1,0,-1
 200 0 l 1,1,-1
 200 412 l 1,2,-1
 1816 412 l 1,3,-1
 1816 2932 l 1,4,-1
 2232 2932 l 1,5,-1
 2232 0 l 1,0,-1
EndSplineSet
MultipleSubs2: "ConsToneB-1" u16F00 u16F92
MultipleSubs2: "ConsToneR-1" u16F00 u16F8F
MultipleSubs2: "ConsToneT-1" u16F00 u16F90
MultipleSubs2: "ConsToneA-1" u16F00 u16F91
EndChar

StartChar: u16F01
Encoding: 5 93953 5
Width: 2432
VWidth: 4000
GlyphClass: 2
Flags: W
AnchorPoint: "SP" 1459 2680 basechar 0
AnchorPoint: "BL" 100 -1200 basechar 0
AnchorPoint: "B" 486 -1200 basechar 0
AnchorPoint: "AL" 908 3300 basechar 0
AnchorPoint: "A" 1294 3400 basechar 0
AnchorPoint: "F" 2432 0 exit 0
AnchorPoint: "R" 2432 850 exit 0
AnchorPoint: "C" 2432 3000 exit 0
AnchorPoint: "S" 2432 2455 exit 0
LayerCount: 2
Back
Fore
SplineSet
1810 1730 m 1,0,1
 1793 1730 1793 1730 1652 1728 c 0,2,3
 1423 1725 1423 1725 1423 1524 c 0,4,5
 1423 1296 1423 1296 1639 1296 c 0,6,7
 1727 1296 1727 1296 1815 1296 c 1,8,9
 1810 1430 1810 1430 1810 1730 c 1,0,1
2232 0 m 1,10,-1
 200 0 l 1,11,-1
 200 414 l 1,12,-1
 1816 412 l 1,13,-1
 1816 1063 l 1,14,15
 1153 1066 1153 1066 1153 1509 c 0,16,-1
 1153 1512 l 0,17,18
 1155 1994 1155 1994 1783 1994 c 0,19,20
 1799 1994 1799 1994 1816 1994 c 1,21,-1
 1816 2932 l 1,22,-1
 2232 2932 l 1,23,-1
 2232 0 l 1,10,-1
EndSplineSet
Substitution2: "noWart-1" u16F01.nowart
Substitution2: "dotWart-1" u16F01.dot
MultipleSubs2: "ConsToneB-1" u16F01 u16F92
MultipleSubs2: "ConsToneR-1" u16F01 u16F8F
MultipleSubs2: "ConsToneT-1" u16F01 u16F90
MultipleSubs2: "ConsToneA-1" u16F01 u16F91
EndChar

StartChar: u16F02
Encoding: 6 93954 6
Width: 2489
VWidth: 4000
GlyphClass: 2
Flags: W
AnchorPoint: "SP" 1223 2680 basechar 0
AnchorPoint: "BL" 100 -1200 basechar 0
AnchorPoint: "B" 514 -1200 basechar 0
AnchorPoint: "AL" 669 3300 basechar 0
AnchorPoint: "A" 1083 3400 basechar 0
AnchorPoint: "F" 2489 0 exit 0
AnchorPoint: "R" 2220 850 exit 0
AnchorPoint: "C" 2220 3000 exit 0
AnchorPoint: "S" 2220 2455 exit 0
LayerCount: 2
Back
Fore
SplineSet
2289 0 m 1,0,-1
 200 0 l 1,1,-1
 200 412 l 1,2,-1
 1607 412 l 1,3,-1
 1607 2932 l 1,4,-1
 2023 2932 l 5,5,-1
 2023 412 l 1,6,-1
 2289 413 l 1,7,-1
 2289 0 l 1,0,-1
EndSplineSet
MultipleSubs2: "ConsToneB-1" u16F02 u16F92
MultipleSubs2: "ConsToneR-1" u16F02 u16F8F
MultipleSubs2: "ConsToneT-1" u16F02 u16F90
MultipleSubs2: "ConsToneA-1" u16F02 u16F91
EndChar

StartChar: u16F03
Encoding: 7 93955 7
Width: 2447
VWidth: 4000
GlyphClass: 2
Flags: W
AnchorPoint: "SP" 1384 2680 basechar 0
AnchorPoint: "BL" 100 -1200 basechar 0
AnchorPoint: "B" 493 -1200 basechar 0
AnchorPoint: "AL" 904 3300 basechar 0
AnchorPoint: "A" 1297 3400 basechar 0
AnchorPoint: "F" 2447 0 exit 0
AnchorPoint: "R" 2447 850 exit 0
AnchorPoint: "C" 2447 3000 exit 0
AnchorPoint: "S" 2447 2455 exit 0
LayerCount: 2
Back
Fore
SplineSet
2247 0 m 1,0,-1
 835 0 l 2,1,2
 775 0 775 0 705.5 18.5 c 128,-1,3
 636 37 636 37 566 70.5 c 128,-1,4
 496 104 496 104 431 150 c 128,-1,5
 366 196 366 196 316 251.5 c 128,-1,6
 266 307 266 307 236 370 c 128,-1,7
 206 433 206 433 206 499 c 0,8,9
 206 538 206 538 203 577 c 128,-1,10
 200 616 200 616 200 655 c 0,11,12
 200 739 200 739 217 820 c 128,-1,13
 234 901 234 901 266.5 973.5 c 128,-1,14
 299 1046 299 1046 347.5 1108 c 128,-1,15
 396 1170 396 1170 459 1214.5 c 128,-1,16
 522 1259 522 1259 599.5 1284.5 c 128,-1,17
 677 1310 677 1310 768 1310 c 0,18,19
 847 1310 847 1310 919 1287 c 128,-1,20
 991 1264 991 1264 1052.5 1223 c 128,-1,21
 1114 1182 1114 1182 1164.5 1125.5 c 128,-1,22
 1215 1069 1215 1069 1250.5 1003 c 128,-1,23
 1286 937 1286 937 1305 863 c 128,-1,24
 1324 789 1324 789 1324 713 c 2,25,-1
 1324 404 l 1,26,-1
 1827 404 l 1,27,-1
 1827 2932 l 1,28,-1
 2247 2932 l 5,29,-1
 2247 0 l 1,0,-1
1018 627 m 0,30,31
 1018 684 1018 684 1002 750.5 c 128,-1,32
 986 817 986 817 953 874.5 c 128,-1,33
 920 932 920 932 870 970 c 128,-1,34
 820 1008 820 1008 752 1008 c 0,35,36
 692 1008 692 1008 642 981.5 c 128,-1,37
 592 955 592 955 556 911.5 c 128,-1,38
 520 868 520 868 499.5 813.5 c 128,-1,39
 479 759 479 759 479 703 c 0,40,41
 479 641 479 641 500 587 c 128,-1,42
 521 533 521 533 558.5 492 c 128,-1,43
 596 451 596 451 648.5 427.5 c 128,-1,44
 701 404 701 404 764 404 c 2,45,-1
 1014 404 l 1,46,47
 1015 460 1015 460 1016.5 515.5 c 128,-1,48
 1018 571 1018 571 1018 627 c 0,30,31
EndSplineSet
MultipleSubs2: "ConsToneB-1" u16F03 u16F92
MultipleSubs2: "ConsToneR-1" u16F03 u16F8F
MultipleSubs2: "ConsToneT-1" u16F03 u16F90
MultipleSubs2: "ConsToneA-1" u16F03 u16F91
EndChar

StartChar: u16F04
Encoding: 8 93956 8
Width: 2100
VWidth: 4000
GlyphClass: 2
Flags: W
AnchorPoint: "BL" 100 -1200 basechar 0
AnchorPoint: "B" 320 -1200 basechar 0
AnchorPoint: "AL" 100 3300 basechar 0
AnchorPoint: "A" 320 3400 basechar 0
AnchorPoint: "F" 2100 0 exit 0
AnchorPoint: "R" 2100 850 exit 0
AnchorPoint: "C" 2100 3000 exit 0
AnchorPoint: "S" 2100 2455 exit 0
LayerCount: 2
Back
Fore
SplineSet
362 469 m 1,0,1
 584 287 584 287 801 287 c 0,2,3
 1536 291 1536 291 1536 1407 c 0,4,5
 1536 2428 1536 2428 741 2527 c 0,6,7
 733 2528 733 2528 723 2528 c 0,8,9
 657 2528 657 2528 504 2482 c 2,10,-1
 317 2424 l 1,11,-1
 232 2818 l 1,12,13
 577 2928 577 2928 720 2928 c 0,14,-1
 723 2928 l 0,15,16
 1899 2920 1899 2920 1900 1421 c 0,17,-1
 1900 1418 l 0,18,19
 1900.09 1404.88 1900.09 1404.88 1900.09 1391.88 c 0,20,21
 1900.09 -24 1900.09 -24 821 -24 c 0,22,23
 794 -24 794 -24 794 -24 c 0,24,25
 766.857 -26.8574 766.857 -26.8574 738.184 -26.8574 c 0,26,27
 566.143 -26.8574 566.143 -26.8574 339 76 c 0,28,-1
 200 136 l 1,29,-1
 362 469 l 1,0,1
EndSplineSet
MultipleSubs2: "ConsToneB-1" u16F04 u16F92
MultipleSubs2: "ConsToneR-1" u16F04 u16F8F
MultipleSubs2: "ConsToneT-1" u16F04 u16F90
MultipleSubs2: "ConsToneA-1" u16F04 u16F91
EndChar

StartChar: u16F05
Encoding: 9 93957 9
Width: 2081
VWidth: 4000
GlyphClass: 2
Flags: W
AnchorPoint: "BL" 100 -1200 basechar 0
AnchorPoint: "B" 310 -1200 basechar 0
AnchorPoint: "AL" 100 3300 basechar 0
AnchorPoint: "A" 310 3400 basechar 0
AnchorPoint: "F" 2081 0 exit 0
AnchorPoint: "R" 2081 850 exit 0
AnchorPoint: "C" 2081 3000 exit 0
AnchorPoint: "S" 2081 2455 exit 0
LayerCount: 2
Back
Fore
SplineSet
362 469 m 1,0,1
 534 347 534 347 777 347 c 0,2,3
 1296 347 1296 347 1458 1034 c 1,4,-1
 1367 1036 l 2,5,6
 902.998 1045.98 902.998 1045.98 902.998 1367.62 c 0,7,-1
 903 1369 l 0,8,9
 904 1836 904 1836 1357 1836 c 2,10,-1
 1470 1836 l 1,11,12
 1316.45 2516.24 1316.45 2516.24 775.618 2516.24 c 0,13,14
 612.026 2516.24 612.026 2516.24 413 2454 c 2,15,-1
 317 2424 l 1,16,-1
 232 2818 l 1,17,18
 577 2924 577 2924 726 2924 c 0,19,20
 1776 2924 1776 2924 1881 1422 c 1,21,22
 1743 -20 1743 -20 821 -24 c 0,23,24
 818.569 -24.0098 818.569 -24.0098 816.139 -24.0098 c 0,25,26
 570.706 -24.0098 570.706 -24.0098 339 76 c 2,27,-1
 200 136 l 1,28,-1
 362 469 l 1,0,1
1172 1418 m 0,29,30
 1172 1242 1172 1242 1492 1242 c 2,31,-1
 1510 1242 l 1,32,33
 1525 1258 1525 1258 1529 1428 c 0,34,35
 1529.15 1434.15 1529.15 1434.15 1529.15 1440.45 c 0,36,37
 1529.15 1519.22 1529.15 1519.22 1506 1622 c 1,38,-1
 1329 1622 l 2,39,40
 1172 1622 1172 1622 1172 1418 c 0,29,30
EndSplineSet
Substitution2: "noWart-1" u16F05.nowart
Substitution2: "dotWart-1" u16F05.dot
MultipleSubs2: "ConsToneB-1" u16F05 u16F92
MultipleSubs2: "ConsToneR-1" u16F05 u16F8F
MultipleSubs2: "ConsToneT-1" u16F05 u16F90
MultipleSubs2: "ConsToneA-1" u16F05 u16F91
EndChar

StartChar: u16F06
Encoding: 10 93958 10
Width: 2364
VWidth: 4000
GlyphClass: 2
Flags: W
AnchorPoint: "BL" 100 -1200 basechar 0
AnchorPoint: "B" 452 -1200 basechar 0
AnchorPoint: "AL" 100 3300 basechar 0
AnchorPoint: "A" 452 3400 basechar 0
AnchorPoint: "F" 2364 0 exit 0
AnchorPoint: "R" 2364 850 exit 0
AnchorPoint: "C" 2364 3000 exit 0
AnchorPoint: "S" 2364 2455 exit 0
LayerCount: 2
Back
Fore
SplineSet
200 1861 m 6,0,1
 200 2111 200 2111 260.5 2309.5 c 132,-1,2
 321 2508 321 2508 445.5 2646.5 c 132,-1,3
 570 2785 570 2785 760.5 2858.5 c 132,-1,4
 951 2932 951 2932 1210 2932 c 4,5,6
 1355 2932 1355 2932 1482 2893.5 c 132,-1,7
 1609 2855 1609 2855 1715 2786 c 132,-1,8
 1821 2717 1821 2717 1904.5 2621 c 132,-1,9
 1988 2525 1988 2525 2045.5 2409.5 c 132,-1,10
 2103 2294 2103 2294 2133.5 2163.5 c 132,-1,11
 2164 2033 2164 2033 2164 1895 c 6,12,-1
 2164 -36 l 5,13,-1
 1753 -36 l 5,14,-1
 1753 1857 l 6,15,16
 1753 1985 1753 1985 1722.5 2103.5 c 132,-1,17
 1692 2222 1692 2222 1627 2313.5 c 132,-1,18
 1562 2405 1562 2405 1459.5 2460 c 132,-1,19
 1357 2515 1357 2515 1214 2515 c 4,20,21
 1058 2515 1058 2515 944.5 2473.5 c 132,-1,22
 831 2432 831 2432 758 2351.5 c 132,-1,23
 685 2271 685 2271 650 2154 c 132,-1,24
 615 2037 615 2037 615 1886 c 6,25,-1
 615 -36 l 5,26,-1
 200 -36 l 5,27,-1
 200 1861 l 6,0,1
EndSplineSet
MultipleSubs2: "ConsToneB-1" u16F06 u16F92
MultipleSubs2: "ConsToneR-1" u16F06 u16F8F
MultipleSubs2: "ConsToneT-1" u16F06 u16F90
MultipleSubs2: "ConsToneA-1" u16F06 u16F91
EndChar

StartChar: u16F07
Encoding: 11 93959 11
Width: 2432
VWidth: 4000
GlyphClass: 2
Flags: W
AnchorPoint: "BL" 100 -1200 basechar 0
AnchorPoint: "B" 486 -1200 basechar 0
AnchorPoint: "AL" 100 3300 basechar 0
AnchorPoint: "A" 486 3400 basechar 0
AnchorPoint: "F" 980 0 exit 0
AnchorPoint: "R" 980 850 exit 0
AnchorPoint: "C" 2432 3000 exit 0
AnchorPoint: "S" 2432 2455 exit 0
LayerCount: 2
Back
Fore
SplineSet
2232 2520 m 1,0,-1
 612 2520 l 1,1,-1
 612 0 l 1,2,-1
 200 0 l 1,3,-1
 200 2932 l 1,4,-1
 2232 2932 l 1,5,-1
 2232 2520 l 1,0,-1
EndSplineSet
MultipleSubs2: "ConsToneB-1" u16F07 u16F92
MultipleSubs2: "ConsToneR-1" u16F07 u16F8F
MultipleSubs2: "ConsToneT-1" u16F07 u16F90
MultipleSubs2: "ConsToneA-1" u16F07 u16F91
EndChar

StartChar: u16F08
Encoding: 12 93960 12
Width: 2668
VWidth: 4000
GlyphClass: 2
Flags: W
AnchorPoint: "BL" 100 -1200 basechar 0
AnchorPoint: "B" 604 -1200 basechar 0
AnchorPoint: "AL" 100 3300 basechar 0
AnchorPoint: "A" 604 3400 basechar 0
AnchorPoint: "F" 2000 0 exit 0
AnchorPoint: "R" 2400 850 exit 0
AnchorPoint: "C" 2668 3000 exit 0
AnchorPoint: "S" 2668 2455 exit 0
LayerCount: 2
Back
Fore
SplineSet
2468 2932 m 1,0,-1
 1553 0 l 1,1,-1
 1107 0 l 1,2,-1
 200 2932 l 1,3,-1
 628 2932 l 1,4,-1
 1300 628 l 1,5,-1
 1377 628 l 1,6,-1
 2037 2932 l 1,7,-1
 2468 2932 l 1,0,-1
EndSplineSet
MultipleSubs2: "ConsToneB-1" u16F08 u16F92
MultipleSubs2: "ConsToneR-1" u16F08 u16F8F
MultipleSubs2: "ConsToneT-1" u16F08 u16F90
MultipleSubs2: "ConsToneA-1" u16F08 u16F91
EndChar

StartChar: u16F09
Encoding: 13 93961 13
Width: 2769
VWidth: 4000
GlyphClass: 2
Flags: W
AnchorPoint: "BL" 100 -1200 basechar 0
AnchorPoint: "B" 670 -1200 basechar 0
AnchorPoint: "AL" 100 3300 basechar 0
AnchorPoint: "A" 670 3400 basechar 0
AnchorPoint: "F" 2000 0 exit 0
AnchorPoint: "R" 2400 850 exit 0
AnchorPoint: "C" 2769 3000 exit 0
AnchorPoint: "S" 2769 2455 exit 0
LayerCount: 2
Back
Fore
SplineSet
2569 2932 m 1,0,-1
 1654 0 l 1,1,-1
 1208 0 l 1,2,-1
 863 1115 l 1,3,-1
 609 1115 l 2,4,5
 200 1115 200 1115 200 1530 c 1,6,7
 217 1935 217 1935 594 1935 c 2,8,-1
 609 1935 l 1,9,-1
 301 2932 l 1,10,-1
 729 2932 l 1,11,-1
 1401 628 l 1,12,-1
 1478 628 l 1,13,-1
 2138 2932 l 1,14,-1
 2569 2932 l 1,0,-1
793 1341 m 1,15,-1
 681 1705 l 1,16,-1
 597 1705 l 2,17,18
 431 1705 431 1705 431 1528 c 0,19,20
 431 1340 431 1340 595 1340 c 2,21,-1
 596 1340 l 1,22,-1
 793 1341 l 1,15,-1
EndSplineSet
Substitution2: "noWart-1" u16F09.nowart
Substitution2: "dotWart-1" u16F09.dot
MultipleSubs2: "ConsToneB-1" u16F09 u16F92
MultipleSubs2: "ConsToneR-1" u16F09 u16F8F
MultipleSubs2: "ConsToneT-1" u16F09 u16F90
MultipleSubs2: "ConsToneA-1" u16F09 u16F91
EndChar

StartChar: u16F0A
Encoding: 14 93962 14
Width: 2700
VWidth: 4000
GlyphClass: 2
Flags: W
AnchorPoint: "BL" 100 -1200 basechar 0
AnchorPoint: "B" 620 -1200 basechar 0
AnchorPoint: "AL" 100 3300 basechar 0
AnchorPoint: "A" 620 3400 basechar 0
AnchorPoint: "F" 1750 0 exit 0
AnchorPoint: "R" 1750 850 exit 0
AnchorPoint: "C" 2700 3000 exit 0
AnchorPoint: "S" 2700 2455 exit 0
LayerCount: 2
Back
Fore
SplineSet
2500 2524 m 1,0,-1
 1547 2524 l 1,1,-1
 1547 0 l 1,2,-1
 1127 0 l 1,3,-1
 1127 2524 l 1,4,-1
 200 2524 l 1,5,-1
 200 2932 l 1,6,-1
 2500 2932 l 1,7,-1
 2500 2524 l 1,0,-1
EndSplineSet
MultipleSubs2: "ConsToneB-1" u16F0A u16F92
MultipleSubs2: "ConsToneR-1" u16F0A u16F8F
MultipleSubs2: "ConsToneT-1" u16F0A u16F90
MultipleSubs2: "ConsToneA-1" u16F0A u16F91
EndChar

StartChar: u16F0B
Encoding: 15 93963 15
Width: 2700
VWidth: 4000
GlyphClass: 2
Flags: W
AnchorPoint: "BL" 100 -1200 basechar 0
AnchorPoint: "B" 620 -1200 basechar 0
AnchorPoint: "AL" 100 3300 basechar 0
AnchorPoint: "A" 620 3400 basechar 0
AnchorPoint: "F" 1750 0 exit 0
AnchorPoint: "R" 1750 850 exit 0
AnchorPoint: "C" 2700 3000 exit 0
AnchorPoint: "S" 2700 2455 exit 0
LayerCount: 2
Back
Fore
SplineSet
2500 2524 m 1,0,-1
 1547 2524 l 1,1,-1
 1547 0 l 1,2,-1
 1127 0 l 1,3,-1
 1127 1176 l 1,4,-1
 1047 1176 l 2,5,6
 638 1176 638 1176 638 1591 c 1,7,8
 655 1996 655 1996 1032 1996 c 2,9,-1
 1127 1996 l 1,10,-1
 1127 2524 l 1,11,-1
 200 2524 l 1,12,-1
 200 2932 l 1,13,-1
 2500 2932 l 1,14,-1
 2500 2524 l 1,0,-1
1127 1401 m 1,15,-1
 1127 1766 l 1,16,-1
 1035 1766 l 2,17,18
 869 1766 869 1766 869 1589 c 0,19,20
 869 1401 869 1401 1033 1401 c 2,21,-1
 1034 1401 l 1,22,-1
 1127 1401 l 1,15,-1
EndSplineSet
MultipleSubs2: "ConsToneB-1" u16F0B u16F92
MultipleSubs2: "ConsToneR-1" u16F0B u16F8F
MultipleSubs2: "ConsToneT-1" u16F0B u16F90
MultipleSubs2: "ConsToneA-1" u16F0B u16F91
EndChar

StartChar: u16F0D
Encoding: 16 93965 16
Width: 2736
VWidth: 4000
GlyphClass: 2
Flags: W
AnchorPoint: "BL" 100 -1200 basechar 0
AnchorPoint: "B" 638 -1200 basechar 0
AnchorPoint: "AL" 100 3300 basechar 0
AnchorPoint: "A" 638 3400 basechar 0
AnchorPoint: "F" 2250 0 exit 0
AnchorPoint: "R" 1750 850 exit 0
AnchorPoint: "C" 2736 3000 exit 0
AnchorPoint: "S" 2736 2455 exit 0
LayerCount: 2
Back
Fore
SplineSet
2536 2532 m 1,0,-1
 1600 2532 l 1,1,-1
 1600 391 l 1,2,-1
 2068 391 l 1,3,-1
 2068 0 l 1,4,-1
 668 0 l 1,5,-1
 668 391 l 1,6,-1
 1174 391 l 1,7,-1
 1174 2532 l 1,8,-1
 200 2532 l 1,9,-1
 200 2932 l 1,10,-1
 2536 2932 l 1,11,-1
 2536 2532 l 1,0,-1
EndSplineSet
MultipleSubs2: "ConsToneB-1" u16F0D u16F92
MultipleSubs2: "ConsToneR-1" u16F0D u16F8F
MultipleSubs2: "ConsToneT-1" u16F0D u16F90
MultipleSubs2: "ConsToneA-1" u16F0D u16F91
EndChar

StartChar: u16F0E
Encoding: 17 93966 17
Width: 2740
VWidth: 4000
GlyphClass: 2
Flags: W
AnchorPoint: "BL" 100 -1200 basechar 0
AnchorPoint: "B" 738 -1200 basechar 0
AnchorPoint: "AL" 100 3300 basechar 0
AnchorPoint: "A" 738 3400 basechar 0
AnchorPoint: "F" 2630 0 exit 0
AnchorPoint: "R" 1875 850 exit 0
AnchorPoint: "C" 2740 3000 exit 0
AnchorPoint: "S" 2740 2455 exit 0
LayerCount: 2
Back
Fore
SplineSet
2540 2520 m 1,0,-1
 1676 2520 l 1,1,-1
 1676 360 l 1,2,-1
 2430 360 l 1,3,-1
 2430 0 l 1,4,-1
 1260 0 l 1,5,-1
 1260 2520 l 1,6,-1
 200 2520 l 1,7,-1
 200 2932 l 1,8,-1
 2540 2932 l 1,9,-1
 2540 2520 l 1,0,-1
EndSplineSet
MultipleSubs2: "ConsToneB-1" u16F0E u16F92
MultipleSubs2: "ConsToneR-1" u16F0E u16F8F
MultipleSubs2: "ConsToneT-1" u16F0E u16F90
MultipleSubs2: "ConsToneA-1" u16F0E u16F91
EndChar

StartChar: u16F0F
Encoding: 18 93967 18
Width: 2740
VWidth: 4000
GlyphClass: 2
Flags: W
AnchorPoint: "BL" 100 -1200 basechar 0
AnchorPoint: "B" 640 -1200 basechar 0
AnchorPoint: "AL" 100 3300 basechar 0
AnchorPoint: "A" 640 3400 basechar 0
AnchorPoint: "F" 2630 0 exit 0
AnchorPoint: "R" 1880 850 exit 0
AnchorPoint: "C" 2740 3000 exit 0
AnchorPoint: "S" 2740 2455 exit 0
LayerCount: 2
Back
Fore
SplineSet
2540 2520 m 1,0,-1
 1676 2520 l 1,1,-1
 1676 360 l 1,2,-1
 2430 360 l 1,3,-1
 2430 0 l 1,4,-1
 1260 0 l 1,5,-1
 1260 1135 l 1,6,-1
 1134 1135 l 2,7,8
 725 1135 725 1135 725 1550 c 1,9,10
 742 1955 742 1955 1119 1955 c 2,11,-1
 1260 1955 l 1,12,-1
 1260 2520 l 1,13,-1
 200 2520 l 1,14,-1
 200 2932 l 1,15,-1
 2540 2932 l 1,16,-1
 2540 2520 l 1,0,-1
1260 1360.67 m 1,17,-1
 1260 1725 l 1,18,-1
 1122 1725 l 2,19,20
 956 1725 956 1725 956 1548 c 0,21,22
 956 1360 956 1360 1120 1360 c 2,23,-1
 1121 1360 l 1,24,-1
 1260 1360.67 l 1,17,-1
EndSplineSet
Substitution2: "noWart-1" u16F0F.nowart
Substitution2: "dotWart-1" u16F0F.dot
MultipleSubs2: "ConsToneB-1" u16F0F u16F92
MultipleSubs2: "ConsToneR-1" u16F0F u16F8F
MultipleSubs2: "ConsToneT-1" u16F0F u16F90
MultipleSubs2: "ConsToneA-1" u16F0F u16F91
EndChar

StartChar: u16F10
Encoding: 19 93968 19
Width: 2264
VWidth: 4000
GlyphClass: 2
Flags: W
AnchorPoint: "SP" 290 2680 basechar 0
AnchorPoint: "BL" 100 -1200 basechar 0
AnchorPoint: "B" 600 -1200 basechar 0
AnchorPoint: "AL" 100 3300 basechar 0
AnchorPoint: "A" 600 3400 basechar 0
AnchorPoint: "F" 2264 0 exit 0
AnchorPoint: "R" 1144 850 exit 0
AnchorPoint: "C" 2264 3000 exit 0
AnchorPoint: "S" 2264 2455 exit 0
LayerCount: 2
Back
Fore
SplineSet
2064 111 m 1,0,1
 1990 82 1990 82 1914.5 57 c 128,-1,2
 1839 32 1839 32 1762 13 c 128,-1,3
 1685 -6 1685 -6 1606 -16.5 c 0,4,5
 1539.64 -25.3203 1539.64 -25.3203 1404.13 -25.3203 c 0,6,7
 1378.32 -25.3203 1378.32 -25.3203 1350 -25 c 1,8,9
 1136 -25 1136 -25 968 30 c 128,-1,10
 800 85 800 85 672.5 183 c 128,-1,11
 545 281 545 281 455 416 c 128,-1,12
 365 551 365 551 308.5 711.5 c 128,-1,13
 252 872 252 872 226 1052 c 128,-1,14
 200 1232 200 1232 200 1419 c 0,15,16
 200 1569 200 1569 210.5 1714.5 c 128,-1,17
 221 1860 221 1860 249.5 1996 c 128,-1,18
 278 2132 278 2132 328 2256 c 128,-1,19
 378 2380 378 2380 457.5 2488 c 128,-1,20
 537 2596 537 2596 649 2685.5 c 128,-1,21
 761 2775 761 2775 913 2842 c 0,22,23
 1017 2888 1017 2888 1128.5 2908 c 0,24,25
 1229.86 2926.18 1229.86 2926.18 1457.26 2926.18 c 0,26,27
 1480 2926.18 1480 2926.18 1504 2926 c 0,28,29
 1580 2926 1580 2926 1653.5 2911.5 c 128,-1,30
 1727 2897 1727 2897 1796.5 2877.5 c 128,-1,31
 1866 2858 1866 2858 1924.5 2827.5 c 128,-1,32
 1983 2797 1983 2797 2042 2770 c 1,33,-1
 1918 2404 l 1,34,35
 1898 2411 1898 2411 1864 2423 c 128,-1,36
 1830 2435 1830 2435 1792.5 2452 c 128,-1,37
 1755 2469 1755 2469 1707.5 2488.5 c 128,-1,38
 1660 2508 1660 2508 1626.5 2519.5 c 128,-1,39
 1593 2531 1593 2531 1553.5 2530 c 128,-1,40
 1514 2529 1514 2529 1495 2529 c 0,41,42
 1477.27 2529.13 1477.27 2529.13 1460.3 2529.13 c 0,43,44
 1222.83 2529.13 1222.83 2529.13 1136.5 2503 c 0,45,46
 1044 2475 1044 2475 971 2424.5 c 128,-1,47
 898 2374 898 2374 842.5 2304.5 c 128,-1,48
 787 2235 787 2235 747 2153 c 128,-1,49
 707 2071 707 2071 680 1979 c 128,-1,50
 653 1887 653 1887 637 1791 c 128,-1,51
 621 1695 621 1695 614.5 1598 c 128,-1,52
 608 1501 608 1501 608 1410 c 0,53,54
 608 1289 608 1289 620 1165.5 c 128,-1,55
 632 1042 632 1042 662 927.5 c 128,-1,56
 692 813 692 813 744 713.5 c 128,-1,57
 796 614 796 614 876 540 c 128,-1,58
 956 466 956 466 1068 423.5 c 128,-1,59
 1180 381 1180 381 1330 381 c 0,60,61
 1387 381 1387 381 1499 389 c 128,-1,62
 1611 397 1611 397 1674 413.5 c 128,-1,63
 1737 430 1737 430 1796 453 c 128,-1,64
 1855 476 1855 476 1905 505 c 1,65,-1
 2064 111 l 1,0,1
EndSplineSet
MultipleSubs2: "ConsToneB-1" u16F10 u16F92
MultipleSubs2: "ConsToneR-1" u16F10 u16F8F
MultipleSubs2: "ConsToneT-1" u16F10 u16F90
MultipleSubs2: "ConsToneA-1" u16F10 u16F91
EndChar

StartChar: u16F11
Encoding: 20 93969 20
Width: 2762
VWidth: 4000
GlyphClass: 2
Flags: W
AnchorPoint: "SP" 850 2680 basechar 0
AnchorPoint: "BL" 100 -1200 basechar 0
AnchorPoint: "B" 1170 -1200 basechar 0
AnchorPoint: "AL" 100 3300 basechar 0
AnchorPoint: "A" 1170 3400 basechar 0
AnchorPoint: "F" 2762 0 exit 0
AnchorPoint: "R" 1562 850 exit 0
AnchorPoint: "C" 2762 3000 exit 0
AnchorPoint: "S" 2762 2455 exit 0
LayerCount: 2
Back
Fore
SplineSet
2562 111 m 1,0,1
 2488 82 2488 82 2412 57 c 0,2,3
 2337 32 2337 32 2260 13 c 128,-1,4
 2183 -6 2183 -6 2104 -16 c 0,5,6
 2037.15 -25.3076 2037.15 -25.3076 1900.14 -25.3076 c 0,7,8
 1875.23 -25.3076 1875.23 -25.3076 1848 -25 c 1,9,10
 1634 -25 1634 -25 1466 30 c 128,-1,11
 1298 85 1298 85 1170.5 183 c 128,-1,12
 1043 281 1043 281 953 416 c 0,13,14
 862 552 862 552 806 712 c 0,15,16
 757 851 757 851 731 1006 c 1,17,-1
 609 1006 l 2,18,19
 200 1006 200 1006 200 1421 c 1,20,21
 217 1826 217 1826 594 1826 c 2,22,-1
 719 1826 l 1,23,24
 730 1913 730 1913 748 1996 c 0,25,26
 776 2134 776 2134 826 2256 c 0,27,28
 876 2379 876 2379 956 2488 c 0,29,30
 1035 2596 1035 2596 1147 2686 c 0,31,32
 1258 2774 1258 2774 1411 2842 c 0,33,34
 1514 2888 1514 2888 1626 2908 c 0,35,36
 1727 2926 1727 2926 2002 2926 c 0,37,38
 2078 2926 2078 2926 2151.5 2911.5 c 128,-1,39
 2225 2897 2225 2897 2294.5 2877.5 c 128,-1,40
 2364 2858 2364 2858 2422.5 2827.5 c 128,-1,41
 2481 2797 2481 2797 2540 2770 c 1,42,-1
 2416 2404 l 1,43,-1
 2362 2423 l 2,44,45
 2328 2435 2328 2435 2290.5 2452 c 128,-1,46
 2253 2469 2253 2469 2205.5 2488.5 c 128,-1,47
 2158 2508 2158 2508 2124.5 2519.5 c 128,-1,48
 2091 2531 2091 2531 2051.5 2530 c 128,-1,49
 2012 2529 2012 2529 1993 2529 c 0,50,51
 1720 2529 1720 2529 1634 2503 c 0,52,53
 1542 2475 1542 2475 1469 2424.5 c 128,-1,54
 1396 2374 1396 2374 1340.5 2304.5 c 128,-1,55
 1285 2235 1285 2235 1245 2153 c 128,-1,56
 1205 2071 1205 2071 1178 1979 c 128,-1,57
 1151 1887 1151 1887 1135 1791 c 128,-1,58
 1119 1695 1119 1695 1112.5 1598 c 128,-1,59
 1106 1501 1106 1501 1106 1410 c 0,60,61
 1106 1289 1106 1289 1118 1165.5 c 128,-1,62
 1130 1042 1130 1042 1160 927.5 c 128,-1,63
 1190 813 1190 813 1242 713.5 c 128,-1,64
 1294 614 1294 614 1374 540 c 128,-1,65
 1454 466 1454 466 1566 423.5 c 128,-1,66
 1678 381 1678 381 1828 381 c 0,67,68
 1885 381 1885 381 1997 389 c 128,-1,69
 2109 397 2109 397 2172 413.5 c 128,-1,70
 2235 430 2235 430 2294 453 c 128,-1,71
 2353 476 2353 476 2403 505 c 1,72,-1
 2562 111 l 1,0,1
705 1232 m 1,73,74
 698 1324 698 1324 698 1419 c 0,75,76
 698 1508 698 1508 702 1596 c 1,77,-1
 597 1596 l 2,78,79
 431 1596 431 1596 431 1419 c 0,80,81
 431 1231 431 1231 595 1231 c 2,82,-1
 596 1231 l 1,83,-1
 705 1232 l 1,73,74
EndSplineSet
Substitution2: "noWart-1" u16F11.nowart
Substitution2: "dotWart-1" u16F11.dot
MultipleSubs2: "ConsToneB-1" u16F11 u16F92
MultipleSubs2: "ConsToneR-1" u16F11 u16F8F
MultipleSubs2: "ConsToneT-1" u16F11 u16F90
MultipleSubs2: "ConsToneA-1" u16F11 u16F91
EndChar

StartChar: u16F13
Encoding: 21 93971 21
Width: 2364
VWidth: 4000
GlyphClass: 2
Flags: W
AnchorPoint: "BL" 100 -1200 basechar 0
AnchorPoint: "B" 452 -1200 basechar 0
AnchorPoint: "AL" 100 3300 basechar 0
AnchorPoint: "A" 452 3400 basechar 0
AnchorPoint: "F" 2364 0 exit 0
AnchorPoint: "R" 2364 850 exit 0
AnchorPoint: "C" 2364 3000 exit 0
AnchorPoint: "S" 2364 2455 exit 0
LayerCount: 2
Back
Fore
SplineSet
2164 1035 m 6,0,1
 2164 785 2164 785 2103.5 586.5 c 132,-1,2
 2043 388 2043 388 1918.5 249.5 c 132,-1,3
 1794 111 1794 111 1603.5 37.5 c 132,-1,4
 1413 -36 1413 -36 1154 -36 c 4,5,6
 1009 -36 1009 -36 882 2.5 c 132,-1,7
 755 41 755 41 649 110 c 132,-1,8
 543 179 543 179 459.5 275 c 132,-1,9
 376 371 376 371 318.5 486.5 c 132,-1,10
 261 602 261 602 230.5 732.5 c 132,-1,11
 200 863 200 863 200 1001 c 6,12,-1
 200 2932 l 5,13,-1
 611 2932 l 5,14,-1
 611 1039 l 6,15,16
 611 911 611 911 641.5 792.5 c 132,-1,17
 672 674 672 674 737 582.5 c 132,-1,18
 802 491 802 491 904.5 436 c 132,-1,19
 1007 381 1007 381 1150 381 c 4,20,21
 1306 381 1306 381 1419.5 422.5 c 132,-1,22
 1533 464 1533 464 1606 544.5 c 132,-1,23
 1679 625 1679 625 1714 742 c 132,-1,24
 1749 859 1749 859 1749 1010 c 6,25,-1
 1749 2932 l 5,26,-1
 2164 2932 l 5,27,-1
 2164 1035 l 6,0,1
EndSplineSet
MultipleSubs2: "ConsToneB-1" u16F13 u16F92
MultipleSubs2: "ConsToneR-1" u16F13 u16F8F
MultipleSubs2: "ConsToneT-1" u16F13 u16F90
MultipleSubs2: "ConsToneA-1" u16F13 u16F91
EndChar

StartChar: u16F14
Encoding: 22 93972 22
Width: 2604
VWidth: 4000
GlyphClass: 2
Flags: W
AnchorPoint: "BL" 100 -1200 basechar 0
AnchorPoint: "B" 572 -1200 basechar 0
AnchorPoint: "AL" 100 3300 basechar 0
AnchorPoint: "A" 572 3400 basechar 0
AnchorPoint: "F" 2604 0 exit 0
AnchorPoint: "R" 2604 850 exit 0
AnchorPoint: "C" 2604 3000 exit 0
AnchorPoint: "S" 2604 2455 exit 0
LayerCount: 2
Back
Fore
SplineSet
2404 2183 m 2,0,1
 2404 2107 2404 2107 2383.5 2033 c 128,-1,2
 2363 1959 2363 1959 2325.5 1892 c 128,-1,3
 2288 1825 2288 1825 2236 1768 c 128,-1,4
 2184 1711 2184 1711 2120.5 1669 c 128,-1,5
 2057 1627 2057 1627 1984.5 1603.5 c 128,-1,6
 1912 1580 1912 1580 1834 1580 c 0,7,8
 1707 1580 1707 1580 1594 1625.5 c 128,-1,9
 1481 1671 1481 1671 1396 1752 c 128,-1,10
 1311 1833 1311 1833 1261.5 1943.5 c 128,-1,11
 1212 2054 1212 2054 1212 2183 c 2,12,-1
 1212 2541 l 1,13,-1
 1072 2541 l 2,14,15
 964 2541 964 2541 888.5 2520.5 c 128,-1,16
 813 2500 813 2500 762.5 2461.5 c 128,-1,17
 712 2423 712 2423 683 2369 c 128,-1,18
 654 2315 654 2315 639.5 2247 c 128,-1,19
 625 2179 625 2179 621 2099 c 128,-1,20
 617 2019 617 2019 617 1930 c 2,21,-1
 617 1035 l 2,22,23
 617 975 617 975 627.5 913 c 128,-1,24
 638 851 638 851 658 791 c 128,-1,25
 678 731 678 731 706.5 675.5 c 128,-1,26
 735 620 735 620 772 572 c 0,27,28
 816 515 816 515 876 483 c 128,-1,29
 936 451 936 451 1003.5 435.5 c 128,-1,30
 1071 420 1071 420 1141.5 416 c 128,-1,31
 1212 412 1212 412 1277 412 c 2,32,-1
 2185 412 l 2,33,34
 2227 412 2227 412 2260.5 387 c 128,-1,35
 2294 362 2294 362 2317 324.5 c 128,-1,36
 2340 287 2340 287 2352.5 244.5 c 128,-1,37
 2365 202 2365 202 2365 166 c 0,38,39
 2365 127 2365 127 2349 96.5 c 128,-1,40
 2333 66 2333 66 2306.5 44.5 c 128,-1,41
 2280 23 2280 23 2246 11.5 c 128,-1,42
 2212 0 2212 0 2176 0 c 2,43,-1
 1199 0 l 2,44,45
 1074 0 1074 0 951 32 c 128,-1,46
 828 64 828 64 717 123.5 c 128,-1,47
 606 183 606 183 511.5 266.5 c 128,-1,48
 417 350 417 350 347.5 452.5 c 128,-1,49
 278 555 278 555 239 674.5 c 128,-1,50
 200 794 200 794 200 924 c 2,51,-1
 200 1959 l 2,52,53
 200 2091 200 2091 216.5 2215 c 128,-1,54
 233 2339 233 2339 270.5 2447.5 c 128,-1,55
 308 2556 308 2556 368.5 2646 c 128,-1,56
 429 2736 429 2736 517 2800.5 c 128,-1,57
 605 2865 605 2865 721.5 2900.5 c 128,-1,58
 838 2936 838 2936 989 2936 c 2,59,-1
 1847 2936 l 2,60,61
 1927 2936 1927 2936 1999 2911.5 c 128,-1,62
 2071 2887 2071 2887 2133 2844.5 c 128,-1,63
 2195 2802 2195 2802 2245 2743.5 c 128,-1,64
 2295 2685 2295 2685 2330.5 2617 c 128,-1,65
 2366 2549 2366 2549 2385 2474.5 c 128,-1,66
 2404 2400 2404 2400 2404 2324 c 2,67,-1
 2404 2183 l 2,0,1
2109 2340 m 0,68,69
 2109 2382 2109 2382 2101 2418.5 c 128,-1,70
 2093 2455 2093 2455 2074 2482.5 c 128,-1,71
 2055 2510 2055 2510 2023 2525.5 c 128,-1,72
 1991 2541 1991 2541 1944 2541 c 2,73,-1
 1502 2541 l 1,74,-1
 1502 2243 l 2,75,76
 1502 2169 1502 2169 1516.5 2096.5 c 128,-1,77
 1531 2024 1531 2024 1565.5 1966 c 128,-1,78
 1600 1908 1600 1908 1658 1872.5 c 128,-1,79
 1716 1837 1716 1837 1803 1837 c 0,80,81
 1875 1837 1875 1837 1926 1859 c 128,-1,82
 1977 1881 1977 1881 2011 1918.5 c 128,-1,83
 2045 1956 2045 1956 2064.5 2005.5 c 128,-1,84
 2084 2055 2084 2055 2094 2111 c 128,-1,85
 2104 2167 2104 2167 2106.5 2226 c 128,-1,86
 2109 2285 2109 2285 2109 2340 c 0,68,69
EndSplineSet
MultipleSubs2: "ConsToneB-1" u16F14 u16F92
MultipleSubs2: "ConsToneR-1" u16F14 u16F8F
MultipleSubs2: "ConsToneT-1" u16F14 u16F90
MultipleSubs2: "ConsToneA-1" u16F14 u16F91
EndChar

StartChar: u16F15
Encoding: 23 93973 23
Width: 3096
VWidth: 4000
GlyphClass: 2
Flags: W
AnchorPoint: "SP" 580 2680 basechar 0
AnchorPoint: "BL" 100 -1200 basechar 0
AnchorPoint: "B" 818 -1200 basechar 0
AnchorPoint: "AL" 100 3300 basechar 0
AnchorPoint: "A" 818 3400 basechar 0
AnchorPoint: "F" 3096 0 exit 0
AnchorPoint: "R" 3096 850 exit 0
AnchorPoint: "C" 3096 3000 exit 0
AnchorPoint: "S" 3096 2455 exit 0
LayerCount: 2
Back
Fore
SplineSet
2601 2340 m 0,0,1
 2601 2541 2601 2541 2436 2541 c 2,2,-1
 1994 2541 l 1,3,-1
 1994 2243 l 2,4,5
 1994 1968 1994 1968 2150 1872 c 0,6,7
 2208 1837 2208 1837 2287.5 1837 c 128,-1,8
 2367 1837 2367 1837 2418 1859 c 128,-1,9
 2469 1881 2469 1881 2503 1918.5 c 128,-1,10
 2537 1956 2537 1956 2556.5 2005.5 c 128,-1,11
 2576 2055 2576 2055 2586 2111 c 0,12,13
 2601 2195 2601 2195 2601 2340 c 0,0,1
2896 2183 m 2,14,15
 2896 1952 2896 1952 2728 1768 c 0,16,17
 2556 1580 2556 1580 2326 1580 c 0,18,19
 2068 1580 2068 1580 1888 1752 c 0,20,21
 1704 1927 1704 1927 1704 2183 c 2,22,-1
 1704 2541 l 1,23,-1
 1564 2541 l 2,24,25
 1268 2541 1268 2541 1175 2369 c 0,26,27
 1121 2268 1121 2268 1115 2135 c 0,28,29
 1110.5 2027.75 1110.5 2027.75 1110.5 1846.25 c 0,30,31
 1110.5 1785.75 1110.5 1785.75 1111 1717 c 2,32,-1
 1116 936 l 1,33,34
 1152 676 1152 676 1230 594 c 0,35,36
 1367 450 1367 450 1466 435 c 0,37,38
 1615 412 1615 412 1769 412 c 2,39,-1
 2677 412 l 2,40,41
 2754 412 2754 412 2809 324 c 0,42,43
 2857 247 2857 247 2857 187 c 128,-1,44
 2857 127 2857 127 2841 96.5 c 128,-1,45
 2825 66 2825 66 2798 44 c 0,46,47
 2744 0 2744 0 2668 0 c 2,48,-1
 1691 0 l 2,49,50
 1305 0 1305 0 1004 266 c 0,51,52
 692 542 692 542 692 924 c 2,53,-1
 692 954 l 1,54,-1
 609 954 l 2,55,56
 200 954 200 954 200 1369 c 1,57,58
 217 1774 217 1774 594 1774 c 2,59,-1
 692 1774 l 1,60,-1
 692 1959 l 2,61,62
 692 2742 692 2742 1214 2900 c 0,63,64
 1330 2936 1330 2936 1481 2936 c 2,65,-1
 2339 2936 l 2,66,67
 2572 2936 2572 2936 2737 2744 c 0,68,69
 2896 2558 2896 2558 2896 2324 c 2,70,-1
 2896 2183 l 2,14,15
692 1179 m 1,71,-1
 692 1544 l 1,72,-1
 597 1544 l 2,73,74
 431 1544 431 1544 431 1361.5 c 128,-1,75
 431 1179 431 1179 595 1179 c 2,76,-1
 596 1179 l 1,77,-1
 692 1179 l 1,71,-1
EndSplineSet
Substitution2: "noWart-1" u16F15.nowart
Substitution2: "dotWart-1" u16F15.dot
MultipleSubs2: "ConsToneB-1" u16F15 u16F92
MultipleSubs2: "ConsToneR-1" u16F15 u16F8F
MultipleSubs2: "ConsToneT-1" u16F15 u16F90
MultipleSubs2: "ConsToneA-1" u16F15 u16F91
EndChar

StartChar: u16F16
Encoding: 24 93974 24
Width: 2432
VWidth: 4000
GlyphClass: 2
Flags: W
AnchorPoint: "SP" -42 2680 basechar 0
AnchorPoint: "BL" 100 -1200 basechar 0
AnchorPoint: "B" -320 -1200 basechar 0
AnchorPoint: "AL" -708 3300 basechar 0
AnchorPoint: "A" -558 3400 basechar 0
AnchorPoint: "F" 2432 0 exit 0
AnchorPoint: "R" 850 850 exit 0
AnchorPoint: "C" 850 3000 exit 0
AnchorPoint: "S" 850 2455 exit 0
LayerCount: 2
Back
Fore
SplineSet
2232 0 m 1,0,-1
 200 0 l 1,1,-1
 200 2932 l 5,2,-1
 616 2932 l 1,3,-1
 616 412 l 1,4,-1
 2232 412 l 1,5,-1
 2232 0 l 1,0,-1
EndSplineSet
MultipleSubs2: "ConsToneB-1" u16F16 u16F92
MultipleSubs2: "ConsToneR-1" u16F16 u16F8F
MultipleSubs2: "ConsToneT-1" u16F16 u16F90
MultipleSubs2: "ConsToneA-1" u16F16 u16F91
EndChar

StartChar: u16F17
Encoding: 25 93975 25
Width: 2930
VWidth: 4000
GlyphClass: 2
Flags: W
AnchorPoint: "SP" 413 2680 basechar 0
AnchorPoint: "BL" 100 -1200 basechar 0
AnchorPoint: "B" 735 -1200 basechar 0
AnchorPoint: "AL" -459 3300 basechar 0
AnchorPoint: "A" 176 3400 basechar 0
AnchorPoint: "F" 2930 0 exit 0
AnchorPoint: "R" 1350 850 exit 0
AnchorPoint: "C" 1350 3000 exit 0
AnchorPoint: "S" 1350 2455 exit 0
LayerCount: 2
Back
Fore
SplineSet
2730 0 m 1,0,-1
 698 0 l 1,1,-1
 698 1026 l 1,2,-1
 619 1026 l 2,3,4
 200 1026 200 1026 200 1441 c 1,5,6
 217 1846 217 1846 594 1846 c 2,7,-1
 698 1846 l 1,8,-1
 698 2932 l 1,9,-1
 1114 2932 l 5,10,-1
 1114 412 l 1,11,-1
 2730 412 l 1,12,-1
 2730 0 l 1,0,-1
698 1251.44 m 1,13,-1
 698 1616 l 1,14,-1
 607 1616 l 2,15,16
 441 1616 441 1616 441 1439 c 0,17,18
 441 1251 441 1251 605 1251 c 2,19,-1
 606 1251 l 1,20,-1
 698 1251.44 l 1,13,-1
EndSplineSet
Substitution2: "noWart-1" u16F17.nowart
Substitution2: "dotWart-1" u16F17.dot
MultipleSubs2: "ConsToneB-1" u16F17 u16F92
MultipleSubs2: "ConsToneR-1" u16F17 u16F8F
MultipleSubs2: "ConsToneT-1" u16F17 u16F90
MultipleSubs2: "ConsToneA-1" u16F17 u16F91
EndChar

StartChar: u16F18
Encoding: 26 93976 26
Width: 2447
VWidth: 4000
GlyphClass: 2
Flags: W
AnchorPoint: "SP" -127 2680 basechar 0
AnchorPoint: "BL" 100 -1200 basechar 0
AnchorPoint: "B" 493 -1200 basechar 0
AnchorPoint: "AL" -713 3300 basechar 0
AnchorPoint: "A" -320 3400 basechar 0
AnchorPoint: "F" 2447 0 exit 0
AnchorPoint: "R" 2447 850 exit 0
AnchorPoint: "C" 860 3000 exit 0
AnchorPoint: "S" 860 2455 exit 0
LayerCount: 2
Back
Fore
SplineSet
2247 655 m 0,0,1
 2247 616 2247 616 2244 577 c 128,-1,2
 2241 538 2241 538 2241 499 c 0,3,4
 2241 432 2241 432 2211 369.5 c 128,-1,5
 2181 307 2181 307 2131 251.5 c 128,-1,6
 2081 196 2081 196 2016 150 c 128,-1,7
 1951 104 1951 104 1881 70.5 c 128,-1,8
 1811 37 1811 37 1741 18.5 c 128,-1,9
 1671 0 1671 0 1611 0 c 2,10,-1
 200 0 l 1,11,-1
 200 2932 l 1,12,-1
 620 2932 l 5,13,-1
 620 404 l 1,14,-1
 1122 404 l 1,15,-1
 1122 713 l 2,16,17
 1122 827 1122 827 1164.5 934.5 c 128,-1,18
 1207 1042 1207 1042 1282 1125.5 c 128,-1,19
 1357 1209 1357 1209 1458.5 1259.5 c 128,-1,20
 1560 1310 1560 1310 1679 1310 c 0,21,22
 1770 1310 1770 1310 1847.5 1284.5 c 128,-1,23
 1925 1259 1925 1259 1988 1214.5 c 128,-1,24
 2051 1170 2051 1170 2099.5 1108 c 128,-1,25
 2148 1046 2148 1046 2180.5 973.5 c 128,-1,26
 2213 901 2213 901 2230 820 c 128,-1,27
 2247 739 2247 739 2247 655 c 0,0,1
1967 703 m 0,28,29
 1967 759 1967 759 1947 813.5 c 128,-1,30
 1927 868 1927 868 1891 911.5 c 128,-1,31
 1855 955 1855 955 1805 981.5 c 128,-1,32
 1755 1008 1755 1008 1695 1008 c 0,33,34
 1627 1008 1627 1008 1576.5 970 c 128,-1,35
 1526 932 1526 932 1493 874.5 c 128,-1,36
 1460 817 1460 817 1444 750.5 c 128,-1,37
 1428 684 1428 684 1428 627 c 0,38,39
 1428 571 1428 571 1429.5 515.5 c 128,-1,40
 1431 460 1431 460 1432 404 c 1,41,-1
 1683 404 l 2,42,43
 1746 404 1746 404 1798.5 427.5 c 128,-1,44
 1851 451 1851 451 1888.5 492 c 128,-1,45
 1926 533 1926 533 1946.5 587 c 128,-1,46
 1967 641 1967 641 1967 703 c 0,28,29
EndSplineSet
Substitution2: "hmdStyle-1" u16F18.hmd
MultipleSubs2: "ConsToneB-1" u16F18 u16F92
MultipleSubs2: "ConsToneR-1" u16F18 u16F8F
MultipleSubs2: "ConsToneT-1" u16F18 u16F90
MultipleSubs2: "ConsToneA-1" u16F18 u16F91
EndChar

StartChar: u16F19
Encoding: 27 93977 27
Width: 3002
VWidth: 4000
GlyphClass: 2
Flags: W
AnchorPoint: "SP" 450 2680 basechar 0
AnchorPoint: "BL" 100 -1200 basechar 0
AnchorPoint: "B" 771 -1200 basechar 0
AnchorPoint: "AL" -436 3300 basechar 0
AnchorPoint: "A" 235 3400 basechar 0
AnchorPoint: "F" 3002 0 exit 0
AnchorPoint: "R" 3002 850 exit 0
AnchorPoint: "C" 1400 3000 exit 0
AnchorPoint: "S" 1400 2455 exit 0
LayerCount: 2
Back
Fore
SplineSet
2522 703 m 0,0,1
 2522 759 2522 759 2502 813.5 c 128,-1,2
 2482 868 2482 868 2446 911.5 c 128,-1,3
 2410 955 2410 955 2360 981.5 c 128,-1,4
 2310 1008 2310 1008 2250 1008 c 0,5,6
 2182 1008 2182 1008 2131.5 970 c 128,-1,7
 2081 932 2081 932 2048 874.5 c 128,-1,8
 2015 817 2015 817 1999 750.5 c 128,-1,9
 1983 684 1983 684 1983 627 c 0,10,11
 1983 571 1983 571 1984.5 515.5 c 128,-1,12
 1986 460 1986 460 1987 404 c 1,13,-1
 2238 404 l 2,14,15
 2301 404 2301 404 2353.5 427.5 c 128,-1,16
 2406 451 2406 451 2443.5 492 c 128,-1,17
 2481 533 2481 533 2501.5 587 c 128,-1,18
 2522 641 2522 641 2522 703 c 0,0,1
2802 655 m 0,19,20
 2802 616 2802 616 2799 577 c 128,-1,21
 2796 538 2796 538 2796 499 c 0,22,23
 2796 432 2796 432 2766 369.5 c 128,-1,24
 2736 307 2736 307 2686 251.5 c 128,-1,25
 2636 196 2636 196 2571 150 c 128,-1,26
 2506 104 2506 104 2436 70.5 c 128,-1,27
 2366 37 2366 37 2296 18.5 c 128,-1,28
 2226 0 2226 0 2166 0 c 2,29,-1
 755 0 l 1,30,-1
 755 1091 l 1,31,-1
 609 1091 l 2,32,33
 200 1091 200 1091 200 1506 c 1,34,35
 217 1911 217 1911 594 1911 c 2,36,-1
 755 1911 l 1,37,-1
 755 2932 l 1,38,-1
 1175 2932 l 5,39,-1
 1175 404 l 1,40,-1
 1677 404 l 1,41,-1
 1677 713 l 2,42,43
 1677 827 1677 827 1719.5 934.5 c 128,-1,44
 1762 1042 1762 1042 1837 1125.5 c 128,-1,45
 1912 1209 1912 1209 2013.5 1259.5 c 128,-1,46
 2115 1310 2115 1310 2234 1310 c 0,47,48
 2325 1310 2325 1310 2402.5 1284.5 c 128,-1,49
 2480 1259 2480 1259 2543 1214.5 c 128,-1,50
 2606 1170 2606 1170 2654.5 1108 c 128,-1,51
 2703 1046 2703 1046 2735.5 973.5 c 128,-1,52
 2768 901 2768 901 2785 820 c 128,-1,53
 2802 739 2802 739 2802 655 c 0,19,20
755 1316.76 m 1,54,-1
 755 1681 l 1,55,-1
 597 1681 l 2,56,57
 431 1681 431 1681 431 1504 c 0,58,59
 431 1316 431 1316 595 1316 c 2,60,-1
 596 1316 l 1,61,-1
 755 1316.76 l 1,54,-1
EndSplineSet
Substitution2: "noWart-1" u16F19.nowart
Substitution2: "dotWart-1" u16F19.dot
Substitution2: "hmdStyle-1" u16F19.hmd
MultipleSubs2: "ConsToneB-1" u16F19 u16F92
MultipleSubs2: "ConsToneR-1" u16F19 u16F8F
MultipleSubs2: "ConsToneT-1" u16F19 u16F90
MultipleSubs2: "ConsToneA-1" u16F19 u16F91
EndChar

StartChar: u16F1A
Encoding: 28 93978 28
Width: 2664
VWidth: 4000
GlyphClass: 2
Flags: W
AnchorPoint: "SP" 800 2680 basechar 0
AnchorPoint: "BL" 100 -1200 basechar 0
AnchorPoint: "B" 710 -1200 basechar 0
AnchorPoint: "AL" 100 3300 basechar 0
AnchorPoint: "A" 710 3400 basechar 0
AnchorPoint: "F" 2664 0 exit 0
AnchorPoint: "R" 2550 850 exit 0
AnchorPoint: "C" 2000 3000 exit 0
AnchorPoint: "S" 2200 2455 exit 0
LayerCount: 2
Back
Fore
SplineSet
2464 0 m 1,0,-1
 200 0 l 1,1,-1
 1107 2932 l 1,2,-1
 1553 2932 l 1,3,-1
 2464 0 l 1,0,-1
1934 388 m 1,4,-1
 1393 2328 l 1,5,-1
 1284 2328 l 1,6,-1
 710 388 l 1,7,-1
 1934 388 l 1,4,-1
EndSplineSet
MultipleSubs2: "ConsToneB-1" u16F1A u16F92
MultipleSubs2: "ConsToneR-1" u16F1A u16F8F
MultipleSubs2: "ConsToneT-1" u16F1A u16F90
MultipleSubs2: "ConsToneA-1" u16F1A u16F91
EndChar

StartChar: u16F1B
Encoding: 29 93979 29
Width: 2732
VWidth: 4000
GlyphClass: 2
Flags: W
AnchorPoint: "SP" 850 2680 basechar 0
AnchorPoint: "BL" 100 -1200 basechar 0
AnchorPoint: "B" 670 -1200 basechar 0
AnchorPoint: "AL" 100 3300 basechar 0
AnchorPoint: "A" 670 3400 basechar 0
AnchorPoint: "F" 2732 0 exit 0
AnchorPoint: "R" 2732 850 exit 0
AnchorPoint: "C" 2062 3000 exit 0
AnchorPoint: "S" 2242 2455 exit 0
LayerCount: 2
Back
Fore
SplineSet
2002 388 m 1,0,-1
 1461 2328 l 1,1,-1
 1352 2328 l 1,2,-1
 778 388 l 1,3,-1
 2002 388 l 1,0,-1
2532 0 m 1,4,-1
 268 0 l 1,5,-1
 594.401 1055.13 l 1,6,7
 200 1062.47 200 1062.47 200 1470 c 1,8,9
 217 1875 217 1875 594 1875 c 2,10,-1
 848.021 1875 l 1,11,-1
 1175 2932 l 1,12,-1
 1621 2932 l 1,13,-1
 2532 0 l 1,4,-1
664.098 1280.44 m 1,14,-1
 776.873 1645 l 1,15,-1
 597 1645 l 2,16,17
 431 1645 431 1645 431 1468 c 0,18,19
 431 1280 431 1280 595 1280 c 2,20,-1
 596 1280 l 1,21,-1
 664.098 1280.44 l 1,14,-1
EndSplineSet
Substitution2: "noWart-1" u16F1B.nowart
Substitution2: "dotWart-1" u16F1B.dot
MultipleSubs2: "ConsToneB-1" u16F1B u16F92
MultipleSubs2: "ConsToneR-1" u16F1B u16F8F
MultipleSubs2: "ConsToneT-1" u16F1B u16F90
MultipleSubs2: "ConsToneA-1" u16F1B u16F91
EndChar

StartChar: u16F1C
Encoding: 30 93980 30
Width: 2668
VWidth: 4000
GlyphClass: 2
Flags: W
AnchorPoint: "SP" 800 2680 basechar 0
AnchorPoint: "BL" 100 -1200 basechar 0
AnchorPoint: "B" 604 -1200 basechar 0
AnchorPoint: "AL" 100 3300 basechar 0
AnchorPoint: "A" 604 3400 basechar 0
AnchorPoint: "F" 2668 0 exit 0
AnchorPoint: "R" 2668 850 exit 0
AnchorPoint: "C" 1918 3000 exit 0
AnchorPoint: "S" 2138 2455 exit 0
LayerCount: 2
Back
Fore
SplineSet
2468 0 m 1,0,-1
 200 0 l 1,1,-1
 1107 2932 l 1,2,-1
 1553 2932 l 1,3,-1
 2468 0 l 1,0,-1
1690 1236 m 1,4,-1
 1395 2369 l 1,5,-1
 1278 2369 l 1,6,-1
 979 1242 l 1,7,8
 1335 1266 l 257,9,10
 1690 1236 l 1,4,-1
1948 384 m 1,11,-1
 1759 991 l 1,12,13
 1488.32 966 1488.32 966 1340 958 c 1,14,15
 1115.04 973 1115.04 973 912 991 c 1,16,-1
 707 384 l 1,17,-1
 1948 384 l 1,11,-1
EndSplineSet
MultipleSubs2: "ConsToneB-1" u16F1C u16F92
MultipleSubs2: "ConsToneR-1" u16F1C u16F8F
MultipleSubs2: "ConsToneT-1" u16F1C u16F90
MultipleSubs2: "ConsToneA-1" u16F1C u16F91
EndChar

StartChar: u16F1D
Encoding: 31 93981 31
Width: 2668
VWidth: 4000
GlyphClass: 2
Flags: W
AnchorPoint: "SP" 800 2680 basechar 0
AnchorPoint: "BL" 100 -1200 basechar 0
AnchorPoint: "B" 604 -1200 basechar 0
AnchorPoint: "AL" 100 3300 basechar 0
AnchorPoint: "A" 604 3400 basechar 0
AnchorPoint: "F" 2668 0 exit 0
AnchorPoint: "R" 2578 850 exit 0
AnchorPoint: "C" 1908 3000 exit 0
AnchorPoint: "S" 2118 2455 exit 0
LayerCount: 2
Back
Fore
SplineSet
1948 384 m 1,0,-1
 1778 969 l 1,1,2
 1671.4 960 1671.4 960 1342 947 c 1,3,4
 1079.09 960 1079.09 960 891 978 c 1,5,-1
 707 384 l 1,6,-1
 1948 384 l 1,0,-1
1725 1218 m 1,7,-1
 1395 2369 l 1,8,-1
 1278 2369 l 1,9,-1
 947 1218 l 1,10,-1
 1332 1242 l 1,11,-1
 1725 1218 l 1,7,-1
2468 0 m 1,12,-1
 200 0 l 1,13,-1
 524.49 1048.96 l 1,14,15
 200 1089.35 200 1089.35 200 1459 c 1,16,17
 217 1864 217 1864 594 1864 c 2,18,-1
 776.619 1864 l 1,19,-1
 1107 2932 l 1,20,-1
 1553 2932 l 1,21,-1
 2468 0 l 1,12,-1
592.562 1269.01 m 1,22,-1
 705.47 1634 l 1,23,-1
 597 1634 l 2,24,25
 431 1634 431 1634 431 1457 c 0,26,27
 431 1270.4 431 1270.4 592.562 1269.01 c 1,22,-1
EndSplineSet
Substitution2: "noWart-1" u16F1D.nowart
Substitution2: "dotWart-1" u16F1D.dot
MultipleSubs2: "ConsToneB-1" u16F1D u16F92
MultipleSubs2: "ConsToneR-1" u16F1D u16F8F
MultipleSubs2: "ConsToneT-1" u16F1D u16F90
MultipleSubs2: "ConsToneA-1" u16F1D u16F91
EndChar

StartChar: u16F1E
Encoding: 32 93982 32
Width: 2432
VWidth: 4000
GlyphClass: 2
Flags: W
AnchorPoint: "BL" 100 -1200 basechar 0
AnchorPoint: "B" 486 -1200 basechar 0
AnchorPoint: "AL" 100 3300 basechar 0
AnchorPoint: "A" 486 3400 basechar 0
AnchorPoint: "F" 2432 0 exit 0
AnchorPoint: "R" 2432 850 exit 0
AnchorPoint: "C" 2432 3000 exit 0
AnchorPoint: "S" 2432 2455 exit 0
LayerCount: 2
Back
Fore
SplineSet
2232 0 m 1,0,-1
 200 0 l 1,1,-1
 200 404 l 1,2,-1
 1816 404 l 1,3,-1
 1816 2528 l 1,4,-1
 200 2528 l 1,5,-1
 200 2932 l 1,6,-1
 2232 2932 l 1,7,-1
 2232 0 l 1,0,-1
EndSplineSet
MultipleSubs2: "ConsToneB-1" u16F1E u16F92
MultipleSubs2: "ConsToneR-1" u16F1E u16F8F
MultipleSubs2: "ConsToneT-1" u16F1E u16F90
MultipleSubs2: "ConsToneA-1" u16F1E u16F91
EndChar

StartChar: u16F1F
Encoding: 33 93983 33
Width: 2432
VWidth: 4000
GlyphClass: 2
Flags: W
AnchorPoint: "BL" 100 -1200 basechar 0
AnchorPoint: "B" 486 -1200 basechar 0
AnchorPoint: "AL" 100 3300 basechar 0
AnchorPoint: "A" 486 3400 basechar 0
AnchorPoint: "F" 2432 0 exit 0
AnchorPoint: "R" 2432 850 exit 0
AnchorPoint: "C" 2432 3000 exit 0
AnchorPoint: "S" 2432 2455 exit 0
LayerCount: 2
Back
Fore
SplineSet
2232 0 m 1,0,-1
 200 0 l 1,1,-1
 200 404 l 1,2,-1
 1816 404 l 1,3,-1
 1816 1058 l 5,4,-1
 1619 1058 l 6,5,6
 1210 1058 1210 1058 1210 1473 c 5,7,8
 1227 1878 1227 1878 1604 1878 c 6,9,-1
 1816 1878 l 5,10,-1
 1816 2528 l 1,11,-1
 200 2528 l 1,12,-1
 200 2932 l 1,13,-1
 2232 2932 l 1,14,-1
 2232 0 l 1,0,-1
1816 1284.01 m 5,15,-1
 1816 1648 l 5,16,-1
 1607 1648 l 6,17,18
 1441 1648 1441 1648 1441 1471 c 4,19,20
 1441 1283 1441 1283 1605 1283 c 6,21,-1
 1606 1283 l 5,22,-1
 1816 1284.01 l 5,15,-1
EndSplineSet
Substitution2: "noWart-1" u16F1F.nowart
Substitution2: "dotWart-1" u16F1F.dot
MultipleSubs2: "ConsToneB-1" u16F1F u16F92
MultipleSubs2: "ConsToneR-1" u16F1F u16F8F
MultipleSubs2: "ConsToneT-1" u16F1F u16F90
MultipleSubs2: "ConsToneA-1" u16F1F u16F91
EndChar

StartChar: u16F20
Encoding: 34 93984 34
Width: 2740
VWidth: 4000
GlyphClass: 2
Flags: W
AnchorPoint: "BL" 100 -1200 basechar 0
AnchorPoint: "B" 640 -1200 basechar 0
AnchorPoint: "AL" 100 3300 basechar 0
AnchorPoint: "A" 640 3400 basechar 0
AnchorPoint: "F" 2275 0 exit 0
AnchorPoint: "R" 2275 850 exit 0
AnchorPoint: "C" 2740 3000 exit 0
AnchorPoint: "S" 2740 2455 exit 0
LayerCount: 2
Back
Fore
SplineSet
2540 2520 m 1,0,-1
 2065 2520 l 1,1,-1
 2065 0 l 1,2,-1
 280 0 l 1,3,-1
 280 403 l 1,4,-1
 1617 406 l 1,5,-1
 1631 2520 l 1,6,-1
 200 2520 l 1,7,-1
 200 2932 l 1,8,-1
 2540 2932 l 1,9,-1
 2540 2520 l 1,0,-1
EndSplineSet
MultipleSubs2: "ConsToneB-1" u16F20 u16F92
MultipleSubs2: "ConsToneR-1" u16F20 u16F8F
MultipleSubs2: "ConsToneT-1" u16F20 u16F90
MultipleSubs2: "ConsToneA-1" u16F20 u16F91
EndChar

StartChar: u16F21
Encoding: 35 93985 35
Width: 2884
VWidth: 4000
GlyphClass: 2
Flags: W
AnchorPoint: "BL" 100 -1200 basechar 0
AnchorPoint: "B" 850 -1200 basechar 0
AnchorPoint: "AL" 100 3300 basechar 0
AnchorPoint: "A" 850 3400 basechar 0
AnchorPoint: "F" 2000 0 exit 0
AnchorPoint: "R" 2000 850 exit 0
AnchorPoint: "C" 2884 3000 exit 0
AnchorPoint: "S" 2884 2455 exit 0
LayerCount: 2
Back
Fore
SplineSet
2684 2520 m 1,0,-1
 1786 2520 l 5,1,-1
 1786 0 l 1,2,-1
 578 0 l 1,3,-1
 578 403 l 1,4,-1
 1370 403 l 1,5,-1
 1370 2520 l 1,6,-1
 200 2520 l 1,7,-1
 200 2932 l 1,8,-1
 2684 2932 l 1,9,-1
 2684 2520 l 1,0,-1
EndSplineSet
MultipleSubs2: "ConsToneB-1" u16F21 u16F92
MultipleSubs2: "ConsToneR-1" u16F21 u16F8F
MultipleSubs2: "ConsToneT-1" u16F21 u16F90
MultipleSubs2: "ConsToneA-1" u16F21 u16F91
EndChar

StartChar: u16F22
Encoding: 36 93986 36
Width: 2884
VWidth: 4000
GlyphClass: 2
Flags: W
AnchorPoint: "BL" 100 -1200 basechar 0
AnchorPoint: "B" 850 -1200 basechar 0
AnchorPoint: "AL" 100 3300 basechar 0
AnchorPoint: "A" 850 3400 basechar 0
AnchorPoint: "F" 2000 0 exit 0
AnchorPoint: "R" 2000 850 exit 0
AnchorPoint: "C" 2884 3000 exit 0
AnchorPoint: "S" 2884 2455 exit 0
LayerCount: 2
Back
Fore
SplineSet
2684 2520 m 1,0,-1
 1786 2520 l 1,1,-1
 1786 0 l 1,2,-1
 315 0 l 1,3,-1
 315 403 l 1,4,-1
 1370 403 l 1,5,-1
 1370 1034 l 1,6,-1
 1182 1034 l 2,7,8
 773 1034 773 1034 773 1449 c 1,9,10
 790 1854 790 1854 1167 1854 c 2,11,-1
 1370 1854 l 1,12,-1
 1370 2520 l 1,13,-1
 200 2520 l 1,14,-1
 200 2932 l 1,15,-1
 2684 2932 l 1,16,-1
 2684 2520 l 1,0,-1
1370 1259.97 m 1,17,-1
 1370 1624 l 1,18,-1
 1170 1624 l 2,19,20
 1004 1624 1004 1624 1004 1447 c 0,21,22
 1004 1259 1004 1259 1168 1259 c 2,23,-1
 1169 1259 l 1,24,-1
 1370 1259.97 l 1,17,-1
EndSplineSet
Substitution2: "noWart-1" u16F22.nowart
Substitution2: "dotWart-1" u16F22.dot
MultipleSubs2: "ConsToneB-1" u16F22 u16F92
MultipleSubs2: "ConsToneR-1" u16F22 u16F8F
MultipleSubs2: "ConsToneT-1" u16F22 u16F90
MultipleSubs2: "ConsToneA-1" u16F22 u16F91
EndChar

StartChar: u16F23
Encoding: 37 93987 37
Width: 2447
VWidth: 4000
GlyphClass: 2
Flags: W
AnchorPoint: "SP" 400 2680 basechar 0
AnchorPoint: "BL" 100 -1200 basechar 0
AnchorPoint: "B" 493 -1200 basechar 0
AnchorPoint: "AL" 100 3300 basechar 0
AnchorPoint: "A" 493 3400 basechar 0
AnchorPoint: "F" 2447 0 exit 0
AnchorPoint: "R" 2447 850 exit 0
AnchorPoint: "C" 2447 3000 exit 0
AnchorPoint: "S" 2447 2455 exit 0
LayerCount: 2
Back
Fore
SplineSet
1428 627 m 1,0,1
 1432 306 l 1,2,-1
 1674 306 l 2,3,4
 1832 306 1832 306 1946 587 c 0,5,6
 1967 641 1967 641 1967 730 c 128,-1,7
 1967 819 1967 819 1891 912 c 1,8,9
 1811 1008 1811 1008 1719 1008 c 128,-1,10
 1627 1008 1627 1008 1576.5 970 c 128,-1,11
 1526 932 1526 932 1477 846 c 128,-1,12
 1428 760 1428 760 1428 627 c 1,0,1
2247 655 m 1,13,14
 2247.18 643.784 2247.18 643.784 2247.18 632.756 c 0,15,16
 2247.18 -16.0371 2247.18 -16.0371 1615.54 -16.0371 c 0,17,18
 1610.79 -16.0371 1610.79 -16.0371 1606 -16 c 0,19,20
 609 -8 609 -8 314 696 c 0,21,22
 200 969 200 969 200 1400 c 0,23,24
 200 1568 200 1568 210 1714 c 0,25,26
 255 2371 255 2371 649 2686 c 0,27,28
 869 2862 869 2862 1123 2907 c 0,29,30
 1230 2926 1230 2926 1483 2926 c 128,-1,31
 1736 2926 1736 2926 1924 2828 c 0,32,33
 1983 2797 1983 2797 2042 2770 c 1,34,-1
 1918 2404 l 1,35,-1
 1864 2423 l 2,36,37
 1830 2435 1830 2435 1723 2483 c 0,38,39
 1620.2 2530.08 1620.2 2530.08 1558.93 2530.08 c 0,40,41
 1556.43 2530.08 1556.43 2530.08 1554 2530 c 0,42,43
 1523 2529 1523 2529 1368 2529 c 0,44,45
 1222 2529 1222 2529 1136 2503 c 0,46,47
 666 2360 666 2360 614 1598 c 0,48,49
 608 1501 608 1501 608 1317.5 c 128,-1,50
 608 1134 608 1134 643 999.5 c 128,-1,51
 678 865 678 865 764 681 c 0,52,53
 849 496 849 496 996 438 c 2,54,-1
 1134 384 l 1,55,-1
 1122 713 l 2,56,57
 1121.67 721.571 1121.67 721.571 1121.67 730.196 c 0,58,59
 1121.67 827.224 1121.67 827.224 1163 931 c 0,60,61
 1208 1043 1208 1043 1282 1126 c 0,62,63
 1446 1310 1446 1310 1694 1310 c 0,64,65
 1941 1310 1941 1310 2094 1114.5 c 128,-1,66
 2247 919 2247 919 2247 655 c 1,13,14
EndSplineSet
Substitution2: "hmdStyle-1" u16F23.hmd
MultipleSubs2: "ConsToneB-1" u16F23 u16F92
MultipleSubs2: "ConsToneR-1" u16F23 u16F8F
MultipleSubs2: "ConsToneT-1" u16F23 u16F90
MultipleSubs2: "ConsToneA-1" u16F23 u16F91
EndChar

StartChar: u16F28
Encoding: 38 93992 38
Width: 828
VWidth: 4000
GlyphClass: 2
Flags: W
AnchorPoint: "BL" 100 -1200 basechar 0
AnchorPoint: "B" -316 -1200 basechar 0
AnchorPoint: "AL" 100 3300 basechar 0
AnchorPoint: "A" -316 3400 basechar 0
AnchorPoint: "F" 828 0 exit 0
AnchorPoint: "R" 828 850 exit 0
AnchorPoint: "C" 828 3000 exit 0
AnchorPoint: "S" 828 2455 exit 0
LayerCount: 2
Back
Fore
SplineSet
628 0 m 1,0,-1
 200 0 l 1,1,-1
 200 2932 l 1,2,-1
 628 2932 l 1,3,-1
 628 0 l 1,0,-1
EndSplineSet
MultipleSubs2: "ConsToneB-1" u16F28 u16F92
MultipleSubs2: "ConsToneR-1" u16F28 u16F8F
MultipleSubs2: "ConsToneT-1" u16F28 u16F90
MultipleSubs2: "ConsToneA-1" u16F28 u16F91
EndChar

StartChar: u16F25
Encoding: 39 93989 39
Width: 2670
VWidth: 4000
GlyphClass: 2
Flags: W
AnchorPoint: "BL" 100 -1200 basechar 0
AnchorPoint: "B" 605 -1200 basechar 0
AnchorPoint: "AL" 100 3300 basechar 0
AnchorPoint: "A" 605 3400 basechar 0
AnchorPoint: "F" 2670 0 exit 0
AnchorPoint: "R" 2670 850 exit 0
AnchorPoint: "C" 2670 3000 exit 0
AnchorPoint: "S" 2670 2455 exit 0
LayerCount: 2
Back
Fore
SplineSet
2125 1474 m 1,0,1
 1942 1467 1942 1467 1898 1344 c 0,2,3
 1878 1288 1878 1288 1878 1225 c 128,-1,4
 1878 1162 1878 1162 1882 1133.5 c 128,-1,5
 1886 1105 1886 1105 1894.5 1077.5 c 128,-1,6
 1903 1050 1903 1050 1916.5 1024.5 c 128,-1,7
 1930 999 1930 999 1948 978 c 0,8,9
 2003 918 2003 918 2083 918 c 2,10,-1
 2121 918 l 1,11,-1
 2122 818 l 1,12,-1
 2074 818 l 2,13,14
 1885 818 1885 818 1805 1016 c 0,15,16
 1771 1100 1771 1100 1771 1172 c 0,17,18
 1771 1245 1771 1245 1779.5 1294 c 128,-1,19
 1788 1343 1788 1343 1806 1385 c 128,-1,20
 1824 1427 1824 1427 1851 1462 c 128,-1,21
 1878 1497 1878 1497 1914 1522 c 0,22,23
 1990 1572 1990 1572 2102 1572 c 1,24,-1
 2125 1571 l 1,25,-1
 2125 1474 l 1,0,1
2148.5 1271 m 128,-1,27
 2199 1271 2199 1271 2199 1220.5 c 128,-1,28
 2199 1170 2199 1170 2149.5 1170 c 128,-1,29
 2100 1170 2100 1170 2099 1220.5 c 128,-1,26
 2098 1271 2098 1271 2148.5 1271 c 128,-1,27
2269.5 854 m 128,-1,31
 2304 977 2304 977 2304 1110 c 128,-1,32
 2304 1243 2304 1243 2269.5 1366 c 128,-1,33
 2235 1489 2235 1489 2172 1596 c 0,34,35
 2110 1703 2110 1703 2022 1791.5 c 128,-1,36
 1934 1880 1934 1880 1827 1943 c 128,-1,37
 1720 2006 1720 2006 1597 2040.5 c 128,-1,38
 1474 2075 1474 2075 1341 2075 c 128,-1,39
 1208 2075 1208 2075 1084.5 2040.5 c 128,-1,40
 961 2006 961 2006 853.5 1943 c 128,-1,41
 746 1880 746 1880 658 1792 c 128,-1,42
 570 1704 570 1704 507 1596.5 c 128,-1,43
 444 1489 444 1489 409.5 1366 c 128,-1,44
 375 1243 375 1243 375 1110 c 128,-1,45
 375 977 375 977 409.5 853.5 c 128,-1,46
 444 730 444 730 507 623 c 128,-1,47
 570 516 570 516 658 428 c 128,-1,48
 746 340 746 340 853.5 277 c 128,-1,49
 961 214 961 214 1084.5 179.5 c 128,-1,50
 1208 145 1208 145 1341 145 c 128,-1,51
 1474 145 1474 145 1597 179.5 c 128,-1,52
 1720 214 1720 214 1827 277 c 128,-1,53
 1934 340 1934 340 2022 428 c 128,-1,54
 2110 516 2110 516 2172.5 623.5 c 128,-1,30
 2235 731 2235 731 2269.5 854 c 128,-1,31
532 321 m 0,55,56
 200 655 200 655 200 1126 c 0,57,58
 200 1596 200 1596 533 1929 c 128,-1,59
 866 2262 866 2262 1336 2262 c 0,60,61
 1805 2262 1805 2262 2138 1928 c 0,62,63
 2470 1595 2470 1595 2470 1125 c 0,64,65
 2470 654 2470 654 2138 320 c 0,66,67
 1806 -13 1806 -13 1335.5 -13 c 128,-1,68
 865 -13 865 -13 532 321 c 0,55,56
828 1450 m 1,69,-1
 790 1450 l 1,70,-1
 684 1090 l 1,71,-1
 933 1090 l 1,72,-1
 828 1450 l 1,69,-1
873 1624 m 1,73,-1
 1129 804 l 1,74,-1
 1017 804 l 1,75,-1
 961 993 l 1,76,-1
 657 993 l 1,77,-1
 657 996 l 1,78,-1
 600 804 l 1,79,-1
 493 804 l 1,80,-1
 747 1624 l 1,81,-1
 873 1624 l 1,73,-1
1469 1252 m 2,82,83
 1605 1252 1605 1252 1605 1380.5 c 128,-1,84
 1605 1509 1605 1509 1482 1509 c 2,85,-1
 1275 1509 l 1,86,-1
 1275 1252 l 1,87,-1
 1469 1252 l 2,82,83
1565 1157 m 1,88,-1
 1725 802 l 1,89,-1
 1599 802 l 1,90,-1
 1464 1141 l 1,91,-1
 1275 1141 l 1,92,-1
 1275 802 l 1,93,-1
 1160 802 l 1,94,-1
 1160 1622 l 1,95,-1
 1493 1622 l 2,96,97
 1623 1622 1623 1622 1690 1503 c 0,98,99
 1719 1450 1719 1450 1719 1398.5 c 128,-1,100
 1719 1347 1719 1347 1708.5 1312 c 128,-1,101
 1698 1277 1698 1277 1678 1248 c 0,102,103
 1635 1184 1635 1184 1565 1157 c 1,88,-1
EndSplineSet
MultipleSubs2: "ConsToneB-1" u16F25 u16F92
MultipleSubs2: "ConsToneR-1" u16F25 u16F8F
MultipleSubs2: "ConsToneT-1" u16F25 u16F90
MultipleSubs2: "ConsToneA-1" u16F25 u16F91
EndChar

StartChar: u16F2A
Encoding: 40 93994 40
Width: 2620
VWidth: 4000
GlyphClass: 2
Flags: W
AnchorPoint: "BL" 100 -1200 basechar 0
AnchorPoint: "B" 610 -1200 basechar 0
AnchorPoint: "AL" 100 3300 basechar 0
AnchorPoint: "A" 610 3400 basechar 0
AnchorPoint: "F" 2620 0 exit 0
AnchorPoint: "R" 1750 850 exit 0
AnchorPoint: "C" 1750 3000 exit 0
AnchorPoint: "S" 1750 2455 exit 0
LayerCount: 2
Back
Fore
SplineSet
2420 0 m 1,0,-1
 200 0 l 1,1,-1
 200 411 l 1,2,-1
 1128 411 l 1,3,-1
 1128 2520 l 1,4,-1
 304 2520 l 1,5,-1
 304 2932 l 1,6,-1
 1553 2932 l 1,7,-1
 1553 411 l 1,8,-1
 2420 411 l 1,9,-1
 2420 0 l 1,0,-1
EndSplineSet
MultipleSubs2: "ConsToneB-1" u16F2A u16F92
MultipleSubs2: "ConsToneR-1" u16F2A u16F8F
MultipleSubs2: "ConsToneT-1" u16F2A u16F90
MultipleSubs2: "ConsToneA-1" u16F2A u16F91
EndChar

StartChar: u16F2B
Encoding: 41 93995 41
Width: 2620
VWidth: 4000
GlyphClass: 2
Flags: W
AnchorPoint: "BL" 100 -1200 basechar 0
AnchorPoint: "B" 610 -1200 basechar 0
AnchorPoint: "AL" 100 3300 basechar 0
AnchorPoint: "A" 610 3400 basechar 0
AnchorPoint: "F" 2620 0 exit 0
AnchorPoint: "R" 1750 850 exit 0
AnchorPoint: "C" 1750 3000 exit 0
AnchorPoint: "S" 1750 2455 exit 0
LayerCount: 2
Back
Fore
SplineSet
2420 0 m 1,0,-1
 200 0 l 1,1,-1
 200 411 l 1,2,-1
 1128 411 l 1,3,-1
 1128 1054 l 1,4,-1
 982 1054 l 2,5,6
 573 1054 573 1054 573 1469 c 1,7,8
 590 1874 590 1874 967 1874 c 2,9,-1
 1128 1874 l 1,10,-1
 1128 2520 l 1,11,-1
 304 2520 l 1,12,-1
 304 2932 l 1,13,-1
 1553 2932 l 1,14,-1
 1553 411 l 1,15,-1
 2420 411 l 1,16,-1
 2420 0 l 1,0,-1
1128 1279.77 m 1,17,-1
 1128 1644 l 1,18,-1
 970 1644 l 2,19,20
 804 1644 804 1644 804 1467 c 0,21,22
 804 1279 804 1279 968 1279 c 2,23,-1
 969 1279 l 1,24,-1
 1128 1279.77 l 1,17,-1
EndSplineSet
Substitution2: "noWart-1" u16F2B.nowart
Substitution2: "dotWart-1" u16F2B.dot
MultipleSubs2: "ConsToneB-1" u16F2B u16F92
MultipleSubs2: "ConsToneR-1" u16F2B u16F8F
MultipleSubs2: "ConsToneT-1" u16F2B u16F90
MultipleSubs2: "ConsToneA-1" u16F2B u16F91
EndChar

StartChar: u16F2C
Encoding: 42 93996 42
Width: 2620
VWidth: 4000
GlyphClass: 2
Flags: W
AnchorPoint: "SP" 800 2680 basechar 0
AnchorPoint: "BL" 100 -1200 basechar 0
AnchorPoint: "B" 545 -1200 basechar 0
AnchorPoint: "AL" 100 3300 basechar 0
AnchorPoint: "A" 545 3400 basechar 0
AnchorPoint: "F" 2620 0 exit 0
AnchorPoint: "R" 1700 850 exit 0
AnchorPoint: "C" 2620 3000 exit 0
AnchorPoint: "S" 2620 2455 exit 0
LayerCount: 2
Back
Fore
SplineSet
2420 0 m 1,0,-1
 200 0 l 1,1,-1
 200 407 l 1,2,-1
 1061 407 l 1,3,-1
 1061 2932 l 1,4,-1
 2356 2932 l 1,5,-1
 2356 2524 l 1,6,-1
 1483 2524 l 1,7,-1
 1483 407 l 1,8,-1
 2420 407 l 1,9,-1
 2420 0 l 1,0,-1
EndSplineSet
MultipleSubs2: "ConsToneB-1" u16F2C u16F92
MultipleSubs2: "ConsToneR-1" u16F2C u16F8F
MultipleSubs2: "ConsToneT-1" u16F2C u16F90
MultipleSubs2: "ConsToneA-1" u16F2C u16F91
EndChar

StartChar: u16F2D
Encoding: 43 93997 43
Width: 2380
VWidth: 4000
GlyphClass: 2
Flags: W
AnchorPoint: "BL" 100 -1200 basechar 0
AnchorPoint: "B" 495 -1200 basechar 0
AnchorPoint: "AL" 100 3300 basechar 0
AnchorPoint: "A" 495 3400 basechar 0
AnchorPoint: "F" 2380 0 exit 0
AnchorPoint: "R" 2380 850 exit 0
AnchorPoint: "C" 2380 3000 exit 0
AnchorPoint: "S" 2380 2455 exit 0
LayerCount: 2
Back
Fore
SplineSet
2180.01 832 m 1,0,1
 2116.01 -52 2116.01 -52 1158.01 -52 c 128,-1,2
 200.006 -52 200.006 -52 200.006 750 c 0,3,4
 200.006 1517 200.006 1517 815.006 1578 c 0,5,6
 815.006 1579 815.006 1579 815.006 1590 c 1,7,8
 200 1649.81 200 1649.81 200 2478.62 c 0,9,10
 200 2481.31 200 2481.31 200.006 2484 c 0,11,12
 201.006 3017 201.006 3017 1173.01 3084 c 0,13,14
 1231.01 3088 1231.01 3088 1286.01 3088 c 0,15,16
 2099.01 3086 2099.01 3086 2180.01 2238 c 1,17,-1
 1781.01 2238 l 1,18,19
 1780.01 2678 1780.01 2678 1192.51 2678 c 128,-1,20
 605.006 2678 605.006 2678 605.006 2286 c 1,21,22
 608.006 1836 608.006 1836 1443.01 1806 c 1,23,-1
 1438.01 1347 l 1,24,25
 606.006 1347 606.006 1347 605.006 753 c 0,26,27
 605.004 751.561 l 0,28,29
 605.004 336 605.004 336 1182.01 336 c 128,-1,30
 1759.01 336 1759.01 336 1781.01 832 c 1,31,-1
 2180.01 832 l 1,0,1
EndSplineSet
MultipleSubs2: "ConsToneB-1" u16F2D u16F92
MultipleSubs2: "ConsToneR-1" u16F2D u16F8F
MultipleSubs2: "ConsToneT-1" u16F2D u16F90
MultipleSubs2: "ConsToneA-1" u16F2D u16F91
EndChar

StartChar: u16F2E
Encoding: 44 93998 44
Width: 2799
VWidth: 4000
GlyphClass: 2
Flags: W
AnchorPoint: "BL" 100 -1200 basechar 0
AnchorPoint: "B" 880 -1200 basechar 0
AnchorPoint: "AL" 100 3300 basechar 0
AnchorPoint: "A" 880 3400 basechar 0
AnchorPoint: "F" 2799 0 exit 0
AnchorPoint: "R" 2799 850 exit 0
AnchorPoint: "C" 2799 3000 exit 0
AnchorPoint: "S" 2799 2455 exit 0
LayerCount: 2
Back
Fore
SplineSet
2599 832 m 1,0,1
 2535 -52 2535 -52 1594 -52 c 0,2,3
 604 -52 604 -52 604 754 c 0,4,5
 604 1001.98 604 1001.98 677.377 1178 c 1,6,-1
 609 1178 l 2,7,8
 200 1178 200 1178 200 1593 c 1,9,10
 217 1998 217 1998 594 1998 c 2,11,-1
 646.042 1998 l 1,12,13
 607.927 2123.41 607.927 2123.41 605.5 2288 c 0,14,15
 594 3068 594 3068 1592 3084 c 1,16,17
 2618 3098 2618 3098 2599 2238 c 1,18,-1
 2200 2238 l 1,19,20
 2199 2678 2199 2678 1595 2678 c 0,21,22
 1024 2678 1024 2678 1024 2286 c 1,23,24
 1027 1836 1027 1836 1862 1806 c 1,25,-1
 1857 1347 l 1,26,27
 1026 1347 1026 1347 1024 754 c 0,28,29
 1023 336 1023 336 1594 336 c 0,30,31
 2178 336 2178 336 2200 832 c 1,32,-1
 2599 832 l 1,0,1
1284.04 1596.97 m 1,33,34
 944.186 1589.06 944.186 1589.06 774.511 1768 c 1,35,-1
 597 1768 l 2,36,37
 431 1768 431 1768 431 1591 c 0,38,39
 431 1403 431 1403 595 1403 c 2,40,-1
 596 1403 l 1,41,-1
 831.443 1404.13 l 1,42,43
 997.281 1559.84 997.281 1559.84 1284.04 1596.97 c 1,33,34
EndSplineSet
MultipleSubs2: "ConsToneB-1" u16F2E u16F92
MultipleSubs2: "ConsToneR-1" u16F2E u16F8F
MultipleSubs2: "ConsToneT-1" u16F2E u16F90
MultipleSubs2: "ConsToneA-1" u16F2E u16F91
EndChar

StartChar: u16F2F
Encoding: 45 93999 45
Width: 2424
VWidth: 4000
GlyphClass: 2
Flags: W
AnchorPoint: "BL" 100 -1200 basechar 0
AnchorPoint: "B" 482 -1200 basechar 0
AnchorPoint: "AL" 100 3300 basechar 0
AnchorPoint: "A" 482 3400 basechar 0
AnchorPoint: "F" 2424 0 exit 0
AnchorPoint: "R" 1220 850 exit 0
AnchorPoint: "C" 2424 3000 exit 0
AnchorPoint: "S" 2424 2455 exit 0
LayerCount: 2
Back
Fore
SplineSet
2224 0 m 1,0,-1
 200 0 l 1,1,-1
 200 2932 l 1,2,-1
 2224 2932 l 1,3,-1
 2224 2528 l 1,4,-1
 616 2528 l 1,5,-1
 616 404 l 1,6,-1
 2224 404 l 1,7,-1
 2224 0 l 1,0,-1
EndSplineSet
MultipleSubs2: "ConsToneB-1" u16F2F u16F92
MultipleSubs2: "ConsToneR-1" u16F2F u16F8F
MultipleSubs2: "ConsToneT-1" u16F2F u16F90
MultipleSubs2: "ConsToneA-1" u16F2F u16F91
EndChar

StartChar: u16F30
Encoding: 46 94000 46
Width: 3007
VWidth: 4000
GlyphClass: 2
Flags: W
AnchorPoint: "SP" 500 2680 basechar 0
AnchorPoint: "BL" 100 -1200 basechar 0
AnchorPoint: "B" 773 -1200 basechar 0
AnchorPoint: "AL" 100 3300 basechar 0
AnchorPoint: "A" 773 3400 basechar 0
AnchorPoint: "F" 3007 0 exit 0
AnchorPoint: "R" 1757 850 exit 0
AnchorPoint: "C" 3007 3000 exit 0
AnchorPoint: "S" 3007 2455 exit 0
LayerCount: 2
Back
Fore
SplineSet
2807 0 m 1,0,-1
 783 0 l 1,1,-1
 783 1131 l 1,2,-1
 609 1131 l 2,3,4
 200 1131 200 1131 200 1546 c 1,5,6
 217 1951 217 1951 594 1951 c 2,7,-1
 783 1951 l 1,8,-1
 783 2932 l 1,9,-1
 2807 2932 l 1,10,-1
 2807 2528 l 1,11,-1
 1199 2528 l 1,12,-1
 1199 404 l 1,13,-1
 2807 404 l 1,14,-1
 2807 0 l 1,0,-1
783 1356.9 m 1,15,-1
 783 1721 l 1,16,-1
 597 1721 l 2,17,18
 431 1721 431 1721 431 1544 c 0,19,20
 431 1356 431 1356 595 1356 c 2,21,-1
 596 1356 l 1,22,-1
 783 1356.9 l 1,15,-1
EndSplineSet
Substitution2: "noWart-1" u16F30.nowart
Substitution2: "dotWart-1" u16F30.dot
Substitution2: "lpoStyle-1" u16F30.lpo
MultipleSubs2: "ConsToneB-1" u16F30 u16F92
MultipleSubs2: "ConsToneR-1" u16F30 u16F8F
MultipleSubs2: "ConsToneT-1" u16F30 u16F90
MultipleSubs2: "ConsToneA-1" u16F30 u16F91
EndChar

StartChar: u16F32
Encoding: 47 94002 47
Width: 2700
VWidth: 4000
GlyphClass: 2
Flags: W
AnchorPoint: "BL" 100 -1200 basechar 0
AnchorPoint: "B" 265 -1200 basechar 0
AnchorPoint: "AL" 100 3300 basechar 0
AnchorPoint: "A" 265 3400 basechar 0
AnchorPoint: "F" 2700 0 exit 0
AnchorPoint: "R" 1640 850 exit 0
AnchorPoint: "C" 2700 3000 exit 0
AnchorPoint: "S" 2700 2455 exit 0
LayerCount: 2
Back
Fore
SplineSet
2500 2524 m 1,0,-1
 1204 2524 l 1,1,-1
 1204 395 l 1,2,-1
 2500 395 l 1,3,-1
 2500 0 l 1,4,-1
 787 0 l 1,5,-1
 787 2524 l 1,6,-1
 200 2524 l 1,7,-1
 200 2932 l 1,8,-1
 2500 2932 l 1,9,-1
 2500 2524 l 1,0,-1
EndSplineSet
MultipleSubs2: "ConsToneB-1" u16F32 u16F92
MultipleSubs2: "ConsToneR-1" u16F32 u16F8F
MultipleSubs2: "ConsToneT-1" u16F32 u16F90
MultipleSubs2: "ConsToneA-1" u16F32 u16F91
EndChar

StartChar: u16F33
Encoding: 48 94003 48
Width: 2360
VWidth: 4000
GlyphClass: 2
Flags: W
AnchorPoint: "SP" 1500 2680 basechar 0
AnchorPoint: "BL" 100 -1200 basechar 0
AnchorPoint: "B" 475 -1200 basechar 0
AnchorPoint: "AL" 686 3300 basechar 0
AnchorPoint: "A" 1266 3400 basechar 0
AnchorPoint: "F" 2360 0 exit 0
AnchorPoint: "R" 2360 850 exit 0
AnchorPoint: "C" 2360 3000 exit 0
AnchorPoint: "S" 2360 2455 exit 0
LayerCount: 2
Back
Fore
SplineSet
2160 642 m 1,0,1
 2124 517 2124 517 2059.5 410.5 c 128,-1,2
 1995 304 1995 304 1904.5 218.5 c 128,-1,3
 1814 133 1814 133 1704.5 73 c 128,-1,4
 1595 13 1595 13 1469 -19.5 c 128,-1,5
 1343 -52 1343 -52 1208 -52 c 0,6,7
 998 -52 998 -52 821.5 7.5 c 128,-1,8
 645 67 645 67 514 180 c 128,-1,9
 383 293 383 293 302 457.5 c 128,-1,10
 221 622 221 622 200 832 c 1,11,-1
 611 832 l 1,12,13
 627 692 627 692 673.5 599 c 128,-1,14
 720 506 720 506 792 450.5 c 128,-1,15
 864 395 864 395 959 371.5 c 128,-1,16
 1054 348 1054 348 1167 348 c 0,17,18
 1291 348 1291 348 1401.5 385.5 c 128,-1,19
 1512 423 1512 423 1595 494 c 128,-1,20
 1678 565 1678 565 1726.5 668.5 c 128,-1,21
 1775 772 1775 772 1775 904 c 0,22,23
 1775 1320 1775 1320 1775 2946 c 5,24,-1
 2158 2946 l 1,25,-1
 2160 642 l 1,0,1
EndSplineSet
Substitution2: "yclStyle-1" u16F33.ycl
Substitution2: "hmdStyle-1" u16F33.hmd
Substitution2: "lpoStyle-1" u16F33.lpo
MultipleSubs2: "ConsToneB-1" u16F33 u16F92
MultipleSubs2: "ConsToneR-1" u16F33 u16F8F
MultipleSubs2: "ConsToneT-1" u16F33 u16F90
MultipleSubs2: "ConsToneA-1" u16F33 u16F91
EndChar

StartChar: u16F34
Encoding: 49 94004 49
Width: 2289
VWidth: 4000
GlyphClass: 2
Flags: W
AnchorPoint: "BL" 100 -1200 basechar 0
AnchorPoint: "B" 414 -1200 basechar 0
AnchorPoint: "AL" 100 3300 basechar 0
AnchorPoint: "A" 414 3400 basechar 0
AnchorPoint: "F" 2289 0 exit 0
AnchorPoint: "R" 2289 850 exit 0
AnchorPoint: "C" 2289 3000 exit 0
AnchorPoint: "S" 2289 2455 exit 0
LayerCount: 2
Back
Fore
SplineSet
2089 2928 m 1,0,1
 2082 2724 2082 2724 2069 2517 c 128,-1,2
 2056 2310 2056 2310 2031 2104.5 c 128,-1,3
 2006 1899 2006 1899 1964.5 1696.5 c 128,-1,4
 1923 1494 1923 1494 1859 1299 c 0,5,6
 1796 1107 1796 1107 1711 952 c 128,-1,7
 1626 797 1626 797 1520 671.5 c 128,-1,8
 1414 546 1414 546 1287 447.5 c 128,-1,9
 1160 349 1160 349 1013 270 c 128,-1,10
 866 191 866 191 699 128.5 c 128,-1,11
 532 66 532 66 346 13 c 1,12,-1
 201 390 l 1,13,14
 395 437 395 437 558.5 495.5 c 128,-1,15
 722 554 722 554 858 631 c 128,-1,16
 994 708 994 708 1103.5 807.5 c 128,-1,17
 1213 907 1213 907 1298 1035.5 c 128,-1,18
 1383 1164 1383 1164 1445 1325 c 128,-1,19
 1507 1486 1507 1486 1549 1687 c 0,20,21
 1592 1892 1592 1892 1621 2101.5 c 128,-1,22
 1650 2311 1650 2311 1668 2520 c 1,23,-1
 200 2520 l 1,24,-1
 200 2928 l 1,25,-1
 2089 2928 l 1,0,1
EndSplineSet
Substitution2: "hmdStyle-1" u16F34.hmd
MultipleSubs2: "ConsToneB-1" u16F34 u16F92
MultipleSubs2: "ConsToneR-1" u16F34 u16F8F
MultipleSubs2: "ConsToneT-1" u16F34 u16F90
MultipleSubs2: "ConsToneA-1" u16F34 u16F91
EndChar

StartChar: u16F35
Encoding: 50 94005 50
Width: 2415
VWidth: 4000
GlyphClass: 2
Flags: W
AnchorPoint: "BL" 100 -1200 basechar 0
AnchorPoint: "B" 477 -1200 basechar 0
AnchorPoint: "AL" 100 3300 basechar 0
AnchorPoint: "A" 477 3400 basechar 0
AnchorPoint: "F" 2415 0 exit 0
AnchorPoint: "R" 2415 850 exit 0
AnchorPoint: "C" 2415 3000 exit 0
AnchorPoint: "S" 2415 2455 exit 0
LayerCount: 2
Back
Fore
SplineSet
2215 0 m 1,0,-1
 1765 0 l 1,1,-1
 1284 1214 l 1,2,-1
 609 1214 l 1,3,-1
 609 0 l 1,4,-1
 200 0 l 1,5,-1
 200 2932 l 1,6,-1
 1389 2932 l 2,7,8
 1506 2932 1506 2932 1611 2900.5 c 128,-1,9
 1716 2869 1716 2869 1805.5 2812.5 c 128,-1,10
 1895 2756 1895 2756 1967 2677.5 c 128,-1,11
 2039 2599 2039 2599 2089.5 2505 c 128,-1,12
 2140 2411 2140 2411 2167.5 2304 c 128,-1,13
 2195 2197 2195 2197 2195 2084 c 0,14,15
 2195 1948 2195 1948 2157 1823.5 c 128,-1,16
 2119 1699 2119 1699 2048 1593 c 128,-1,17
 1977 1487 1977 1487 1875 1404 c 128,-1,18
 1773 1321 1773 1321 1644 1269 c 1,19,-1
 2215 0 l 1,0,-1
1787 2073 m 0,20,21
 1787 2179 1787 2179 1759 2263 c 128,-1,22
 1731 2347 1731 2347 1676 2405.5 c 128,-1,23
 1621 2464 1621 2464 1538.5 2494.5 c 128,-1,24
 1456 2525 1456 2525 1347 2525 c 2,25,-1
 609 2525 l 1,26,-1
 609 1608 l 1,27,-1
 1301 1608 l 2,28,29
 1421 1608 1421 1608 1512 1633.5 c 128,-1,30
 1603 1659 1603 1659 1664 1715 c 128,-1,31
 1725 1771 1725 1771 1756 1859 c 128,-1,32
 1787 1947 1787 1947 1787 2073 c 0,20,21
EndSplineSet
MultipleSubs2: "ConsToneB-1" u16F35 u16F92
MultipleSubs2: "ConsToneR-1" u16F35 u16F8F
MultipleSubs2: "ConsToneT-1" u16F35 u16F90
MultipleSubs2: "ConsToneA-1" u16F35 u16F91
EndChar

StartChar: u16F36
Encoding: 51 94006 51
Width: 2995
VWidth: 4000
GlyphClass: 2
Flags: W
AnchorPoint: "SP" 500 2680 basechar 0
AnchorPoint: "BL" 100 -1200 basechar 0
AnchorPoint: "B" 767 -1200 basechar 0
AnchorPoint: "AL" 100 3300 basechar 0
AnchorPoint: "A" 767 3400 basechar 0
AnchorPoint: "F" 2995 0 exit 0
AnchorPoint: "R" 2995 850 exit 0
AnchorPoint: "C" 2995 3000 exit 0
AnchorPoint: "S" 2995 2455 exit 0
LayerCount: 2
Back
Fore
SplineSet
2367 2073 m 0,0,1
 2367 2179 2367 2179 2339 2263 c 128,-1,2
 2311 2347 2311 2347 2256 2405.5 c 128,-1,3
 2201 2464 2201 2464 2118.5 2494.5 c 128,-1,4
 2036 2525 2036 2525 1927 2525 c 2,5,-1
 1189 2525 l 1,6,-1
 1189 1608 l 1,7,-1
 1881 1608 l 2,8,9
 2001 1608 2001 1608 2092 1633.5 c 128,-1,10
 2183 1659 2183 1659 2244 1715 c 128,-1,11
 2305 1771 2305 1771 2336 1859 c 128,-1,12
 2367 1947 2367 1947 2367 2073 c 0,0,1
2795 0 m 1,13,-1
 2345 0 l 1,14,-1
 1864 1214 l 1,15,-1
 1189 1214 l 1,16,-1
 1189 0 l 1,17,-1
 780 0 l 1,18,-1
 780 1013 l 1,19,-1
 609 1013 l 2,20,21
 200 1013 200 1013 200 1428 c 1,22,23
 217 1833 217 1833 594 1833 c 2,24,-1
 780 1833 l 1,25,-1
 780 2932 l 1,26,-1
 1969 2932 l 2,27,28
 2086 2932 2086 2932 2191 2900.5 c 128,-1,29
 2296 2869 2296 2869 2385.5 2812.5 c 128,-1,30
 2475 2756 2475 2756 2547 2677.5 c 128,-1,31
 2619 2599 2619 2599 2669.5 2505 c 128,-1,32
 2720 2411 2720 2411 2747.5 2304 c 128,-1,33
 2775 2197 2775 2197 2775 2084 c 0,34,35
 2775 1948 2775 1948 2737 1823.5 c 128,-1,36
 2699 1699 2699 1699 2628 1593 c 128,-1,37
 2557 1487 2557 1487 2455 1404 c 128,-1,38
 2353 1321 2353 1321 2224 1269 c 1,39,-1
 2795 0 l 1,13,-1
780 1238.88 m 1,40,-1
 780 1603 l 1,41,-1
 597 1603 l 2,42,43
 431 1603 431 1603 431 1426 c 0,44,45
 431 1238 431 1238 595 1238 c 2,46,-1
 596 1238 l 1,47,-1
 780 1238.88 l 1,40,-1
EndSplineSet
Substitution2: "noWart-1" u16F36.nowart
Substitution2: "dotWart-1" u16F36.dot
MultipleSubs2: "ConsToneB-1" u16F36 u16F92
MultipleSubs2: "ConsToneR-1" u16F36 u16F8F
MultipleSubs2: "ConsToneT-1" u16F36 u16F90
MultipleSubs2: "ConsToneA-1" u16F36 u16F91
EndChar

StartChar: u16F37
Encoding: 52 94007 52
Width: 2680
VWidth: 4000
GlyphClass: 2
Flags: W
AnchorPoint: "BL" 100 -1200 basechar 0
AnchorPoint: "B" 610 -1200 basechar 0
AnchorPoint: "AL" 100 3300 basechar 0
AnchorPoint: "A" 610 3400 basechar 0
AnchorPoint: "F" 1750 0 exit 0
AnchorPoint: "R" 2480 850 exit 0
AnchorPoint: "C" 2680 3000 exit 0
AnchorPoint: "S" 2680 2455 exit 0
LayerCount: 2
Back
Fore
SplineSet
2480 1865 m 1,0,-1
 1544 1865 l 1,1,-1
 1544 0 l 1,2,-1
 1120 0 l 1,3,-1
 1120 1865 l 1,4,-1
 200 1865 l 1,5,-1
 200 2260 l 1,6,-1
 1120 2260 l 1,7,-1
 1120 2932 l 1,8,-1
 1544 2932 l 1,9,-1
 1544 2260 l 1,10,-1
 2480 2260 l 1,11,-1
 2480 1865 l 1,0,-1
EndSplineSet
MultipleSubs2: "ConsToneB-1" u16F37 u16F92
MultipleSubs2: "ConsToneR-1" u16F37 u16F8F
MultipleSubs2: "ConsToneT-1" u16F37 u16F90
MultipleSubs2: "ConsToneA-1" u16F37 u16F91
EndChar

StartChar: u16F38
Encoding: 53 94008 53
Width: 2680
VWidth: 4000
GlyphClass: 2
Flags: W
AnchorPoint: "BL" 100 -1200 basechar 0
AnchorPoint: "B" 610 -1200 basechar 0
AnchorPoint: "AL" 100 3300 basechar 0
AnchorPoint: "A" 610 3400 basechar 0
AnchorPoint: "F" 1750 0 exit 0
AnchorPoint: "R" 2460 850 exit 0
AnchorPoint: "C" 2680 3000 exit 0
AnchorPoint: "S" 2680 2455 exit 0
LayerCount: 2
Back
Fore
SplineSet
2480 1865 m 1,0,-1
 1544 1865 l 1,1,-1
 1544 0 l 1,2,-1
 1120 0 l 1,3,-1
 1120 652 l 1,4,-1
 979 652 l 2,5,6
 570 652 570 652 570 1067 c 1,7,8
 587 1472 587 1472 964 1472 c 2,9,-1
 1120 1472 l 1,10,-1
 1120 1865 l 1,11,-1
 200 1865 l 1,12,-1
 200 2260 l 1,13,-1
 1120 2260 l 1,14,-1
 1120 2932 l 1,15,-1
 1544 2932 l 1,16,-1
 1544 2260 l 1,17,-1
 2480 2260 l 1,18,-1
 2480 1865 l 1,0,-1
1120 877.74 m 1,19,-1
 1120 1242 l 1,20,-1
 967 1242 l 2,21,22
 801 1242 801 1242 801 1065 c 0,23,24
 801 877 801 877 965 877 c 2,25,-1
 966 877 l 1,26,-1
 1120 877.74 l 1,19,-1
EndSplineSet
Substitution2: "noWart-1" u16F38.nowart
Substitution2: "dotWart-1" u16F38.dot
MultipleSubs2: "ConsToneB-1" u16F38 u16F92
MultipleSubs2: "ConsToneR-1" u16F38 u16F8F
MultipleSubs2: "ConsToneT-1" u16F38 u16F90
MultipleSubs2: "ConsToneA-1" u16F38 u16F91
EndChar

StartChar: u16F39
Encoding: 54 94009 54
Width: 2580
VWidth: 4000
GlyphClass: 2
Flags: W
AnchorPoint: "BL" 100 -1200 basechar 0
AnchorPoint: "B" 560 -1200 basechar 0
AnchorPoint: "AL" 100 3300 basechar 0
AnchorPoint: "A" 560 3400 basechar 0
AnchorPoint: "F" 2580 0 exit 0
AnchorPoint: "R" 2360 850 exit 0
AnchorPoint: "C" 2580 3000 exit 0
AnchorPoint: "S" 2580 2455 exit 0
LayerCount: 2
Back
Fore
SplineSet
2380 1845 m 1,0,-1
 1507 1845 l 1,1,-1
 1507 398 l 1,2,-1
 2180 398 l 1,3,-1
 2180 0 l 1,4,-1
 1080 0 l 1,5,-1
 1080 1845 l 1,6,-1
 200 1845 l 1,7,-1
 200 2248 l 1,8,-1
 1084 2248 l 1,9,-1
 1084 2932 l 1,10,-1
 1507 2932 l 1,11,-1
 1507 2248 l 1,12,-1
 2380 2248 l 1,13,-1
 2380 1845 l 1,0,-1
EndSplineSet
MultipleSubs2: "ConsToneB-1" u16F39 u16F92
MultipleSubs2: "ConsToneR-1" u16F39 u16F8F
MultipleSubs2: "ConsToneT-1" u16F39 u16F90
MultipleSubs2: "ConsToneA-1" u16F39 u16F91
EndChar

StartChar: u16F3A
Encoding: 55 94010 55
Width: 2511
VWidth: 4000
GlyphClass: 2
Flags: W
AnchorPoint: "BL" 100 -1200 basechar 0
AnchorPoint: "B" 525 -1200 basechar 0
AnchorPoint: "AL" 100 3300 basechar 0
AnchorPoint: "A" 525 3400 basechar 0
AnchorPoint: "F" 2511 0 exit 0
AnchorPoint: "R" 2511 850 exit 0
AnchorPoint: "C" 2511 3000 exit 0
AnchorPoint: "S" 2511 2455 exit 0
LayerCount: 2
Back
Fore
SplineSet
2311 811 m 0,0,1
 2311 700 2311 700 2280.5 595 c 128,-1,2
 2250 490 2250 490 2194.5 397 c 128,-1,3
 2139 304 2139 304 2061 227 c 128,-1,4
 1983 150 1983 150 1887 96 c 0,5,6
 1812 53 1812 53 1727 27 c 128,-1,7
 1642 1 1642 1 1553 -13.5 c 128,-1,8
 1464 -28 1464 -28 1374 -32.5 c 128,-1,9
 1284 -37 1284 -37 1199 -37 c 0,10,11
 1029 -37 1029 -37 890 -12 c 128,-1,12
 751 13 751 13 632 71 c 128,-1,13
 513 129 513 129 409 224 c 128,-1,14
 305 319 305 319 205 460 c 1,15,-1
 596 633 l 1,16,17
 643 555 643 555 712 503 c 128,-1,18
 781 451 781 451 862 419.5 c 128,-1,19
 943 388 943 388 1030.5 375 c 128,-1,20
 1118 362 1118 362 1203 362 c 0,21,22
 1276 362 1276 362 1355.5 370 c 128,-1,23
 1435 378 1435 378 1512 397 c 128,-1,24
 1589 416 1589 416 1658.5 449 c 128,-1,25
 1728 482 1728 482 1781 532 c 128,-1,26
 1834 582 1834 582 1865 650.5 c 128,-1,27
 1896 719 1896 719 1896 811 c 0,28,29
 1896 853 1896 853 1888 886.5 c 128,-1,30
 1880 920 1880 920 1864.5 949 c 128,-1,31
 1849 978 1849 978 1825.5 1004.5 c 128,-1,32
 1802 1031 1802 1031 1771 1060 c 0,33,34
 1743 1085 1743 1085 1699.5 1108.5 c 128,-1,35
 1656 1132 1656 1132 1603 1154 c 128,-1,36
 1550 1176 1550 1176 1492 1196 c 128,-1,37
 1434 1216 1434 1216 1378 1233.5 c 128,-1,38
 1322 1251 1322 1251 1272.5 1265.5 c 128,-1,39
 1223 1280 1223 1280 1187 1292 c 0,40,41
 1072 1329 1072 1329 954.5 1362 c 128,-1,42
 837 1395 837 1395 727.5 1435.5 c 128,-1,43
 618 1476 618 1476 522 1529 c 128,-1,44
 426 1582 426 1582 354.5 1660 c 128,-1,45
 283 1738 283 1738 241.5 1845.5 c 128,-1,46
 200 1953 200 1953 200 2102 c 0,47,48
 200 2258 200 2258 240 2383 c 128,-1,49
 280 2508 280 2508 351 2604 c 128,-1,50
 422 2700 422 2700 520.5 2769.5 c 128,-1,51
 619 2839 619 2839 736.5 2883 c 128,-1,52
 854 2927 854 2927 986 2948 c 128,-1,53
 1118 2969 1118 2969 1257 2969 c 0,54,55
 1404 2969 1404 2969 1526.5 2949 c 128,-1,56
 1649 2929 1649 2929 1757 2883.5 c 128,-1,57
 1865 2838 1865 2838 1964.5 2764 c 128,-1,58
 2064 2690 2064 2690 2167 2583 c 1,59,-1
 1823 2388 l 1,60,61
 1771 2441 1771 2441 1701.5 2477 c 128,-1,62
 1632 2513 1632 2513 1555 2534.5 c 128,-1,63
 1478 2556 1478 2556 1399 2565.5 c 128,-1,64
 1320 2575 1320 2575 1248 2575 c 0,65,66
 1184 2575 1184 2575 1112 2566 c 128,-1,67
 1040 2557 1040 2557 969 2537 c 128,-1,68
 898 2517 898 2517 833 2485 c 128,-1,69
 768 2453 768 2453 718 2406.5 c 128,-1,70
 668 2360 668 2360 638.5 2298 c 128,-1,71
 609 2236 609 2236 609 2156 c 0,72,73
 609 2080 609 2080 641.5 2019.5 c 128,-1,74
 674 1959 674 1959 730.5 1910 c 128,-1,75
 787 1861 787 1861 865 1822 c 128,-1,76
 943 1783 943 1783 1034 1750 c 128,-1,77
 1125 1717 1125 1717 1225.5 1688 c 128,-1,78
 1326 1659 1326 1659 1428 1630 c 128,-1,79
 1530 1601 1530 1601 1630 1569.5 c 128,-1,80
 1730 1538 1730 1538 1820.5 1501 c 128,-1,81
 1911 1464 1911 1464 1987.5 1418.5 c 128,-1,82
 2064 1373 2064 1373 2120 1316 c 0,83,84
 2222 1211 2222 1211 2266.5 1082.5 c 128,-1,85
 2311 954 2311 954 2311 811 c 0,0,1
EndSplineSet
MultipleSubs2: "ConsToneB-1" u16F3A u16F92
MultipleSubs2: "ConsToneR-1" u16F3A u16F8F
MultipleSubs2: "ConsToneT-1" u16F3A u16F90
MultipleSubs2: "ConsToneA-1" u16F3A u16F91
EndChar

StartChar: u16F3B
Encoding: 56 94011 56
Width: 2395
VWidth: 4000
GlyphClass: 2
Flags: W
AnchorPoint: "BL" 100 -1200 basechar 0
AnchorPoint: "B" 467 -1200 basechar 0
AnchorPoint: "AL" 100 3300 basechar 0
AnchorPoint: "A" 467 3400 basechar 0
AnchorPoint: "F" 2395 0 exit 0
AnchorPoint: "R" 2395 850 exit 0
AnchorPoint: "C" 2395 3000 exit 0
AnchorPoint: "S" 2395 2455 exit 0
LayerCount: 2
Back
Fore
SplineSet
2195 904 m 0,0,1
 2195 766 2195 766 2159.5 641.5 c 128,-1,2
 2124 517 2124 517 2059.5 410.5 c 128,-1,3
 1995 304 1995 304 1904.5 218.5 c 128,-1,4
 1814 133 1814 133 1704.5 73 c 128,-1,5
 1595 13 1595 13 1469 -19.5 c 128,-1,6
 1343 -52 1343 -52 1208 -52 c 4,7,8
 998 -52 998 -52 821.5 7.5 c 128,-1,9
 645 67 645 67 514 180 c 128,-1,10
 383 293 383 293 302 457.5 c 128,-1,11
 221 622 221 622 200 832 c 1,12,-1
 611 832 l 1,13,14
 627 692 627 692 673.5 599 c 128,-1,15
 720 506 720 506 792 450.5 c 128,-1,16
 864 395 864 395 959 371.5 c 128,-1,17
 1054 348 1054 348 1167 348 c 0,18,19
 1291 348 1291 348 1401.5 385.5 c 128,-1,20
 1512 423 1512 423 1595 494 c 128,-1,21
 1678 565 1678 565 1726.5 668.5 c 128,-1,22
 1775 772 1775 772 1775 904 c 0,23,24
 1775 1010 1775 1010 1743.5 1097 c 128,-1,25
 1712 1184 1712 1184 1655.5 1252.5 c 128,-1,26
 1599 1321 1599 1321 1521 1370 c 128,-1,27
 1443 1419 1443 1419 1350.5 1448.5 c 128,-1,28
 1258 1478 1258 1478 1154 1488.5 c 128,-1,29
 1050 1499 1050 1499 942 1489 c 1,30,-1
 946 1856 l 1,31,-1
 1682 2530 l 1,32,-1
 237 2530 l 1,33,-1
 233 2932 l 1,34,-1
 2195 2932 l 1,35,-1
 2195 2537 l 1,36,-1
 1392 1794 l 1,37,38
 1508 1788 1508 1788 1612.5 1749.5 c 128,-1,39
 1717 1711 1717 1711 1806 1647 c 128,-1,40
 1895 1583 1895 1583 1967 1498 c 128,-1,41
 2039 1413 2039 1413 2089.5 1316 c 128,-1,42
 2140 1219 2140 1219 2167.5 1114 c 128,-1,43
 2195 1009 2195 1009 2195 904 c 0,0,1
EndSplineSet
MultipleSubs2: "ConsToneB-1" u16F3B u16F92
MultipleSubs2: "ConsToneR-1" u16F3B u16F8F
MultipleSubs2: "ConsToneT-1" u16F3B u16F90
MultipleSubs2: "ConsToneA-1" u16F3B u16F91
EndChar

StartChar: u16F3C
Encoding: 57 94012 57
Width: 2422
VWidth: 4000
GlyphClass: 2
Flags: W
AnchorPoint: "BL" 100 -1200 basechar 0
AnchorPoint: "B" 481 -1200 basechar 0
AnchorPoint: "AL" 100 3300 basechar 0
AnchorPoint: "A" 481 3400 basechar 0
AnchorPoint: "F" 2422 0 exit 0
AnchorPoint: "R" 2422 850 exit 0
AnchorPoint: "C" 2422 3000 exit 0
AnchorPoint: "S" 2422 2455 exit 0
LayerCount: 2
Back
Fore
SplineSet
2195 904 m 0,0,1
 2195 766 2195 766 2159.5 641.5 c 128,-1,2
 2124 517 2124 517 2059.5 410.5 c 128,-1,3
 1995 304 1995 304 1904.5 218.5 c 128,-1,4
 1814 133 1814 133 1704.5 73 c 128,-1,5
 1595 13 1595 13 1469 -19.5 c 128,-1,6
 1343 -52 1343 -52 1208 -52 c 0,7,8
 998 -52 998 -52 821.5 7.5 c 128,-1,9
 645 67 645 67 514 180 c 128,-1,10
 383 293 383 293 302 457.5 c 128,-1,11
 221 622 221 622 200 832 c 1,12,-1
 611 832 l 1,13,14
 627 692 627 692 673.5 599 c 128,-1,15
 720 506 720 506 792 450.5 c 128,-1,16
 864 395 864 395 959 371.5 c 128,-1,17
 1054 348 1054 348 1167 348 c 0,18,19
 1291 348 1291 348 1401.5 385.5 c 128,-1,20
 1512 423 1512 423 1595 494 c 128,-1,21
 1678 565 1678 565 1726.5 668.5 c 128,-1,22
 1775 772 1775 772 1775 904 c 0,23,24
 1775 1010 1775 1010 1743.5 1097 c 128,-1,25
 1712 1184 1712 1184 1655.5 1252.5 c 128,-1,26
 1599 1321 1599 1321 1521 1370 c 128,-1,27
 1443 1419 1443 1419 1350.5 1448.5 c 128,-1,28
 1258 1478 1258 1478 1154 1488.5 c 128,-1,29
 1050 1499 1050 1499 942 1489 c 1,30,-1
 946 1856 l 1,31,-1
 1682 2530 l 1,32,-1
 237 2530 l 1,33,-1
 233 2932 l 1,34,-1
 2195 2932 l 1,35,-1
 2195 2537 l 1,36,-1
 1901.69 2265.61 l 1,37,38
 2222 2223.71 2222 2223.71 2222 1856 c 1,39,40
 2209.78 1546.7 2209.78 1546.7 1987.02 1473.62 c 1,41,42
 2046.17 1399.22 2046.17 1399.22 2089.5 1316 c 0,43,44
 2140 1219 2140 1219 2167.5 1114 c 128,-1,45
 2195 1009 2195 1009 2195 904 c 0,0,1
1663.5 2045.21 m 1,46,-1
 1392 1794 l 1,47,48
 1508 1788 1508 1788 1612.5 1749.5 c 0,49,50
 1687.59 1721.83 1687.59 1721.83 1754.68 1681 c 1,51,-1
 1826 1681 l 2,52,53
 1992 1681 1992 1681 1992 1858 c 0,54,55
 1992 2046 1992 2046 1828 2046 c 2,56,-1
 1827 2046 l 1,57,-1
 1663.5 2045.21 l 1,46,-1
EndSplineSet
Substitution2: "noWart-1" u16F3C.nowart
Substitution2: "dotWart-1" u16F3C.dot
MultipleSubs2: "ConsToneB-1" u16F3C u16F92
MultipleSubs2: "ConsToneR-1" u16F3C u16F8F
MultipleSubs2: "ConsToneT-1" u16F3C u16F90
MultipleSubs2: "ConsToneA-1" u16F3C u16F91
EndChar

StartChar: u16F3D
Encoding: 58 94013 58
Width: 2668
VWidth: 4000
GlyphClass: 2
Flags: W
AnchorPoint: "SP" 800 2680 basechar 0
AnchorPoint: "BL" 100 -1200 basechar 0
AnchorPoint: "B" 604 -1200 basechar 0
AnchorPoint: "AL" 100 3300 basechar 0
AnchorPoint: "A" 604 3395 basechar 0
AnchorPoint: "F" 2668 0 exit 0
AnchorPoint: "R" 2668 850 exit 0
AnchorPoint: "C" 1918 3000 exit 0
AnchorPoint: "S" 2178 2455 exit 0
LayerCount: 2
Back
Fore
SplineSet
2468 0 m 1,0,-1
 2045 0 l 1,1,-1
 1361 2340 l 1,2,-1
 1280 2340 l 1,3,-1
 624 0 l 1,4,-1
 200 0 l 1,5,-1
 1107 2932 l 1,6,-1
 1553 2932 l 1,7,-1
 2468 0 l 1,0,-1
EndSplineSet
MultipleSubs2: "ConsToneB-1" u16F3D u16F92
MultipleSubs2: "ConsToneR-1" u16F3D u16F8F
MultipleSubs2: "ConsToneT-1" u16F3D u16F90
MultipleSubs2: "ConsToneA-1" u16F3D u16F91
EndChar

StartChar: u16F3E
Encoding: 59 94014 59
Width: 2752
VWidth: 4000
GlyphClass: 2
Flags: W
AnchorPoint: "SP" 850 2680 basechar 0
AnchorPoint: "BL" 100 -1200 basechar 0
AnchorPoint: "B" 670 -1200 basechar 0
AnchorPoint: "AL" 100 3300 basechar 0
AnchorPoint: "A" 670 3400 basechar 0
AnchorPoint: "F" 2752 0 exit 0
AnchorPoint: "R" 2592 850 exit 0
AnchorPoint: "C" 2022 3000 exit 0
AnchorPoint: "S" 2202 2455 exit 0
LayerCount: 2
Back
Fore
SplineSet
2552 0 m 1,0,-1
 2129 0 l 1,1,-1
 1445 2340 l 1,2,-1
 1364 2340 l 1,3,-1
 708 0 l 1,4,-1
 284 0 l 1,5,-1
 620.258 1087 l 1,6,-1
 609 1087 l 2,7,8
 200 1087 200 1087 200 1502 c 1,9,10
 217 1907 217 1907 594 1907 c 2,11,-1
 873.921 1907 l 1,12,-1
 1191 2932 l 1,13,-1
 1637 2932 l 1,14,-1
 2552 0 l 1,0,-1
690.001 1312.45 m 1,15,-1
 802.771 1677 l 1,16,-1
 597 1677 l 2,17,18
 431 1677 431 1677 431 1500 c 0,19,20
 431 1312 431 1312 595 1312 c 2,21,-1
 596 1312 l 1,22,-1
 690.001 1312.45 l 1,15,-1
EndSplineSet
Substitution2: "noWart-1" u16F3E.nowart
Substitution2: "dotWart-1" u16F3E.dot
MultipleSubs2: "ConsToneB-1" u16F3E u16F92
MultipleSubs2: "ConsToneR-1" u16F3E u16F8F
MultipleSubs2: "ConsToneT-1" u16F3E u16F90
MultipleSubs2: "ConsToneA-1" u16F3E u16F91
EndChar

StartChar: u16F3F
Encoding: 60 94015 60
Width: 2670
VWidth: 4000
GlyphClass: 2
Flags: W
AnchorPoint: "BL" 100 -1200 basechar 0
AnchorPoint: "B" 605 -1200 basechar 0
AnchorPoint: "AL" 100 3300 basechar 0
AnchorPoint: "A" 605 3400 basechar 0
AnchorPoint: "F" 2670 0 exit 0
AnchorPoint: "R" 2670 850 exit 0
AnchorPoint: "C" 2670 3000 exit 0
AnchorPoint: "S" 2670 2455 exit 0
LayerCount: 2
Back
Fore
SplineSet
2125 1474 m 1,0,1
 1939.53 1466.58 1939.53 1466.58 1897.5 1344.5 c 0,2,3
 1878 1287.86 1878 1287.86 1878 1224.93 c 128,-1,4
 1878 1162 1878 1162 1882 1133.5 c 128,-1,5
 1886 1105 1886 1105 1894.5 1077.5 c 128,-1,6
 1903 1050 1903 1050 1916.5 1024.5 c 128,-1,7
 1930 999 1930 999 1948.5 978.5 c 0,8,9
 2003.1 918 2003.1 918 2083 918 c 2,10,-1
 2121 918 l 1,11,-1
 2122 818 l 1,12,-1
 2074 818 l 2,13,14
 1886.31 818 1886.31 818 1805 1016.5 c 0,15,16
 1771 1099.5 1771 1099.5 1771 1172.25 c 128,-1,17
 1771 1245 1771 1245 1779.5 1294 c 128,-1,18
 1788 1343 1788 1343 1806 1385 c 128,-1,19
 1824 1427 1824 1427 1851 1462 c 128,-1,20
 1878 1497 1878 1497 1914.5 1521.5 c 0,21,22
 1989.73 1572 1989.73 1572 2102 1572 c 1,23,-1
 2125 1571 l 1,24,-1
 2125 1474 l 1,0,1
2148.5 1271 m 128,-1,26
 2098 1271 2098 1271 2099 1220.5 c 128,-1,27
 2100 1170 2100 1170 2149.5 1170 c 128,-1,28
 2199 1170 2199 1170 2199 1220.5 c 128,-1,25
 2199 1271 2199 1271 2148.5 1271 c 128,-1,26
2022 428 m 0,29,30
 2304 710 2304 710 2304 1110 c 0,31,32
 2304 1507.9 2304 1507.9 2022 1791.5 c 128,-1,33
 1740.1 2075 1740.1 2075 1341 2075 c 0,34,35
 941 2075 941 2075 658 1792 c 128,-1,36
 375 1509 375 1509 375 1110 c 128,-1,37
 375 711 375 711 658 428 c 128,-1,38
 941 145 941 145 1341 145 c 0,39,40
 1739 145 1739 145 2022 428 c 0,29,30
2137.5 1929 m 0,41,42
 2470 1594.89 2470 1594.89 2470 1125.5 c 0,43,44
 2470 969 2470 969 2429.5 824 c 128,-1,45
 2389 679 2389 679 2315.5 552 c 128,-1,46
 2242 425 2242 425 2138.5 321 c 128,-1,47
 2035 217 2035 217 1909 143 c 0,48,49
 1643.38 -13 1643.38 -13 1336 -13 c 0,50,51
 864.894 -13 864.894 -13 532.5 321 c 128,-1,52
 200 655.106 200 655.106 200 1126 c 0,53,54
 200 1596 200 1596 533 1929 c 128,-1,55
 866 2262 866 2262 1336 2262 c 128,-1,56
 1806.1 2262 1806.1 2262 2137.5 1929 c 0,41,42
828 1450 m 1,57,-1
 790 1450 l 1,58,-1
 684 1090 l 1,59,-1
 933 1090 l 1,60,-1
 828 1450 l 1,57,-1
873 1624 m 1,61,-1
 1129 804 l 1,62,-1
 1017 804 l 1,63,-1
 961 993 l 1,64,-1
 657 993 l 1,65,-1
 657 996 l 1,66,-1
 600 804 l 1,67,-1
 493 804 l 1,68,-1
 747 1624 l 1,69,-1
 873 1624 l 1,61,-1
1275 1252 m 1,70,-1
 1469 1252 l 2,71,72
 1605 1252 1605 1252 1605 1380.5 c 128,-1,73
 1605 1509 1605 1509 1482 1509 c 2,74,-1
 1275 1509 l 1,75,-1
 1275 1252 l 1,70,-1
1565 1157 m 1,76,-1
 1725 802 l 1,77,-1
 1599 802 l 1,78,-1
 1464 1141 l 1,79,-1
 1275 1141 l 1,80,-1
 1275 802 l 1,81,-1
 1160 802 l 1,82,-1
 1160 1622 l 1,83,-1
 1493 1622 l 2,84,85
 1623.13 1622 1623.13 1622 1689.5 1503 c 0,86,87
 1719 1450.1 1719 1450.1 1719 1398.55 c 128,-1,88
 1719 1347 1719 1347 1708.5 1312 c 128,-1,89
 1698 1277 1698 1277 1678 1247.5 c 0,90,91
 1635.14 1184.27 1635.14 1184.27 1565 1157 c 1,76,-1
EndSplineSet
MultipleSubs2: "ConsToneB-1" u16F3F u16F92
MultipleSubs2: "ConsToneR-1" u16F3F u16F8F
MultipleSubs2: "ConsToneT-1" u16F3F u16F90
MultipleSubs2: "ConsToneA-1" u16F3F u16F91
EndChar

StartChar: u16F40
Encoding: 61 94016 61
Width: 2668
VWidth: 4000
GlyphClass: 2
Flags: W
AnchorPoint: "SP" 800 2680 basechar 0
AnchorPoint: "BL" 100 -1200 basechar 0
AnchorPoint: "B" 604 -1200 basechar 0
AnchorPoint: "AL" 100 3300 basechar 0
AnchorPoint: "A" 604 3400 basechar 0
AnchorPoint: "F" 2668 0 exit 0
AnchorPoint: "R" 2668 850 exit 0
AnchorPoint: "C" 1908 3000 exit 0
AnchorPoint: "S" 2078 2455 exit 0
LayerCount: 2
Back
Fore
SplineSet
2468 0 m 1,0,-1
 2069 0 l 1,1,-1
 1870 677 l 1,2,-1
 783 677 l 1,3,-1
 783 689 l 1,4,-1
 580 0 l 5,5,-1
 200 0 l 1,6,-1
 1107 2932 l 1,7,-1
 1557 2932 l 1,8,-1
 2468 0 l 1,0,-1
1260 2308 m 1,9,-1
 881 1022 l 1,10,-1
 1769 1022 l 1,11,-1
 1393 2308 l 1,12,-1
 1260 2308 l 1,9,-1
EndSplineSet
MultipleSubs2: "ConsToneB-1" u16F40 u16F92
MultipleSubs2: "ConsToneR-1" u16F40 u16F8F
MultipleSubs2: "ConsToneT-1" u16F40 u16F90
MultipleSubs2: "ConsToneA-1" u16F40 u16F91
EndChar

StartChar: u16F41
Encoding: 62 94017 62
Width: 2687
VWidth: 4000
GlyphClass: 2
Flags: W
AnchorPoint: "SP" 850 2680 basechar 0
AnchorPoint: "BL" 100 -1200 basechar 0
AnchorPoint: "B" 613 -1200 basechar 0
AnchorPoint: "AL" 100 3300 basechar 0
AnchorPoint: "A" 613 3400 basechar 0
AnchorPoint: "F" 2687 0 exit 0
AnchorPoint: "R" 2687 850 exit 0
AnchorPoint: "C" 1957 3000 exit 0
AnchorPoint: "S" 2197 2455 exit 0
LayerCount: 2
Back
Fore
SplineSet
1279 2308 m 1,0,-1
 900 1022 l 1,1,-1
 1788 1022 l 1,2,-1
 1412 2308 l 1,3,-1
 1279 2308 l 1,0,-1
2487 0 m 1,4,-1
 2088 0 l 1,5,-1
 1889 677 l 1,6,-1
 802 677 l 1,7,-1
 802 689 l 1,8,-1
 599 0 l 1,9,-1
 219 0 l 1,10,-1
 574.369 1148.78 l 1,11,12
 200 1165.96 200 1165.96 200 1563 c 1,13,14
 217 1968 217 1968 594 1968 c 2,15,-1
 827.791 1968 l 1,16,-1
 1126 2932 l 1,17,-1
 1576 2932 l 1,18,-1
 2487 0 l 1,4,-1
643.835 1373.34 m 1,19,-1
 756.642 1738 l 1,20,-1
 597 1738 l 2,21,22
 431 1738 431 1738 431 1561 c 0,23,24
 431 1373 431 1373 595 1373 c 2,25,-1
 596 1373 l 1,26,-1
 643.835 1373.34 l 1,19,-1
EndSplineSet
Substitution2: "noWart-1" u16F41.nowart
Substitution2: "dotWart-1" u16F41.dot
MultipleSubs2: "ConsToneB-1" u16F41 u16F92
MultipleSubs2: "ConsToneR-1" u16F41 u16F8F
MultipleSubs2: "ConsToneT-1" u16F41 u16F90
MultipleSubs2: "ConsToneA-1" u16F41 u16F91
EndChar

StartChar: u16F42
Encoding: 63 94018 63
Width: 2364
VWidth: 4000
GlyphClass: 2
Flags: W
AnchorPoint: "BL" 100 -1200 basechar 0
AnchorPoint: "B" 452 -1200 basechar 0
AnchorPoint: "AL" 100 3300 basechar 0
AnchorPoint: "A" 452 3400 basechar 0
AnchorPoint: "F" 2364 0 exit 0
AnchorPoint: "R" 2364 850 exit 0
AnchorPoint: "C" 2364 3000 exit 0
AnchorPoint: "S" 2364 2455 exit 0
LayerCount: 2
Back
Fore
SplineSet
2164 1035 m 2,0,1
 2164 785 2164 785 2103.5 586.5 c 128,-1,2
 2043 388 2043 388 1918.5 249.5 c 128,-1,3
 1794 111 1794 111 1603.5 37.5 c 128,-1,4
 1413 -36 1413 -36 1154 -36 c 0,5,6
 1009 -36 1009 -36 882 2.5 c 128,-1,7
 755 41 755 41 649 110 c 128,-1,8
 543 179 543 179 459.5 275 c 128,-1,9
 376 371 376 371 318.5 486.5 c 128,-1,10
 261 602 261 602 230.5 732.5 c 128,-1,11
 200 863 200 863 200 1001 c 2,12,-1
 200 2932 l 1,13,-1
 611 2932 l 1,14,-1
 611 1039 l 2,15,16
 611 911 611 911 641.5 792.5 c 128,-1,17
 672 674 672 674 737 582.5 c 128,-1,18
 802 491 802 491 904.5 436 c 128,-1,19
 1007 381 1007 381 1150 381 c 0,20,21
 1306 381 1306 381 1419.5 422.5 c 128,-1,22
 1533 464 1533 464 1606 544.5 c 128,-1,23
 1679 625 1679 625 1714 742 c 128,-1,24
 1749 859 1749 859 1749 1010 c 2,25,-1
 1749 2932 l 1,26,-1
 2164 2932 l 1,27,-1
 2164 1035 l 2,0,1
EndSplineSet
MultipleSubs2: "ConsToneB-1" u16F42 u16F92
MultipleSubs2: "ConsToneR-1" u16F42 u16F8F
MultipleSubs2: "ConsToneT-1" u16F42 u16F90
MultipleSubs2: "ConsToneA-1" u16F42 u16F91
EndChar

StartChar: u16F43
Encoding: 64 94019 64
Width: 2670
VWidth: 4000
GlyphClass: 2
Flags: W
AnchorPoint: "BL" 100 -1200 basechar 0
AnchorPoint: "B" 605 -1200 basechar 0
AnchorPoint: "AL" 100 3300 basechar 0
AnchorPoint: "A" 605 3400 basechar 0
AnchorPoint: "F" 1750 0 exit 0
AnchorPoint: "R" 2080 850 exit 0
AnchorPoint: "C" 2670 3000 exit 0
AnchorPoint: "S" 2670 2455 exit 0
LayerCount: 2
Back
Fore
SplineSet
2470 2932 m 1,0,-1
 1564 1095 l 1,1,-1
 1568 0 l 1,2,-1
 1150 0 l 1,3,-1
 1150 1089 l 1,4,-1
 200 2932 l 1,5,-1
 662 2932 l 1,6,-1
 1363 1495 l 1,7,-1
 2013 2932 l 1,8,-1
 2470 2932 l 1,0,-1
EndSplineSet
MultipleSubs2: "ConsToneB-1" u16F43 u16F92
MultipleSubs2: "ConsToneR-1" u16F43 u16F8F
MultipleSubs2: "ConsToneT-1" u16F43 u16F90
MultipleSubs2: "ConsToneA-1" u16F43 u16F91
EndChar

StartChar: u16F44
Encoding: 65 94020 65
Width: 2670
VWidth: 4000
GlyphClass: 2
Flags: W
AnchorPoint: "BL" 100 -1200 basechar 0
AnchorPoint: "B" 605 -1200 basechar 0
AnchorPoint: "AL" 100 3300 basechar 0
AnchorPoint: "A" 605 3400 basechar 0
AnchorPoint: "F" 1760 0 exit 0
AnchorPoint: "R" 1990 850 exit 0
AnchorPoint: "C" 2670 3000 exit 0
AnchorPoint: "S" 2670 2455 exit 0
LayerCount: 2
Back
Fore
SplineSet
2470 2932 m 1,0,-1
 1564 1095 l 1,1,-1
 1568 0 l 1,2,-1
 1150 0 l 1,3,-1
 1150 1089 l 1,4,-1
 1139 1110 l 1,5,-1
 741 1110 l 2,6,7
 332 1110 332 1110 332 1525 c 1,8,9
 349 1925 349 1925 717 1930 c 1,10,-1
 200 2932 l 1,11,-1
 662 2932 l 1,12,-1
 1363 1495 l 1,13,-1
 2013 2932 l 1,14,-1
 2470 2932 l 1,0,-1
1022 1336 m 1,15,-1
 835 1700 l 1,16,-1
 729 1700 l 2,17,18
 563 1700 563 1700 563 1523 c 0,19,20
 563 1335 563 1335 727 1335 c 2,21,-1
 728 1335 l 1,22,-1
 1022 1336 l 1,15,-1
EndSplineSet
Substitution2: "noWart-1" u16F44.nowart
Substitution2: "dotWart-1" u16F44.dot
MultipleSubs2: "ConsToneB-1" u16F44 u16F92
MultipleSubs2: "ConsToneR-1" u16F44 u16F8F
MultipleSubs2: "ConsToneT-1" u16F44 u16F90
MultipleSubs2: "ConsToneA-1" u16F44 u16F91
EndChar

StartChar: u16F46
Encoding: 66 94022 66
Width: 2430
VWidth: 4000
GlyphClass: 2
Flags: W
LayerCount: 2
Back
Fore
SplineSet
2350 1126 m 0,0,1
 2350 969 2350 969 2309.5 824 c 128,-1,2
 2269 679 2269 679 2195.5 552 c 128,-1,3
 2122 425 2122 425 2018.5 321 c 128,-1,4
 1915 217 1915 217 1789 143 c 128,-1,5
 1663 69 1663 69 1518 28 c 128,-1,6
 1373 -13 1373 -13 1216 -13 c 256,7,8
 1059 -13 1059 -13 914 28 c 128,-1,9
 769 69 769 69 642.5 143 c 128,-1,10
 516 217 516 217 412.5 321 c 128,-1,11
 309 425 309 425 235 551.5 c 128,-1,12
 161 678 161 678 120.5 823.5 c 128,-1,13
 80 969 80 969 80 1126 c 256,14,15
 80 1283 80 1283 120.5 1428 c 128,-1,16
 161 1573 161 1573 235 1699 c 128,-1,17
 309 1825 309 1825 413 1929 c 128,-1,18
 517 2033 517 2033 643 2107 c 128,-1,19
 769 2181 769 2181 914 2221.5 c 128,-1,20
 1059 2262 1059 2262 1216 2262 c 0,21,22
 1372 2262 1372 2262 1517 2221.5 c 128,-1,23
 1662 2181 1662 2181 1788 2107 c 128,-1,24
 1914 2033 1914 2033 2017.5 1929 c 128,-1,25
 2121 1825 2121 1825 2195 1699 c 128,-1,26
 2269 1573 2269 1573 2309.5 1427.5 c 128,-1,27
 2350 1282 2350 1282 2350 1126 c 0,0,1
2184 1110 m 256,28,29
 2184 1243 2184 1243 2149.5 1366 c 128,-1,30
 2115 1489 2115 1489 2052.5 1596 c 128,-1,31
 1990 1703 1990 1703 1902 1791.5 c 128,-1,32
 1814 1880 1814 1880 1707 1943 c 128,-1,33
 1600 2006 1600 2006 1477 2040.5 c 128,-1,34
 1354 2075 1354 2075 1221 2075 c 256,35,36
 1088 2075 1088 2075 964.5 2040.5 c 128,-1,37
 841 2006 841 2006 733.5 1943 c 128,-1,38
 626 1880 626 1880 538 1792 c 128,-1,39
 450 1704 450 1704 387 1596.5 c 128,-1,40
 324 1489 324 1489 289.5 1366 c 128,-1,41
 255 1243 255 1243 255 1110 c 256,42,43
 255 977 255 977 289.5 853.5 c 128,-1,44
 324 730 324 730 387 623 c 128,-1,45
 450 516 450 516 538 428 c 128,-1,46
 626 340 626 340 733.5 277 c 128,-1,47
 841 214 841 214 964.5 179.5 c 128,-1,48
 1088 145 1088 145 1221 145 c 256,49,50
 1354 145 1354 145 1477 179.5 c 128,-1,51
 1600 214 1600 214 1707 277 c 128,-1,52
 1814 340 1814 340 1902 428 c 128,-1,53
 1990 516 1990 516 2052.5 623.5 c 128,-1,54
 2115 731 2115 731 2149.5 854 c 128,-1,55
 2184 977 2184 977 2184 1110 c 256,28,29
1884 1540 m 0,56,57
 1894 1526 1894 1526 1891.5 1507 c 128,-1,58
 1889 1488 1889 1488 1882 1471 c 0,59,60
 1874 1451 1874 1451 1861 1429 c 1,61,62
 1777 1341 1777 1341 1646 1208 c 0,63,64
 1534 1095 1534 1095 1357.5 918.5 c 128,-1,65
 1181 742 1181 742 931 496 c 1,66,-1
 568 1104 l 1,67,-1
 730 1190 l 1,68,-1
 973 747 l 1,69,-1
 1755 1528 l 1,70,71
 1783 1542 1783 1542 1809 1549 c 0,72,73
 1831 1555 1831 1555 1852 1555 c 128,-1,74
 1873 1555 1873 1555 1884 1540 c 0,56,57
EndSplineSet
Validated: 1
EndChar

StartChar: u16F45
Encoding: 67 94021 67
Width: 2430
VWidth: 4000
GlyphClass: 2
Flags: W
LayerCount: 2
Back
Fore
SplineSet
2350 1126 m 0,0,1
 2350 969 2350 969 2309.5 824 c 128,-1,2
 2269 679 2269 679 2195.5 552 c 128,-1,3
 2122 425 2122 425 2018.5 321 c 128,-1,4
 1915 217 1915 217 1789 143 c 128,-1,5
 1663 69 1663 69 1518 28 c 128,-1,6
 1373 -13 1373 -13 1216 -13 c 256,7,8
 1059 -13 1059 -13 914 28 c 128,-1,9
 769 69 769 69 642.5 143 c 128,-1,10
 516 217 516 217 412.5 321 c 128,-1,11
 309 425 309 425 235 551.5 c 128,-1,12
 161 678 161 678 120.5 823.5 c 128,-1,13
 80 969 80 969 80 1126 c 256,14,15
 80 1283 80 1283 120.5 1428 c 128,-1,16
 161 1573 161 1573 235 1699 c 128,-1,17
 309 1825 309 1825 413 1929 c 128,-1,18
 517 2033 517 2033 643 2107 c 128,-1,19
 769 2181 769 2181 914 2221.5 c 128,-1,20
 1059 2262 1059 2262 1216 2262 c 0,21,22
 1372 2262 1372 2262 1517 2221.5 c 128,-1,23
 1662 2181 1662 2181 1788 2107 c 128,-1,24
 1914 2033 1914 2033 2017.5 1929 c 128,-1,25
 2121 1825 2121 1825 2195 1699 c 128,-1,26
 2269 1573 2269 1573 2309.5 1427.5 c 128,-1,27
 2350 1282 2350 1282 2350 1126 c 0,0,1
2184 1110 m 256,28,29
 2184 1243 2184 1243 2149.5 1366 c 128,-1,30
 2115 1489 2115 1489 2052.5 1596 c 128,-1,31
 1990 1703 1990 1703 1902 1791.5 c 128,-1,32
 1814 1880 1814 1880 1707 1943 c 128,-1,33
 1600 2006 1600 2006 1477 2040.5 c 128,-1,34
 1354 2075 1354 2075 1221 2075 c 256,35,36
 1088 2075 1088 2075 964.5 2040.5 c 128,-1,37
 841 2006 841 2006 733.5 1943 c 128,-1,38
 626 1880 626 1880 538 1792 c 128,-1,39
 450 1704 450 1704 387 1596.5 c 128,-1,40
 324 1489 324 1489 289.5 1366 c 128,-1,41
 255 1243 255 1243 255 1110 c 256,42,43
 255 977 255 977 289.5 853.5 c 128,-1,44
 324 730 324 730 387 623 c 128,-1,45
 450 516 450 516 538 428 c 128,-1,46
 626 340 626 340 733.5 277 c 128,-1,47
 841 214 841 214 964.5 179.5 c 128,-1,48
 1088 145 1088 145 1221 145 c 256,49,50
 1354 145 1354 145 1477 179.5 c 128,-1,51
 1600 214 1600 214 1707 277 c 128,-1,52
 1814 340 1814 340 1902 428 c 128,-1,53
 1990 516 1990 516 2052.5 623.5 c 128,-1,54
 2115 731 2115 731 2149.5 854 c 128,-1,55
 2184 977 2184 977 2184 1110 c 256,28,29
1884 1540 m 0,56,57
 1894 1526 1894 1526 1891.5 1507 c 128,-1,58
 1889 1488 1889 1488 1882 1471 c 0,59,60
 1874 1451 1874 1451 1861 1429 c 1,61,62
 1777 1341 1777 1341 1646 1208 c 0,63,64
 1534 1095 1534 1095 1357.5 918.5 c 128,-1,65
 1181 742 1181 742 931 496 c 1,66,-1
 568 1104 l 1,67,-1
 730 1190 l 1,68,-1
 973 747 l 1,69,-1
 1755 1528 l 1,70,71
 1783 1542 1783 1542 1809 1549 c 0,72,73
 1831 1555 1831 1555 1852 1555 c 128,-1,74
 1873 1555 1873 1555 1884 1540 c 0,56,57
EndSplineSet
Validated: 1
EndChar

StartChar: u16F47
Encoding: 68 94023 68
Width: 2430
VWidth: 4000
GlyphClass: 2
Flags: W
LayerCount: 2
Back
Fore
SplineSet
2350 1126 m 0,0,1
 2350 969 2350 969 2309.5 824 c 128,-1,2
 2269 679 2269 679 2195.5 552 c 128,-1,3
 2122 425 2122 425 2018.5 321 c 128,-1,4
 1915 217 1915 217 1789 143 c 128,-1,5
 1663 69 1663 69 1518 28 c 128,-1,6
 1373 -13 1373 -13 1216 -13 c 256,7,8
 1059 -13 1059 -13 914 28 c 128,-1,9
 769 69 769 69 642.5 143 c 128,-1,10
 516 217 516 217 412.5 321 c 128,-1,11
 309 425 309 425 235 551.5 c 128,-1,12
 161 678 161 678 120.5 823.5 c 128,-1,13
 80 969 80 969 80 1126 c 256,14,15
 80 1283 80 1283 120.5 1428 c 128,-1,16
 161 1573 161 1573 235 1699 c 128,-1,17
 309 1825 309 1825 413 1929 c 128,-1,18
 517 2033 517 2033 643 2107 c 128,-1,19
 769 2181 769 2181 914 2221.5 c 128,-1,20
 1059 2262 1059 2262 1216 2262 c 0,21,22
 1372 2262 1372 2262 1517 2221.5 c 128,-1,23
 1662 2181 1662 2181 1788 2107 c 128,-1,24
 1914 2033 1914 2033 2017.5 1929 c 128,-1,25
 2121 1825 2121 1825 2195 1699 c 128,-1,26
 2269 1573 2269 1573 2309.5 1427.5 c 128,-1,27
 2350 1282 2350 1282 2350 1126 c 0,0,1
2184 1110 m 256,28,29
 2184 1243 2184 1243 2149.5 1366 c 128,-1,30
 2115 1489 2115 1489 2052.5 1596 c 128,-1,31
 1990 1703 1990 1703 1902 1791.5 c 128,-1,32
 1814 1880 1814 1880 1707 1943 c 128,-1,33
 1600 2006 1600 2006 1477 2040.5 c 128,-1,34
 1354 2075 1354 2075 1221 2075 c 256,35,36
 1088 2075 1088 2075 964.5 2040.5 c 128,-1,37
 841 2006 841 2006 733.5 1943 c 128,-1,38
 626 1880 626 1880 538 1792 c 128,-1,39
 450 1704 450 1704 387 1596.5 c 128,-1,40
 324 1489 324 1489 289.5 1366 c 128,-1,41
 255 1243 255 1243 255 1110 c 256,42,43
 255 977 255 977 289.5 853.5 c 128,-1,44
 324 730 324 730 387 623 c 128,-1,45
 450 516 450 516 538 428 c 128,-1,46
 626 340 626 340 733.5 277 c 128,-1,47
 841 214 841 214 964.5 179.5 c 128,-1,48
 1088 145 1088 145 1221 145 c 256,49,50
 1354 145 1354 145 1477 179.5 c 128,-1,51
 1600 214 1600 214 1707 277 c 128,-1,52
 1814 340 1814 340 1902 428 c 128,-1,53
 1990 516 1990 516 2052.5 623.5 c 128,-1,54
 2115 731 2115 731 2149.5 854 c 128,-1,55
 2184 977 2184 977 2184 1110 c 256,28,29
1884 1540 m 0,56,57
 1894 1526 1894 1526 1891.5 1507 c 128,-1,58
 1889 1488 1889 1488 1882 1471 c 0,59,60
 1874 1451 1874 1451 1861 1429 c 1,61,62
 1777 1341 1777 1341 1646 1208 c 0,63,64
 1534 1095 1534 1095 1357.5 918.5 c 128,-1,65
 1181 742 1181 742 931 496 c 1,66,-1
 568 1104 l 1,67,-1
 730 1190 l 1,68,-1
 973 747 l 1,69,-1
 1755 1528 l 1,70,71
 1783 1542 1783 1542 1809 1549 c 0,72,73
 1831 1555 1831 1555 1852 1555 c 128,-1,74
 1873 1555 1873 1555 1884 1540 c 0,56,57
EndSplineSet
Validated: 1
EndChar

StartChar: u16F48
Encoding: 69 94024 69
Width: 2430
VWidth: 4000
GlyphClass: 2
Flags: W
LayerCount: 2
Back
Fore
SplineSet
2350 1126 m 0,0,1
 2350 969 2350 969 2309.5 824 c 128,-1,2
 2269 679 2269 679 2195.5 552 c 128,-1,3
 2122 425 2122 425 2018.5 321 c 128,-1,4
 1915 217 1915 217 1789 143 c 128,-1,5
 1663 69 1663 69 1518 28 c 128,-1,6
 1373 -13 1373 -13 1216 -13 c 256,7,8
 1059 -13 1059 -13 914 28 c 128,-1,9
 769 69 769 69 642.5 143 c 128,-1,10
 516 217 516 217 412.5 321 c 128,-1,11
 309 425 309 425 235 551.5 c 128,-1,12
 161 678 161 678 120.5 823.5 c 128,-1,13
 80 969 80 969 80 1126 c 256,14,15
 80 1283 80 1283 120.5 1428 c 128,-1,16
 161 1573 161 1573 235 1699 c 128,-1,17
 309 1825 309 1825 413 1929 c 128,-1,18
 517 2033 517 2033 643 2107 c 128,-1,19
 769 2181 769 2181 914 2221.5 c 128,-1,20
 1059 2262 1059 2262 1216 2262 c 0,21,22
 1372 2262 1372 2262 1517 2221.5 c 128,-1,23
 1662 2181 1662 2181 1788 2107 c 128,-1,24
 1914 2033 1914 2033 2017.5 1929 c 128,-1,25
 2121 1825 2121 1825 2195 1699 c 128,-1,26
 2269 1573 2269 1573 2309.5 1427.5 c 128,-1,27
 2350 1282 2350 1282 2350 1126 c 0,0,1
2184 1110 m 256,28,29
 2184 1243 2184 1243 2149.5 1366 c 128,-1,30
 2115 1489 2115 1489 2052.5 1596 c 128,-1,31
 1990 1703 1990 1703 1902 1791.5 c 128,-1,32
 1814 1880 1814 1880 1707 1943 c 128,-1,33
 1600 2006 1600 2006 1477 2040.5 c 128,-1,34
 1354 2075 1354 2075 1221 2075 c 256,35,36
 1088 2075 1088 2075 964.5 2040.5 c 128,-1,37
 841 2006 841 2006 733.5 1943 c 128,-1,38
 626 1880 626 1880 538 1792 c 128,-1,39
 450 1704 450 1704 387 1596.5 c 128,-1,40
 324 1489 324 1489 289.5 1366 c 128,-1,41
 255 1243 255 1243 255 1110 c 256,42,43
 255 977 255 977 289.5 853.5 c 128,-1,44
 324 730 324 730 387 623 c 128,-1,45
 450 516 450 516 538 428 c 128,-1,46
 626 340 626 340 733.5 277 c 128,-1,47
 841 214 841 214 964.5 179.5 c 128,-1,48
 1088 145 1088 145 1221 145 c 256,49,50
 1354 145 1354 145 1477 179.5 c 128,-1,51
 1600 214 1600 214 1707 277 c 128,-1,52
 1814 340 1814 340 1902 428 c 128,-1,53
 1990 516 1990 516 2052.5 623.5 c 128,-1,54
 2115 731 2115 731 2149.5 854 c 128,-1,55
 2184 977 2184 977 2184 1110 c 256,28,29
1884 1540 m 0,56,57
 1894 1526 1894 1526 1891.5 1507 c 128,-1,58
 1889 1488 1889 1488 1882 1471 c 0,59,60
 1874 1451 1874 1451 1861 1429 c 1,61,62
 1777 1341 1777 1341 1646 1208 c 0,63,64
 1534 1095 1534 1095 1357.5 918.5 c 128,-1,65
 1181 742 1181 742 931 496 c 1,66,-1
 568 1104 l 1,67,-1
 730 1190 l 1,68,-1
 973 747 l 1,69,-1
 1755 1528 l 1,70,71
 1783 1542 1783 1542 1809 1549 c 0,72,73
 1831 1555 1831 1555 1852 1555 c 128,-1,74
 1873 1555 1873 1555 1884 1540 c 0,56,57
EndSplineSet
Validated: 1
EndChar

StartChar: u16F49
Encoding: 70 94025 70
Width: 2430
VWidth: 4000
GlyphClass: 2
Flags: W
LayerCount: 2
Back
Fore
SplineSet
2350 1126 m 0,0,1
 2350 969 2350 969 2309.5 824 c 128,-1,2
 2269 679 2269 679 2195.5 552 c 128,-1,3
 2122 425 2122 425 2018.5 321 c 128,-1,4
 1915 217 1915 217 1789 143 c 128,-1,5
 1663 69 1663 69 1518 28 c 128,-1,6
 1373 -13 1373 -13 1216 -13 c 256,7,8
 1059 -13 1059 -13 914 28 c 128,-1,9
 769 69 769 69 642.5 143 c 128,-1,10
 516 217 516 217 412.5 321 c 128,-1,11
 309 425 309 425 235 551.5 c 128,-1,12
 161 678 161 678 120.5 823.5 c 128,-1,13
 80 969 80 969 80 1126 c 256,14,15
 80 1283 80 1283 120.5 1428 c 128,-1,16
 161 1573 161 1573 235 1699 c 128,-1,17
 309 1825 309 1825 413 1929 c 128,-1,18
 517 2033 517 2033 643 2107 c 128,-1,19
 769 2181 769 2181 914 2221.5 c 128,-1,20
 1059 2262 1059 2262 1216 2262 c 0,21,22
 1372 2262 1372 2262 1517 2221.5 c 128,-1,23
 1662 2181 1662 2181 1788 2107 c 128,-1,24
 1914 2033 1914 2033 2017.5 1929 c 128,-1,25
 2121 1825 2121 1825 2195 1699 c 128,-1,26
 2269 1573 2269 1573 2309.5 1427.5 c 128,-1,27
 2350 1282 2350 1282 2350 1126 c 0,0,1
2184 1110 m 256,28,29
 2184 1243 2184 1243 2149.5 1366 c 128,-1,30
 2115 1489 2115 1489 2052.5 1596 c 128,-1,31
 1990 1703 1990 1703 1902 1791.5 c 128,-1,32
 1814 1880 1814 1880 1707 1943 c 128,-1,33
 1600 2006 1600 2006 1477 2040.5 c 128,-1,34
 1354 2075 1354 2075 1221 2075 c 256,35,36
 1088 2075 1088 2075 964.5 2040.5 c 128,-1,37
 841 2006 841 2006 733.5 1943 c 128,-1,38
 626 1880 626 1880 538 1792 c 128,-1,39
 450 1704 450 1704 387 1596.5 c 128,-1,40
 324 1489 324 1489 289.5 1366 c 128,-1,41
 255 1243 255 1243 255 1110 c 256,42,43
 255 977 255 977 289.5 853.5 c 128,-1,44
 324 730 324 730 387 623 c 128,-1,45
 450 516 450 516 538 428 c 128,-1,46
 626 340 626 340 733.5 277 c 128,-1,47
 841 214 841 214 964.5 179.5 c 128,-1,48
 1088 145 1088 145 1221 145 c 256,49,50
 1354 145 1354 145 1477 179.5 c 128,-1,51
 1600 214 1600 214 1707 277 c 128,-1,52
 1814 340 1814 340 1902 428 c 128,-1,53
 1990 516 1990 516 2052.5 623.5 c 128,-1,54
 2115 731 2115 731 2149.5 854 c 128,-1,55
 2184 977 2184 977 2184 1110 c 256,28,29
1884 1540 m 0,56,57
 1894 1526 1894 1526 1891.5 1507 c 128,-1,58
 1889 1488 1889 1488 1882 1471 c 0,59,60
 1874 1451 1874 1451 1861 1429 c 1,61,62
 1777 1341 1777 1341 1646 1208 c 0,63,64
 1534 1095 1534 1095 1357.5 918.5 c 128,-1,65
 1181 742 1181 742 931 496 c 1,66,-1
 568 1104 l 1,67,-1
 730 1190 l 1,68,-1
 973 747 l 1,69,-1
 1755 1528 l 1,70,71
 1783 1542 1783 1542 1809 1549 c 0,72,73
 1831 1555 1831 1555 1852 1555 c 128,-1,74
 1873 1555 1873 1555 1884 1540 c 0,56,57
EndSplineSet
Validated: 1
EndChar

StartChar: u16F4A
Encoding: 71 94026 71
Width: 2430
VWidth: 4000
GlyphClass: 2
Flags: W
LayerCount: 2
Back
Fore
SplineSet
2350 1126 m 0,0,1
 2350 969 2350 969 2309.5 824 c 128,-1,2
 2269 679 2269 679 2195.5 552 c 128,-1,3
 2122 425 2122 425 2018.5 321 c 128,-1,4
 1915 217 1915 217 1789 143 c 128,-1,5
 1663 69 1663 69 1518 28 c 128,-1,6
 1373 -13 1373 -13 1216 -13 c 256,7,8
 1059 -13 1059 -13 914 28 c 128,-1,9
 769 69 769 69 642.5 143 c 128,-1,10
 516 217 516 217 412.5 321 c 128,-1,11
 309 425 309 425 235 551.5 c 128,-1,12
 161 678 161 678 120.5 823.5 c 128,-1,13
 80 969 80 969 80 1126 c 256,14,15
 80 1283 80 1283 120.5 1428 c 128,-1,16
 161 1573 161 1573 235 1699 c 128,-1,17
 309 1825 309 1825 413 1929 c 128,-1,18
 517 2033 517 2033 643 2107 c 128,-1,19
 769 2181 769 2181 914 2221.5 c 128,-1,20
 1059 2262 1059 2262 1216 2262 c 0,21,22
 1372 2262 1372 2262 1517 2221.5 c 128,-1,23
 1662 2181 1662 2181 1788 2107 c 128,-1,24
 1914 2033 1914 2033 2017.5 1929 c 128,-1,25
 2121 1825 2121 1825 2195 1699 c 128,-1,26
 2269 1573 2269 1573 2309.5 1427.5 c 128,-1,27
 2350 1282 2350 1282 2350 1126 c 0,0,1
2184 1110 m 256,28,29
 2184 1243 2184 1243 2149.5 1366 c 128,-1,30
 2115 1489 2115 1489 2052.5 1596 c 128,-1,31
 1990 1703 1990 1703 1902 1791.5 c 128,-1,32
 1814 1880 1814 1880 1707 1943 c 128,-1,33
 1600 2006 1600 2006 1477 2040.5 c 128,-1,34
 1354 2075 1354 2075 1221 2075 c 256,35,36
 1088 2075 1088 2075 964.5 2040.5 c 128,-1,37
 841 2006 841 2006 733.5 1943 c 128,-1,38
 626 1880 626 1880 538 1792 c 128,-1,39
 450 1704 450 1704 387 1596.5 c 128,-1,40
 324 1489 324 1489 289.5 1366 c 128,-1,41
 255 1243 255 1243 255 1110 c 256,42,43
 255 977 255 977 289.5 853.5 c 128,-1,44
 324 730 324 730 387 623 c 128,-1,45
 450 516 450 516 538 428 c 128,-1,46
 626 340 626 340 733.5 277 c 128,-1,47
 841 214 841 214 964.5 179.5 c 128,-1,48
 1088 145 1088 145 1221 145 c 256,49,50
 1354 145 1354 145 1477 179.5 c 128,-1,51
 1600 214 1600 214 1707 277 c 128,-1,52
 1814 340 1814 340 1902 428 c 128,-1,53
 1990 516 1990 516 2052.5 623.5 c 128,-1,54
 2115 731 2115 731 2149.5 854 c 128,-1,55
 2184 977 2184 977 2184 1110 c 256,28,29
1884 1540 m 0,56,57
 1894 1526 1894 1526 1891.5 1507 c 128,-1,58
 1889 1488 1889 1488 1882 1471 c 0,59,60
 1874 1451 1874 1451 1861 1429 c 1,61,62
 1777 1341 1777 1341 1646 1208 c 0,63,64
 1534 1095 1534 1095 1357.5 918.5 c 128,-1,65
 1181 742 1181 742 931 496 c 1,66,-1
 568 1104 l 1,67,-1
 730 1190 l 1,68,-1
 973 747 l 1,69,-1
 1755 1528 l 1,70,71
 1783 1542 1783 1542 1809 1549 c 0,72,73
 1831 1555 1831 1555 1852 1555 c 128,-1,74
 1873 1555 1873 1555 1884 1540 c 0,56,57
EndSplineSet
Validated: 1
EndChar

StartChar: u16F4B
Encoding: 72 94027 72
Width: 2430
VWidth: 4000
GlyphClass: 2
Flags: W
LayerCount: 2
Back
Fore
SplineSet
2350 1126 m 0,0,1
 2350 969 2350 969 2309.5 824 c 128,-1,2
 2269 679 2269 679 2195.5 552 c 128,-1,3
 2122 425 2122 425 2018.5 321 c 128,-1,4
 1915 217 1915 217 1789 143 c 128,-1,5
 1663 69 1663 69 1518 28 c 128,-1,6
 1373 -13 1373 -13 1216 -13 c 256,7,8
 1059 -13 1059 -13 914 28 c 128,-1,9
 769 69 769 69 642.5 143 c 128,-1,10
 516 217 516 217 412.5 321 c 128,-1,11
 309 425 309 425 235 551.5 c 128,-1,12
 161 678 161 678 120.5 823.5 c 128,-1,13
 80 969 80 969 80 1126 c 256,14,15
 80 1283 80 1283 120.5 1428 c 128,-1,16
 161 1573 161 1573 235 1699 c 128,-1,17
 309 1825 309 1825 413 1929 c 128,-1,18
 517 2033 517 2033 643 2107 c 128,-1,19
 769 2181 769 2181 914 2221.5 c 128,-1,20
 1059 2262 1059 2262 1216 2262 c 0,21,22
 1372 2262 1372 2262 1517 2221.5 c 128,-1,23
 1662 2181 1662 2181 1788 2107 c 128,-1,24
 1914 2033 1914 2033 2017.5 1929 c 128,-1,25
 2121 1825 2121 1825 2195 1699 c 128,-1,26
 2269 1573 2269 1573 2309.5 1427.5 c 128,-1,27
 2350 1282 2350 1282 2350 1126 c 0,0,1
2184 1110 m 256,28,29
 2184 1243 2184 1243 2149.5 1366 c 128,-1,30
 2115 1489 2115 1489 2052.5 1596 c 128,-1,31
 1990 1703 1990 1703 1902 1791.5 c 128,-1,32
 1814 1880 1814 1880 1707 1943 c 128,-1,33
 1600 2006 1600 2006 1477 2040.5 c 128,-1,34
 1354 2075 1354 2075 1221 2075 c 256,35,36
 1088 2075 1088 2075 964.5 2040.5 c 128,-1,37
 841 2006 841 2006 733.5 1943 c 128,-1,38
 626 1880 626 1880 538 1792 c 128,-1,39
 450 1704 450 1704 387 1596.5 c 128,-1,40
 324 1489 324 1489 289.5 1366 c 128,-1,41
 255 1243 255 1243 255 1110 c 256,42,43
 255 977 255 977 289.5 853.5 c 128,-1,44
 324 730 324 730 387 623 c 128,-1,45
 450 516 450 516 538 428 c 128,-1,46
 626 340 626 340 733.5 277 c 128,-1,47
 841 214 841 214 964.5 179.5 c 128,-1,48
 1088 145 1088 145 1221 145 c 256,49,50
 1354 145 1354 145 1477 179.5 c 128,-1,51
 1600 214 1600 214 1707 277 c 128,-1,52
 1814 340 1814 340 1902 428 c 128,-1,53
 1990 516 1990 516 2052.5 623.5 c 128,-1,54
 2115 731 2115 731 2149.5 854 c 128,-1,55
 2184 977 2184 977 2184 1110 c 256,28,29
1884 1540 m 0,56,57
 1894 1526 1894 1526 1891.5 1507 c 128,-1,58
 1889 1488 1889 1488 1882 1471 c 0,59,60
 1874 1451 1874 1451 1861 1429 c 1,61,62
 1777 1341 1777 1341 1646 1208 c 0,63,64
 1534 1095 1534 1095 1357.5 918.5 c 128,-1,65
 1181 742 1181 742 931 496 c 1,66,-1
 568 1104 l 1,67,-1
 730 1190 l 1,68,-1
 973 747 l 1,69,-1
 1755 1528 l 1,70,71
 1783 1542 1783 1542 1809 1549 c 0,72,73
 1831 1555 1831 1555 1852 1555 c 128,-1,74
 1873 1555 1873 1555 1884 1540 c 0,56,57
EndSplineSet
Validated: 1
EndChar

StartChar: u16F4C
Encoding: 73 94028 73
Width: 2430
VWidth: 4000
GlyphClass: 2
Flags: W
LayerCount: 2
Back
Fore
SplineSet
2350 1126 m 0,0,1
 2350 969 2350 969 2309.5 824 c 128,-1,2
 2269 679 2269 679 2195.5 552 c 128,-1,3
 2122 425 2122 425 2018.5 321 c 128,-1,4
 1915 217 1915 217 1789 143 c 128,-1,5
 1663 69 1663 69 1518 28 c 128,-1,6
 1373 -13 1373 -13 1216 -13 c 256,7,8
 1059 -13 1059 -13 914 28 c 128,-1,9
 769 69 769 69 642.5 143 c 128,-1,10
 516 217 516 217 412.5 321 c 128,-1,11
 309 425 309 425 235 551.5 c 128,-1,12
 161 678 161 678 120.5 823.5 c 128,-1,13
 80 969 80 969 80 1126 c 256,14,15
 80 1283 80 1283 120.5 1428 c 128,-1,16
 161 1573 161 1573 235 1699 c 128,-1,17
 309 1825 309 1825 413 1929 c 128,-1,18
 517 2033 517 2033 643 2107 c 128,-1,19
 769 2181 769 2181 914 2221.5 c 128,-1,20
 1059 2262 1059 2262 1216 2262 c 0,21,22
 1372 2262 1372 2262 1517 2221.5 c 128,-1,23
 1662 2181 1662 2181 1788 2107 c 128,-1,24
 1914 2033 1914 2033 2017.5 1929 c 128,-1,25
 2121 1825 2121 1825 2195 1699 c 128,-1,26
 2269 1573 2269 1573 2309.5 1427.5 c 128,-1,27
 2350 1282 2350 1282 2350 1126 c 0,0,1
2184 1110 m 256,28,29
 2184 1243 2184 1243 2149.5 1366 c 128,-1,30
 2115 1489 2115 1489 2052.5 1596 c 128,-1,31
 1990 1703 1990 1703 1902 1791.5 c 128,-1,32
 1814 1880 1814 1880 1707 1943 c 128,-1,33
 1600 2006 1600 2006 1477 2040.5 c 128,-1,34
 1354 2075 1354 2075 1221 2075 c 256,35,36
 1088 2075 1088 2075 964.5 2040.5 c 128,-1,37
 841 2006 841 2006 733.5 1943 c 128,-1,38
 626 1880 626 1880 538 1792 c 128,-1,39
 450 1704 450 1704 387 1596.5 c 128,-1,40
 324 1489 324 1489 289.5 1366 c 128,-1,41
 255 1243 255 1243 255 1110 c 256,42,43
 255 977 255 977 289.5 853.5 c 128,-1,44
 324 730 324 730 387 623 c 128,-1,45
 450 516 450 516 538 428 c 128,-1,46
 626 340 626 340 733.5 277 c 128,-1,47
 841 214 841 214 964.5 179.5 c 128,-1,48
 1088 145 1088 145 1221 145 c 256,49,50
 1354 145 1354 145 1477 179.5 c 128,-1,51
 1600 214 1600 214 1707 277 c 128,-1,52
 1814 340 1814 340 1902 428 c 128,-1,53
 1990 516 1990 516 2052.5 623.5 c 128,-1,54
 2115 731 2115 731 2149.5 854 c 128,-1,55
 2184 977 2184 977 2184 1110 c 256,28,29
1884 1540 m 0,56,57
 1894 1526 1894 1526 1891.5 1507 c 128,-1,58
 1889 1488 1889 1488 1882 1471 c 0,59,60
 1874 1451 1874 1451 1861 1429 c 1,61,62
 1777 1341 1777 1341 1646 1208 c 0,63,64
 1534 1095 1534 1095 1357.5 918.5 c 128,-1,65
 1181 742 1181 742 931 496 c 1,66,-1
 568 1104 l 1,67,-1
 730 1190 l 1,68,-1
 973 747 l 1,69,-1
 1755 1528 l 1,70,71
 1783 1542 1783 1542 1809 1549 c 0,72,73
 1831 1555 1831 1555 1852 1555 c 128,-1,74
 1873 1555 1873 1555 1884 1540 c 0,56,57
EndSplineSet
Validated: 1
EndChar

StartChar: u16F4D
Encoding: 74 94029 74
Width: 2430
VWidth: 4000
GlyphClass: 2
Flags: W
LayerCount: 2
Back
Fore
SplineSet
2350 1126 m 0,0,1
 2350 969 2350 969 2309.5 824 c 128,-1,2
 2269 679 2269 679 2195.5 552 c 128,-1,3
 2122 425 2122 425 2018.5 321 c 128,-1,4
 1915 217 1915 217 1789 143 c 128,-1,5
 1663 69 1663 69 1518 28 c 128,-1,6
 1373 -13 1373 -13 1216 -13 c 256,7,8
 1059 -13 1059 -13 914 28 c 128,-1,9
 769 69 769 69 642.5 143 c 128,-1,10
 516 217 516 217 412.5 321 c 128,-1,11
 309 425 309 425 235 551.5 c 128,-1,12
 161 678 161 678 120.5 823.5 c 128,-1,13
 80 969 80 969 80 1126 c 256,14,15
 80 1283 80 1283 120.5 1428 c 128,-1,16
 161 1573 161 1573 235 1699 c 128,-1,17
 309 1825 309 1825 413 1929 c 128,-1,18
 517 2033 517 2033 643 2107 c 128,-1,19
 769 2181 769 2181 914 2221.5 c 128,-1,20
 1059 2262 1059 2262 1216 2262 c 0,21,22
 1372 2262 1372 2262 1517 2221.5 c 128,-1,23
 1662 2181 1662 2181 1788 2107 c 128,-1,24
 1914 2033 1914 2033 2017.5 1929 c 128,-1,25
 2121 1825 2121 1825 2195 1699 c 128,-1,26
 2269 1573 2269 1573 2309.5 1427.5 c 128,-1,27
 2350 1282 2350 1282 2350 1126 c 0,0,1
2184 1110 m 256,28,29
 2184 1243 2184 1243 2149.5 1366 c 128,-1,30
 2115 1489 2115 1489 2052.5 1596 c 128,-1,31
 1990 1703 1990 1703 1902 1791.5 c 128,-1,32
 1814 1880 1814 1880 1707 1943 c 128,-1,33
 1600 2006 1600 2006 1477 2040.5 c 128,-1,34
 1354 2075 1354 2075 1221 2075 c 256,35,36
 1088 2075 1088 2075 964.5 2040.5 c 128,-1,37
 841 2006 841 2006 733.5 1943 c 128,-1,38
 626 1880 626 1880 538 1792 c 128,-1,39
 450 1704 450 1704 387 1596.5 c 128,-1,40
 324 1489 324 1489 289.5 1366 c 128,-1,41
 255 1243 255 1243 255 1110 c 256,42,43
 255 977 255 977 289.5 853.5 c 128,-1,44
 324 730 324 730 387 623 c 128,-1,45
 450 516 450 516 538 428 c 128,-1,46
 626 340 626 340 733.5 277 c 128,-1,47
 841 214 841 214 964.5 179.5 c 128,-1,48
 1088 145 1088 145 1221 145 c 256,49,50
 1354 145 1354 145 1477 179.5 c 128,-1,51
 1600 214 1600 214 1707 277 c 128,-1,52
 1814 340 1814 340 1902 428 c 128,-1,53
 1990 516 1990 516 2052.5 623.5 c 128,-1,54
 2115 731 2115 731 2149.5 854 c 128,-1,55
 2184 977 2184 977 2184 1110 c 256,28,29
1884 1540 m 0,56,57
 1894 1526 1894 1526 1891.5 1507 c 128,-1,58
 1889 1488 1889 1488 1882 1471 c 0,59,60
 1874 1451 1874 1451 1861 1429 c 1,61,62
 1777 1341 1777 1341 1646 1208 c 0,63,64
 1534 1095 1534 1095 1357.5 918.5 c 128,-1,65
 1181 742 1181 742 931 496 c 1,66,-1
 568 1104 l 1,67,-1
 730 1190 l 1,68,-1
 973 747 l 1,69,-1
 1755 1528 l 1,70,71
 1783 1542 1783 1542 1809 1549 c 0,72,73
 1831 1555 1831 1555 1852 1555 c 128,-1,74
 1873 1555 1873 1555 1884 1540 c 0,56,57
EndSplineSet
Validated: 1
EndChar

StartChar: u16F4E
Encoding: 75 94030 75
Width: 2430
VWidth: 4000
GlyphClass: 2
Flags: W
LayerCount: 2
Back
Fore
SplineSet
2350 1126 m 0,0,1
 2350 969 2350 969 2309.5 824 c 128,-1,2
 2269 679 2269 679 2195.5 552 c 128,-1,3
 2122 425 2122 425 2018.5 321 c 128,-1,4
 1915 217 1915 217 1789 143 c 128,-1,5
 1663 69 1663 69 1518 28 c 128,-1,6
 1373 -13 1373 -13 1216 -13 c 256,7,8
 1059 -13 1059 -13 914 28 c 128,-1,9
 769 69 769 69 642.5 143 c 128,-1,10
 516 217 516 217 412.5 321 c 128,-1,11
 309 425 309 425 235 551.5 c 128,-1,12
 161 678 161 678 120.5 823.5 c 128,-1,13
 80 969 80 969 80 1126 c 256,14,15
 80 1283 80 1283 120.5 1428 c 128,-1,16
 161 1573 161 1573 235 1699 c 128,-1,17
 309 1825 309 1825 413 1929 c 128,-1,18
 517 2033 517 2033 643 2107 c 128,-1,19
 769 2181 769 2181 914 2221.5 c 128,-1,20
 1059 2262 1059 2262 1216 2262 c 0,21,22
 1372 2262 1372 2262 1517 2221.5 c 128,-1,23
 1662 2181 1662 2181 1788 2107 c 128,-1,24
 1914 2033 1914 2033 2017.5 1929 c 128,-1,25
 2121 1825 2121 1825 2195 1699 c 128,-1,26
 2269 1573 2269 1573 2309.5 1427.5 c 128,-1,27
 2350 1282 2350 1282 2350 1126 c 0,0,1
2184 1110 m 256,28,29
 2184 1243 2184 1243 2149.5 1366 c 128,-1,30
 2115 1489 2115 1489 2052.5 1596 c 128,-1,31
 1990 1703 1990 1703 1902 1791.5 c 128,-1,32
 1814 1880 1814 1880 1707 1943 c 128,-1,33
 1600 2006 1600 2006 1477 2040.5 c 128,-1,34
 1354 2075 1354 2075 1221 2075 c 256,35,36
 1088 2075 1088 2075 964.5 2040.5 c 128,-1,37
 841 2006 841 2006 733.5 1943 c 128,-1,38
 626 1880 626 1880 538 1792 c 128,-1,39
 450 1704 450 1704 387 1596.5 c 128,-1,40
 324 1489 324 1489 289.5 1366 c 128,-1,41
 255 1243 255 1243 255 1110 c 256,42,43
 255 977 255 977 289.5 853.5 c 128,-1,44
 324 730 324 730 387 623 c 128,-1,45
 450 516 450 516 538 428 c 128,-1,46
 626 340 626 340 733.5 277 c 128,-1,47
 841 214 841 214 964.5 179.5 c 128,-1,48
 1088 145 1088 145 1221 145 c 256,49,50
 1354 145 1354 145 1477 179.5 c 128,-1,51
 1600 214 1600 214 1707 277 c 128,-1,52
 1814 340 1814 340 1902 428 c 128,-1,53
 1990 516 1990 516 2052.5 623.5 c 128,-1,54
 2115 731 2115 731 2149.5 854 c 128,-1,55
 2184 977 2184 977 2184 1110 c 256,28,29
1884 1540 m 0,56,57
 1894 1526 1894 1526 1891.5 1507 c 128,-1,58
 1889 1488 1889 1488 1882 1471 c 0,59,60
 1874 1451 1874 1451 1861 1429 c 1,61,62
 1777 1341 1777 1341 1646 1208 c 0,63,64
 1534 1095 1534 1095 1357.5 918.5 c 128,-1,65
 1181 742 1181 742 931 496 c 1,66,-1
 568 1104 l 1,67,-1
 730 1190 l 1,68,-1
 973 747 l 1,69,-1
 1755 1528 l 1,70,71
 1783 1542 1783 1542 1809 1549 c 0,72,73
 1831 1555 1831 1555 1852 1555 c 128,-1,74
 1873 1555 1873 1555 1884 1540 c 0,56,57
EndSplineSet
Validated: 1
EndChar

StartChar: u16F4F
Encoding: 76 94031 76
Width: 2430
VWidth: 4000
GlyphClass: 2
Flags: W
LayerCount: 2
Back
Fore
SplineSet
2350 1126 m 0,0,1
 2350 969 2350 969 2309.5 824 c 128,-1,2
 2269 679 2269 679 2195.5 552 c 128,-1,3
 2122 425 2122 425 2018.5 321 c 128,-1,4
 1915 217 1915 217 1789 143 c 128,-1,5
 1663 69 1663 69 1518 28 c 128,-1,6
 1373 -13 1373 -13 1216 -13 c 256,7,8
 1059 -13 1059 -13 914 28 c 128,-1,9
 769 69 769 69 642.5 143 c 128,-1,10
 516 217 516 217 412.5 321 c 128,-1,11
 309 425 309 425 235 551.5 c 128,-1,12
 161 678 161 678 120.5 823.5 c 128,-1,13
 80 969 80 969 80 1126 c 256,14,15
 80 1283 80 1283 120.5 1428 c 128,-1,16
 161 1573 161 1573 235 1699 c 128,-1,17
 309 1825 309 1825 413 1929 c 128,-1,18
 517 2033 517 2033 643 2107 c 128,-1,19
 769 2181 769 2181 914 2221.5 c 128,-1,20
 1059 2262 1059 2262 1216 2262 c 0,21,22
 1372 2262 1372 2262 1517 2221.5 c 128,-1,23
 1662 2181 1662 2181 1788 2107 c 128,-1,24
 1914 2033 1914 2033 2017.5 1929 c 128,-1,25
 2121 1825 2121 1825 2195 1699 c 128,-1,26
 2269 1573 2269 1573 2309.5 1427.5 c 128,-1,27
 2350 1282 2350 1282 2350 1126 c 0,0,1
2184 1110 m 256,28,29
 2184 1243 2184 1243 2149.5 1366 c 128,-1,30
 2115 1489 2115 1489 2052.5 1596 c 128,-1,31
 1990 1703 1990 1703 1902 1791.5 c 128,-1,32
 1814 1880 1814 1880 1707 1943 c 128,-1,33
 1600 2006 1600 2006 1477 2040.5 c 128,-1,34
 1354 2075 1354 2075 1221 2075 c 256,35,36
 1088 2075 1088 2075 964.5 2040.5 c 128,-1,37
 841 2006 841 2006 733.5 1943 c 128,-1,38
 626 1880 626 1880 538 1792 c 128,-1,39
 450 1704 450 1704 387 1596.5 c 128,-1,40
 324 1489 324 1489 289.5 1366 c 128,-1,41
 255 1243 255 1243 255 1110 c 256,42,43
 255 977 255 977 289.5 853.5 c 128,-1,44
 324 730 324 730 387 623 c 128,-1,45
 450 516 450 516 538 428 c 128,-1,46
 626 340 626 340 733.5 277 c 128,-1,47
 841 214 841 214 964.5 179.5 c 128,-1,48
 1088 145 1088 145 1221 145 c 256,49,50
 1354 145 1354 145 1477 179.5 c 128,-1,51
 1600 214 1600 214 1707 277 c 128,-1,52
 1814 340 1814 340 1902 428 c 128,-1,53
 1990 516 1990 516 2052.5 623.5 c 128,-1,54
 2115 731 2115 731 2149.5 854 c 128,-1,55
 2184 977 2184 977 2184 1110 c 256,28,29
1884 1540 m 0,56,57
 1894 1526 1894 1526 1891.5 1507 c 128,-1,58
 1889 1488 1889 1488 1882 1471 c 0,59,60
 1874 1451 1874 1451 1861 1429 c 1,61,62
 1777 1341 1777 1341 1646 1208 c 0,63,64
 1534 1095 1534 1095 1357.5 918.5 c 128,-1,65
 1181 742 1181 742 931 496 c 1,66,-1
 568 1104 l 1,67,-1
 730 1190 l 1,68,-1
 973 747 l 1,69,-1
 1755 1528 l 1,70,71
 1783 1542 1783 1542 1809 1549 c 0,72,73
 1831 1555 1831 1555 1852 1555 c 128,-1,74
 1873 1555 1873 1555 1884 1540 c 0,56,57
EndSplineSet
Validated: 1
EndChar

StartChar: u16F50
Encoding: 77 94032 77
Width: 1484
VWidth: 4000
GlyphClass: 2
Flags: W
LayerCount: 2
Back
Fore
SplineSet
1434 2560 m 1,0,1
 1238 2553 1238 2553 1090 2518.5 c 128,-1,2
 942 2484 942 2484 835 2421.5 c 128,-1,3
 728 2359 728 2359 657 2267.5 c 128,-1,4
 586 2176 586 2176 544 2055 c 128,-1,5
 502 1934 502 1934 485 1783.5 c 128,-1,6
 468 1633 468 1633 468 1451 c 0,7,8
 468 1343 468 1343 484 1231 c 128,-1,9
 500 1119 500 1119 534 1011 c 128,-1,10
 568 903 568 903 620 804.5 c 128,-1,11
 672 706 672 706 745 625.5 c 128,-1,12
 818 545 818 545 912 488 c 128,-1,13
 1006 431 1006 431 1123 406 c 0,14,15
 1195 390 1195 390 1269 389 c 128,-1,16
 1343 388 1343 388 1417 390 c 1,17,-1
 1420 0 l 1,18,-1
 1407 0 l 1,19,-1
 1233 0 l 2,20,21
 1038 0 1038 0 874.5 60 c 128,-1,22
 711 120 711 120 579.5 224 c 128,-1,23
 448 328 448 328 349 469 c 128,-1,24
 250 610 250 610 183.5 772 c 128,-1,25
 117 934 117 934 83.5 1110 c 128,-1,26
 50 1286 50 1286 50 1460 c 0,27,28
 50 1666 50 1666 84 1857 c 128,-1,29
 118 2048 118 2048 187 2213 c 128,-1,30
 256 2378 256 2378 361.5 2513.5 c 128,-1,31
 467 2649 467 2649 611 2745 c 128,-1,32
 755 2841 755 2841 938 2892.5 c 128,-1,33
 1121 2944 1121 2944 1344 2942 c 2,34,-1
 1434 2941 l 1,35,-1
 1434 2560 l 1,0,1
EndSplineSet
Validated: 33
EndChar

StartChar: u16F51
Encoding: 78 94033 78
Width: 780
VWidth: 4000
Flags: W
AnchorPoint: "SP" 783 2680 mark 0
AnchorPoint: "S" 780 2680 exit 0
AnchorPoint: "S" 0 2680 entry 0
LayerCount: 2
Back
Fore
SplineSet
730 3240 m 0,0,1
 730 3155 730 3155 709 3069.5 c 128,-1,2
 688 2984 688 2984 649.5 2904.5 c 128,-1,3
 611 2825 611 2825 556 2755.5 c 128,-1,4
 501 2686 501 2686 432 2634 c 128,-1,5
 363 2582 363 2582 281.5 2551.5 c 128,-1,6
 200 2521 200 2521 110 2520 c 1,7,-1
 102 2748 l 1,8,9
 171 2766 171 2766 224 2806.5 c 128,-1,10
 277 2847 277 2847 317 2901 c 128,-1,11
 357 2955 357 2955 385.5 3018 c 128,-1,12
 414 3081 414 3081 434 3144 c 1,13,14
 409 3140 409 3140 384 3138 c 128,-1,15
 359 3136 359 3136 334 3136 c 0,16,17
 264 3136 264 3136 211 3164.5 c 128,-1,18
 158 3193 158 3193 122 3240.5 c 128,-1,19
 86 3288 86 3288 68 3348.5 c 128,-1,20
 50 3409 50 3409 50 3472 c 256,21,22
 50 3535 50 3535 77.5 3590.5 c 128,-1,23
 105 3646 105 3646 150.5 3687.5 c 128,-1,24
 196 3729 196 3729 254.5 3752.5 c 128,-1,25
 313 3776 313 3776 374 3776 c 4,26,27
 459 3776 459 3776 518 3755 c 128,-1,28
 577 3734 577 3734 617 3696.5 c 128,-1,29
 657 3659 657 3659 679.5 3608 c 128,-1,30
 702 3557 702 3557 713 3497.5 c 128,-1,31
 724 3438 724 3438 727 3372.5 c 128,-1,32
 730 3307 730 3307 730 3240 c 0,0,1
EndSplineSet
MultipleSubs2: "AspToneB-1" u16F51.B u16F92
MultipleSubs2: "AspToneR-1" u16F51 u16F8F
MultipleSubs2: "AspToneT-1" u16F51.BASE u16F90
MultipleSubs2: "AspToneA-1" u16F51.A u16F91
EndChar

StartChar: u16F52
Encoding: 79 94034 79
Width: 2430
VWidth: 4000
Flags: W
LayerCount: 2
Back
Fore
SplineSet
2005 1474 m 1,0,1
 1822 1467 1822 1467 1778 1344 c 0,2,3
 1758 1288 1758 1288 1758 1225 c 128,-1,4
 1758 1162 1758 1162 1762 1133.5 c 128,-1,5
 1766 1105 1766 1105 1774.5 1077.5 c 128,-1,6
 1783 1050 1783 1050 1796.5 1024.5 c 128,-1,7
 1810 999 1810 999 1828 978 c 0,8,9
 1883 918 1883 918 1963 918 c 2,10,-1
 2001 918 l 1,11,-1
 2002 818 l 1,12,-1
 1954 818 l 2,13,14
 1765 818 1765 818 1685 1016 c 0,15,16
 1651 1100 1651 1100 1651 1172 c 0,17,18
 1651 1245 1651 1245 1659.5 1294 c 128,-1,19
 1668 1343 1668 1343 1686 1385 c 128,-1,20
 1704 1427 1704 1427 1731 1462 c 128,-1,21
 1758 1497 1758 1497 1794 1522 c 0,22,23
 1870 1572 1870 1572 1982 1572 c 1,24,-1
 2005 1571 l 1,25,-1
 2005 1474 l 1,0,1
2028.5 1271 m 128,-1,27
 2079 1271 2079 1271 2079 1220.5 c 128,-1,28
 2079 1170 2079 1170 2029.5 1170 c 128,-1,29
 1980 1170 1980 1170 1979 1220.5 c 128,-1,26
 1978 1271 1978 1271 2028.5 1271 c 128,-1,27
1902 428 m 0,30,31
 2184 710 2184 710 2184 1110 c 0,32,33
 2184 1508 2184 1508 1902 1792 c 0,34,35
 1620 2075 1620 2075 1221 2075 c 0,36,37
 821 2075 821 2075 538 1792 c 128,-1,38
 255 1509 255 1509 255 1110 c 128,-1,39
 255 711 255 711 538 428 c 128,-1,40
 821 145 821 145 1221 145 c 0,41,42
 1619 145 1619 145 1902 428 c 0,30,31
2018 1929 m 0,43,44
 2350 1595 2350 1595 2350 1126 c 0,45,46
 2350 969 2350 969 2309.5 824 c 128,-1,47
 2269 679 2269 679 2195.5 552 c 128,-1,48
 2122 425 2122 425 2018.5 321 c 128,-1,49
 1915 217 1915 217 1789 143 c 0,50,51
 1523 -13 1523 -13 1216 -13 c 0,52,53
 745 -13 745 -13 412 321 c 0,54,55
 80 655 80 655 80 1126 c 0,56,57
 80 1596 80 1596 413 1929 c 128,-1,58
 746 2262 746 2262 1216 2262 c 0,59,60
 1687 2262 1687 2262 2018 1929 c 0,43,44
708 1450 m 1,61,-1
 670 1450 l 1,62,-1
 564 1090 l 1,63,-1
 813 1090 l 1,64,-1
 708 1450 l 1,61,-1
753 1624 m 1,65,-1
 1009 804 l 1,66,-1
 897 804 l 1,67,-1
 841 993 l 1,68,-1
 537 993 l 1,69,-1
 537 996 l 1,70,-1
 480 804 l 1,71,-1
 373 804 l 1,72,-1
 627 1624 l 1,73,-1
 753 1624 l 1,65,-1
1155 1252 m 1,74,-1
 1349 1252 l 2,75,76
 1485 1252 1485 1252 1485 1380.5 c 128,-1,77
 1485 1509 1485 1509 1362 1509 c 2,78,-1
 1155 1509 l 1,79,-1
 1155 1252 l 1,74,-1
1445 1157 m 1,80,-1
 1605 802 l 1,81,-1
 1479 802 l 1,82,-1
 1344 1141 l 1,83,-1
 1155 1141 l 1,84,-1
 1155 802 l 1,85,-1
 1040 802 l 1,86,-1
 1040 1622 l 1,87,-1
 1373 1622 l 2,88,89
 1503 1622 1503 1622 1570 1503 c 0,90,91
 1599 1450 1599 1450 1599 1398.5 c 128,-1,92
 1599 1347 1599 1347 1588.5 1312 c 128,-1,93
 1578 1277 1578 1277 1558 1248 c 0,94,95
 1515 1184 1515 1184 1445 1157 c 1,80,-1
EndSplineSet
Validated: 1
EndChar

StartChar: u16F53
Encoding: 80 94035 80
Width: 780
VWidth: 4000
Flags: W
AnchorPoint: "V" 780 0 exit 0
AnchorPoint: "F" 0 0 entry 0
LayerCount: 2
Back
Fore
SplineSet
730 740 m 0,0,1
 730 655 730 655 709 569.5 c 128,-1,2
 688 484 688 484 649.5 404.5 c 128,-1,3
 611 325 611 325 556 255.5 c 128,-1,4
 501 186 501 186 432 134 c 128,-1,5
 363 82 363 82 281.5 51.5 c 128,-1,6
 200 21 200 21 110 20 c 1,7,-1
 102 248 l 1,8,9
 171 266 171 266 224 306.5 c 128,-1,10
 277 347 277 347 317 401 c 128,-1,11
 357 455 357 455 385.5 518 c 128,-1,12
 414 581 414 581 434 644 c 1,13,14
 409 640 409 640 384 638 c 128,-1,15
 359 636 359 636 334 636 c 0,16,17
 264 636 264 636 211 664.5 c 128,-1,18
 158 693 158 693 122 740.5 c 128,-1,19
 86 788 86 788 68 848.5 c 128,-1,20
 50 909 50 909 50 972 c 256,21,22
 50 1035 50 1035 77.5 1090.5 c 128,-1,23
 105 1146 105 1146 150.5 1187.5 c 128,-1,24
 196 1229 196 1229 254.5 1252.5 c 128,-1,25
 313 1276 313 1276 374 1276 c 0,26,27
 459 1276 459 1276 518 1255 c 128,-1,28
 577 1234 577 1234 617 1196.5 c 128,-1,29
 657 1159 657 1159 679.5 1108 c 128,-1,30
 702 1057 702 1057 713 997.5 c 128,-1,31
 724 938 724 938 727 872.5 c 128,-1,32
 730 807 730 807 730 740 c 0,0,1
EndSplineSet
EndChar

StartChar: u16F54
Encoding: 81 94036 81
Width: 1368
VWidth: 4000
GlyphClass: 2
Flags: W
AnchorPoint: "F" 0 0 entry 0
AnchorPoint: "V" 1368 0 exit 0
AnchorPoint: "V" 0 0 entry 0
LayerCount: 2
Back
Fore
SplineSet
1215 632 m 1,0,-1
 1211 352 l 1,1,-1
 147 352 l 1,2,-1
 147 632 l 1,3,-1
 1215 632 l 1,0,-1
EndSplineSet
Substitution2: "VowelB-1" u16F54.B
Substitution2: "VowelR-1" u16F54.R
Substitution2: "VowelA-1" u16F54.A
Substitution2: "VowelT-1" u16F54.T
EndChar

StartChar: u16F55
Encoding: 82 94037 82
Width: 1670
VWidth: 4000
GlyphClass: 2
Flags: W
AnchorPoint: "F" 0 0 entry 0
AnchorPoint: "V" 1670 0 exit 0
AnchorPoint: "V" 0 0 entry 0
LayerCount: 2
Back
Fore
SplineSet
1484 532 m 2,0,1
 1484 426 1484 426 1451.5 329 c 128,-1,2
 1419 232 1419 232 1357 158 c 128,-1,3
 1295 84 1295 84 1206 40 c 128,-1,4
 1117 -4 1117 -4 1004 -4 c 0,5,6
 909 -4 909 -4 837.5 20 c 128,-1,7
 766 44 766 44 714.5 87 c 128,-1,8
 663 130 663 130 629 189 c 128,-1,9
 595 248 595 248 575 318 c 128,-1,10
 555 388 555 388 547 466 c 128,-1,11
 539 544 539 544 540 624 c 1,12,-1
 100 620 l 1,13,-1
 100 892 l 1,14,-1
 816 892 l 1,15,-1
 814 532 l 2,16,17
 814 478 814 478 824 433 c 128,-1,18
 834 388 834 388 856.5 356 c 128,-1,19
 879 324 879 324 913.5 306 c 128,-1,20
 948 288 948 288 996 288 c 0,21,22
 1043 288 1043 288 1081 310.5 c 128,-1,23
 1119 333 1119 333 1145.5 368.5 c 128,-1,24
 1172 404 1172 404 1186 447.5 c 128,-1,25
 1200 491 1200 491 1200 532 c 2,26,-1
 1200 1100 l 1,27,-1
 1484 1100 l 1,28,-1
 1484 532 l 2,0,1
EndSplineSet
Substitution2: "VowelB-1" u16F55.B
Substitution2: "VowelR-1" u16F55.R
Substitution2: "VowelA-1" u16F55.A
Substitution2: "VowelT-1" u16F55.T
EndChar

StartChar: u16F57
Encoding: 83 94039 83
Width: 1442
VWidth: 4000
GlyphClass: 2
Flags: W
AnchorPoint: "F" 0 0 entry 0
AnchorPoint: "V" 1442 0 exit 0
AnchorPoint: "V" 0 0 entry 0
LayerCount: 2
Back
Fore
SplineSet
1289 344 m 1,0,1
 1241 273 1241 273 1182 210.5 c 128,-1,2
 1123 148 1123 148 1054 101.5 c 128,-1,3
 985 55 985 55 905.5 27.5 c 128,-1,4
 826 0 826 0 737 0 c 0,5,6
 663 0 663 0 584.5 22 c 128,-1,7
 506 44 506 44 441 87.5 c 128,-1,8
 376 131 376 131 334.5 195 c 128,-1,9
 293 259 293 259 293 344 c 0,10,11
 293 415 293 415 321 491.5 c 128,-1,12
 349 568 349 568 391.5 641.5 c 128,-1,13
 434 715 434 715 484 782.5 c 128,-1,14
 534 850 534 850 577 904 c 1,15,-1
 81 900 l 1,16,-1
 81 1200 l 1,17,-1
 945 1200 l 1,18,-1
 945 952 l 1,19,20
 925 925 925 925 892.5 882.5 c 128,-1,21
 860 840 860 840 823 788.5 c 128,-1,22
 786 737 786 737 748.5 681.5 c 128,-1,23
 711 626 711 626 681 573.5 c 128,-1,24
 651 521 651 521 632 475.5 c 128,-1,25
 613 430 613 430 613 400 c 0,26,27
 613 366 613 366 625 344 c 128,-1,28
 637 322 637 322 657.5 308.5 c 128,-1,29
 678 295 678 295 705 289.5 c 128,-1,30
 732 284 732 284 761 284 c 0,31,32
 820 284 820 284 874.5 313 c 128,-1,33
 929 342 929 342 974 387 c 128,-1,34
 1019 432 1019 432 1053 486.5 c 128,-1,35
 1087 541 1087 541 1105 592 c 1,36,-1
 1289 344 l 1,0,1
EndSplineSet
Substitution2: "VowelB-1" u16F57.B
Substitution2: "VowelR-1" u16F57.R
Substitution2: "VowelA-1" u16F57.A
Substitution2: "VowelT-1" u16F57.T
EndChar

StartChar: u16F58
Encoding: 84 94040 84
Width: 1524
VWidth: 4000
GlyphClass: 2
Flags: W
AnchorPoint: "F" 0 0 entry 0
AnchorPoint: "V" 1524 0 exit 0
AnchorPoint: "V" 0 0 entry 0
LayerCount: 2
Back
Fore
SplineSet
1372 352 m 0,0,1
 1373 296 1373 296 1355.5 246 c 128,-1,2
 1338 196 1338 196 1306.5 153.5 c 128,-1,3
 1275 111 1275 111 1232 77.5 c 128,-1,4
 1189 44 1189 44 1140 21 c 128,-1,5
 1091 -2 1091 -2 1039 -12.5 c 128,-1,6
 987 -23 987 -23 936 -20 c 0,7,8
 823 -13 823 -13 726 4.5 c 128,-1,9
 629 22 629 22 548.5 59.5 c 128,-1,10
 468 97 468 97 404.5 158.5 c 128,-1,11
 341 220 341 220 296 316 c 0,12,13
 276 357 276 357 274 409.5 c 128,-1,14
 272 462 272 462 285.5 519 c 128,-1,15
 299 576 299 576 326.5 635.5 c 128,-1,16
 354 695 354 695 394 751.5 c 128,-1,17
 434 808 434 808 485 858.5 c 128,-1,18
 536 909 536 909 596 948 c 1,19,-1
 84 948 l 1,20,-1
 84 1240 l 1,21,-1
 972 1240 l 1,22,-1
 972 984 l 1,23,24
 948 976 948 976 905 946 c 128,-1,25
 862 916 862 916 812 871.5 c 128,-1,26
 762 827 762 827 710.5 771.5 c 128,-1,27
 659 716 659 716 618 656 c 128,-1,28
 577 596 577 596 551.5 535 c 128,-1,29
 526 474 526 474 528.5 419 c 128,-1,30
 531 364 531 364 567 318.5 c 128,-1,31
 603 273 603 273 684 244 c 1,32,33
 673 292 673 292 671.5 346.5 c 128,-1,34
 670 401 670 401 681.5 455 c 128,-1,35
 693 509 693 509 720.5 558 c 128,-1,36
 748 607 748 607 796 644 c 0,37,38
 887 712 887 712 983.5 714.5 c 128,-1,39
 1080 717 1080 717 1180 664 c 0,40,41
 1275 613 1275 613 1322 536.5 c 128,-1,42
 1369 460 1369 460 1372 352 c 0,0,1
1163 356 m 1,43,44
 1161 388 1161 388 1149.5 416 c 128,-1,45
 1138 444 1138 444 1118.5 465 c 128,-1,46
 1099 486 1099 486 1072 499.5 c 128,-1,47
 1045 513 1045 513 1013 515 c 0,48,49
 978 517 978 517 947.5 505.5 c 128,-1,50
 917 494 917 494 893 472.5 c 128,-1,51
 869 451 869 451 854 421 c 128,-1,52
 839 391 839 391 837 356 c 0,53,54
 835 326 835 326 843.5 298.5 c 128,-1,55
 852 271 852 271 869 248.5 c 128,-1,56
 886 226 886 226 910.5 210.5 c 128,-1,57
 935 195 935 195 965 189 c 0,58,59
 1002 181 1002 181 1038 192 c 128,-1,60
 1074 203 1074 203 1102.5 227 c 128,-1,61
 1131 251 1131 251 1147.5 284.5 c 128,-1,62
 1164 318 1164 318 1163 356 c 1,43,44
EndSplineSet
Substitution2: "VowelB-1" u16F58.B
Substitution2: "VowelR-1" u16F58.R
Substitution2: "VowelA-1" u16F58.A
Substitution2: "VowelT-1" u16F58.T
EndChar

StartChar: u16F59
Encoding: 85 94041 85
Width: 1451
VWidth: 4000
GlyphClass: 2
Flags: W
AnchorPoint: "F" 0 0 entry 0
AnchorPoint: "V" 1451 0 exit 0
AnchorPoint: "V" 0 0 entry 0
LayerCount: 2
Back
Fore
SplineSet
1279 494 m 4,0,1
 1279 378 1279 378 1234 276 c 132,-1,2
 1189 174 1189 174 1112.5 98 c 132,-1,3
 1036 22 1036 22 933 -22 c 132,-1,4
 830 -66 830 -66 715 -66 c 4,5,6
 599 -66 599 -66 498 -21 c 132,-1,7
 397 24 397 24 322.5 101 c 132,-1,8
 248 178 248 178 205.5 280.5 c 132,-1,9
 163 383 163 383 163 498 c 260,10,11
 163 613 163 613 205 715.5 c 132,-1,12
 247 818 247 818 320.5 895 c 132,-1,13
 394 972 394 972 494.5 1017 c 132,-1,14
 595 1062 595 1062 711 1062 c 4,15,16
 830 1062 830 1062 934 1018 c 132,-1,17
 1038 974 1038 974 1114.5 897.5 c 132,-1,18
 1191 821 1191 821 1235 717 c 132,-1,19
 1279 613 1279 613 1279 494 c 4,0,1
1045 482 m 4,20,21
 1045 551 1045 551 1020.5 613.5 c 132,-1,22
 996 676 996 676 952 723.5 c 132,-1,23
 908 771 908 771 847.5 799.5 c 132,-1,24
 787 828 787 828 715 828 c 260,25,26
 643 828 643 828 582 800 c 132,-1,27
 521 772 521 772 476.5 724.5 c 132,-1,28
 432 677 432 677 407 614 c 132,-1,29
 382 551 382 551 382 482 c 4,30,31
 382 414 382 414 408.5 353 c 132,-1,32
 435 292 435 292 480.5 245.5 c 132,-1,33
 526 199 526 199 586.5 171.5 c 132,-1,34
 647 144 647 144 715 144 c 4,35,36
 784 144 784 144 844 171.5 c 132,-1,37
 904 199 904 199 948.5 245.5 c 132,-1,38
 993 292 993 292 1019 353.5 c 132,-1,39
 1045 415 1045 415 1045 482 c 4,20,21
EndSplineSet
Substitution2: "VowelB-1" u16F59.B
Substitution2: "VowelR-1" u16F59.R
Substitution2: "VowelA-1" u16F59.A
Substitution2: "VowelT-1" u16F59.T
EndChar

StartChar: u16F5A
Encoding: 86 94042 86
Width: 1763
VWidth: 4000
GlyphClass: 2
Flags: W
AnchorPoint: "F" 0 0 entry 0
AnchorPoint: "V" 1763 0 exit 0
AnchorPoint: "V" 0 0 entry 0
LayerCount: 2
Back
Fore
SplineSet
1587 1088 m 1,0,-1
 1583 808 l 1,1,2
 1466 806 1466 806 1351 805.5 c 128,-1,3
 1236 805 1236 805 1119 808 c 1,4,5
 1157 748 1157 748 1178 680 c 128,-1,6
 1199 612 1199 612 1199 540 c 0,7,8
 1199 430 1199 430 1160.5 329 c 128,-1,9
 1122 228 1122 228 1053 151.5 c 128,-1,10
 984 75 984 75 888.5 29.5 c 128,-1,11
 793 -16 793 -16 679 -16 c 0,12,13
 563 -16 563 -16 468 29.5 c 128,-1,14
 373 75 373 75 305.5 151.5 c 128,-1,15
 238 228 238 228 200.5 328.5 c 128,-1,16
 163 429 163 429 163 540 c 0,17,18
 163 653 163 653 205 752.5 c 128,-1,19
 247 852 247 852 319.5 926.5 c 128,-1,20
 392 1001 392 1001 490.5 1044.5 c 128,-1,21
 589 1088 589 1088 703 1088 c 2,22,-1
 1587 1088 l 1,0,-1
895 552 m 256,23,24
 895 600 895 600 880.5 643.5 c 128,-1,25
 866 687 866 687 838.5 720 c 128,-1,26
 811 753 811 753 770.5 772.5 c 128,-1,27
 730 792 730 792 679 792 c 0,28,29
 631 792 631 792 591 771.5 c 128,-1,30
 551 751 551 751 522.5 717.5 c 128,-1,31
 494 684 494 684 478.5 640.5 c 128,-1,32
 463 597 463 597 463 552 c 0,33,34
 463 498 463 498 473.5 449 c 128,-1,35
 484 400 484 400 509.5 363.5 c 128,-1,36
 535 327 535 327 576 305.5 c 128,-1,37
 617 284 617 284 679 284 c 0,38,39
 733 284 733 284 773.5 308 c 128,-1,40
 814 332 814 332 841 370 c 128,-1,41
 868 408 868 408 881.5 456 c 128,-1,42
 895 504 895 504 895 552 c 256,23,24
EndSplineSet
Substitution2: "VowelB-1" u16F5A.B
Substitution2: "VowelR-1" u16F5A.R
Substitution2: "VowelT-1" u16F5A.T
Substitution2: "VowelA-1" u16F5A.A
EndChar

StartChar: u16F5C
Encoding: 87 94044 87
Width: 1418
VWidth: 4000
GlyphClass: 2
Flags: W
AnchorPoint: "F" 0 0 entry 0
AnchorPoint: "V" 1418 0 exit 0
AnchorPoint: "V" 0 0 entry 0
LayerCount: 2
Back
Fore
SplineSet
1248 488 m 0,0,1
 1248 370 1248 370 1202 272 c 128,-1,2
 1156 174 1156 174 1078 104 c 128,-1,3
 1000 34 1000 34 896 -5 c 128,-1,4
 792 -44 792 -44 676 -44 c 2,5,-1
 152 -44 l 1,6,-1
 152 252 l 1,7,-1
 676 252 l 2,8,9
 720 252 720 252 764.5 270.5 c 128,-1,10
 809 289 809 289 844.5 320.5 c 128,-1,11
 880 352 880 352 902 393 c 128,-1,12
 924 434 924 434 924 480 c 0,13,14
 924 548 924 548 890.5 590 c 128,-1,15
 857 632 857 632 803.5 655 c 128,-1,16
 750 678 750 678 682 685.5 c 128,-1,17
 614 693 614 693 545 693.5 c 128,-1,18
 476 694 476 694 412.5 690.5 c 128,-1,19
 349 687 349 687 304 688 c 1,20,-1
 304 1376 l 1,21,-1
 608 1376 l 1,22,-1
 608 964 l 1,23,-1
 764 964 l 2,24,25
 866 964 866 964 954 928 c 128,-1,26
 1042 892 1042 892 1107.5 828.5 c 128,-1,27
 1173 765 1173 765 1210.5 677.5 c 128,-1,28
 1248 590 1248 590 1248 488 c 0,0,1
EndSplineSet
Substitution2: "VowelB-1" u16F5C.B
Substitution2: "VowelR-1" u16F5C.R
Substitution2: "VowelT-1" u16F5C.T
Substitution2: "VowelA-1" u16F5C.A
EndChar

StartChar: u16F5D
Encoding: 88 94045 88
Width: 1405
VWidth: 4000
GlyphClass: 2
Flags: W
AnchorPoint: "F" 0 0 entry 0
AnchorPoint: "V" 1405 0 exit 0
AnchorPoint: "V" 0 0 entry 0
LayerCount: 2
Back
Fore
SplineSet
1219 16 m 1,0,-1
 695 16 l 2,1,2
 579 16 579 16 481.5 57.5 c 128,-1,3
 384 99 384 99 313.5 171.5 c 128,-1,4
 243 244 243 244 203 343 c 128,-1,5
 163 442 163 442 163 556 c 0,6,7
 163 665 163 665 201.5 761 c 128,-1,8
 240 857 240 857 308 929 c 128,-1,9
 376 1001 376 1001 470 1042.5 c 128,-1,10
 564 1084 564 1084 675 1084 c 2,11,-1
 1219 1084 l 1,12,-1
 1219 784 l 1,13,-1
 679 784 l 2,14,15
 634 784 634 784 594 765 c 128,-1,16
 554 746 554 746 524 714.5 c 128,-1,17
 494 683 494 683 476.5 641.5 c 128,-1,18
 459 600 459 600 459 556 c 0,19,20
 459 490 459 490 479 446 c 128,-1,21
 499 402 499 402 533 375 c 128,-1,22
 567 348 567 348 611.5 334.5 c 128,-1,23
 656 321 656 321 706 316 c 128,-1,24
 756 311 756 311 807.5 311.5 c 128,-1,25
 859 312 859 312 907 312 c 2,26,-1
 1219 312 l 1,27,-1
 1219 16 l 1,0,-1
EndSplineSet
Substitution2: "VowelB-1" u16F5D.B
Substitution2: "VowelR-1" u16F5D.R
Substitution2: "VowelT-1" u16F5D.T
Substitution2: "VowelA-1" u16F5D.A
EndChar

StartChar: u16F5E
Encoding: 89 94046 89
Width: 1477
VWidth: 4000
GlyphClass: 2
Flags: W
AnchorPoint: "F" 0 0 entry 0
AnchorPoint: "V" 1477 0 exit 0
AnchorPoint: "V" 0 0 entry 0
LayerCount: 2
Back
Fore
SplineSet
614 220 m 2,0,-1
 1294 220 l 1,1,-1
 1294 -76 l 1,2,-1
 610 -76 l 2,3,4
 434.317 -76 434.317 -76 307.5 33 c 0,5,6
 174 147.744 174 147.744 174 326.256 c 128,-1,7
 174 504.768 174 504.768 322 596 c 1,8,9
 174 697.485 174 697.485 174 876 c 0,10,11
 174 1047.33 174 1047.33 314 1154 c 0,12,13
 442.625 1252 442.625 1252 618 1252 c 2,14,-1
 1294 1252 l 1,15,-1
 1294 964 l 1,16,-1
 610 964 l 2,17,18
 489.5 964 489.5 964 490 856 c 0,19,20
 489.734 739.991 489.734 739.991 610 740 c 2,21,-1
 962 740 l 1,22,-1
 962 472 l 1,23,-1
 610 472 l 2,24,25
 505 472 505 472 505 342 c 0,26,27
 505 220 505 220 614 220 c 2,0,-1
EndSplineSet
Substitution2: "VowelB-1" u16F5E.B
Substitution2: "VowelR-1" u16F5E.R
Substitution2: "VowelT-1" u16F5E.T
Substitution2: "VowelA-1" u16F5E.A
EndChar

StartChar: u16F5F
Encoding: 90 94047 90
Width: 1749
VWidth: 4000
GlyphClass: 2
Flags: W
AnchorPoint: "F" 0 0 entry 0
AnchorPoint: "V" 1749 0 exit 0
AnchorPoint: "V" 0 0 entry 0
LayerCount: 2
Back
Fore
SplineSet
1423 172 m 0,0,1
 1423 206 1423 206 1408.5 236.5 c 128,-1,2
 1394 267 1394 267 1370 290 c 128,-1,3
 1346 313 1346 313 1315 326.5 c 128,-1,4
 1284 340 1284 340 1251 340 c 128,-1,5
 1218 340 1218 340 1187.5 326 c 128,-1,6
 1157 312 1157 312 1134 289 c 128,-1,7
 1111 266 1111 266 1097 235.5 c 128,-1,8
 1083 205 1083 205 1083 172 c 0,9,10
 1083 137 1083 137 1095.5 104 c 128,-1,11
 1108 71 1108 71 1130.5 45 c 128,-1,12
 1153 19 1153 19 1183.5 3.5 c 128,-1,13
 1214 -12 1214 -12 1251 -12 c 0,14,15
 1287 -12 1287 -12 1318.5 3.5 c 128,-1,16
 1350 19 1350 19 1373.5 45 c 128,-1,17
 1397 71 1397 71 1410 104 c 128,-1,18
 1423 137 1423 137 1423 172 c 0,0,1
1291 1040 m 1,19,-1
 607 1040 l 2,20,21
 553 1040 553 1040 520 1014.5 c 128,-1,22
 487 989 487 989 487 932 c 0,23,24
 487 909 487 909 496.5 888.5 c 128,-1,25
 506 868 506 868 522.5 851.5 c 128,-1,26
 539 835 539 835 559.5 825.5 c 128,-1,27
 580 816 580 816 603 816 c 2,28,-1
 959 816 l 1,29,-1
 959 548 l 1,30,-1
 603 548 l 2,31,32
 578 548 578 548 557.5 536.5 c 128,-1,33
 537 525 537 525 522 507 c 128,-1,34
 507 489 507 489 499 466 c 128,-1,35
 491 443 491 443 491 420 c 0,36,37
 491 361 491 361 521.5 330.5 c 0,38,39
 551.445 300.555 551.445 300.555 611 300 c 2,40,-1
 926 297 l 1,41,42
 931.904 298.273 931.904 298.273 935.5 306 c 0,43,44
 964 368 964 368 1011.5 414.5 c 128,-1,45
 1059 461 1059 461 1121 488.5 c 128,-1,46
 1183 516 1183 516 1251 516 c 0,47,48
 1321 516 1321 516 1385 489 c 128,-1,49
 1449 462 1449 462 1498.5 415 c 128,-1,50
 1548 368 1548 368 1577.5 305.5 c 128,-1,51
 1607 243 1607 243 1607 172 c 0,52,53
 1607 99 1607 99 1579 33 c 128,-1,54
 1551 -33 1551 -33 1502.5 -83 c 128,-1,55
 1454 -133 1454 -133 1389 -162.5 c 128,-1,56
 1324 -192 1324 -192 1251 -192 c 0,57,58
 1177 -192 1177 -192 1114 -161.5 c 0,59,60
 1071.73 -141.035 1071.73 -141.035 1005 -80 c 0,61,62
 973.7 -51.3682 973.7 -51.3682 947 0 c 1,63,-1
 603 0 l 2,64,65
 519 0 519 0 441 29 c 128,-1,66
 363 58 363 58 303 110 c 128,-1,67
 243 162 243 162 207 235 c 128,-1,68
 171 308 171 308 171 396 c 0,69,70
 171 482 171 482 208 554 c 128,-1,71
 245 626 245 626 319 672 c 1,72,73
 247 720 247 720 209 793 c 128,-1,74
 171 866 171 866 171 952 c 0,75,76
 171 1042 171 1042 199 1106 c 128,-1,77
 227 1170 227 1170 275.5 1212.5 c 128,-1,78
 324 1255 324 1255 387.5 1280 c 128,-1,79
 451 1305 451 1305 522.5 1317.5 c 128,-1,80
 594 1330 594 1330 668 1333.5 c 0,81,82
 744.933 1337.14 744.933 1337.14 811 1337 c 2,83,-1
 1287 1336 l 1,84,-1
 1291 1040 l 1,19,-1
EndSplineSet
Substitution2: "VowelB-1" u16F5F.B
Substitution2: "VowelR-1" u16F5F.R
Substitution2: "VowelT-1" u16F5F.T
Substitution2: "VowelA-1" u16F5F.A
EndChar

StartChar: u16F60
Encoding: 91 94048 91
Width: 1371
VWidth: 4000
GlyphClass: 2
Flags: W
AnchorPoint: "F" 0 0 entry 0
AnchorPoint: "V" 1371 0 exit 0
AnchorPoint: "V" 0 0 entry 0
LayerCount: 2
Back
Fore
SplineSet
1214 940 m 1,0,-1
 686 940 l 2,1,2
 646 940 646 940 605 928 c 128,-1,3
 564 916 564 916 530.5 893 c 128,-1,4
 497 870 497 870 475.5 835.5 c 128,-1,5
 454 801 454 801 454 756 c 0,6,7
 454 714 454 714 473 680 c 128,-1,8
 492 646 492 646 523 622 c 128,-1,9
 554 598 554 598 592.5 585 c 128,-1,10
 631 572 631 572 670 572 c 2,11,-1
 1058 572 l 1,12,-1
 1058 -152 l 1,13,-1
 766 -152 l 1,14,-1
 766 268 l 1,15,16
 647 268 647 268 536 293.5 c 128,-1,17
 425 319 425 319 339 376.5 c 128,-1,18
 253 434 253 434 201.5 527 c 128,-1,19
 150 620 150 620 150 756 c 0,20,21
 150 868 150 868 194 957.5 c 128,-1,22
 238 1047 238 1047 312 1110 c 128,-1,23
 386 1173 386 1173 483 1206.5 c 128,-1,24
 580 1240 580 1240 686 1240 c 2,25,-1
 1214 1240 l 1,26,-1
 1214 940 l 1,0,-1
EndSplineSet
Substitution2: "VowelB-1" u16F60.B
Substitution2: "VowelR-1" u16F60.R
Substitution2: "VowelA-1" u16F60.A
Substitution2: "VowelT-1" u16F60.T
EndChar

StartChar: u16F61
Encoding: 92 94049 92
Width: 1421
VWidth: 4000
GlyphClass: 2
Flags: W
AnchorPoint: "F" 0 0 entry 0
AnchorPoint: "V" 1421 0 exit 0
AnchorPoint: "V" 0 0 entry 0
LayerCount: 2
Back
Fore
SplineSet
1244 -4 m 1,0,-1
 944 -4 l 1,1,-1
 944 564 l 2,2,3
 944 610 944 610 925.5 651 c 128,-1,4
 907 692 907 692 875.5 722.5 c 128,-1,5
 844 753 844 753 803 770.5 c 128,-1,6
 762 788 762 788 716 788 c 0,7,8
 667 788 667 788 623.5 770.5 c 128,-1,9
 580 753 580 753 547 722 c 128,-1,10
 514 691 514 691 495 648.5 c 128,-1,11
 476 606 476 606 476 556 c 2,12,-1
 476 -4 l 1,13,-1
 176 -4 l 1,14,-1
 176 576 l 2,15,16
 176 686 176 686 218 779.5 c 128,-1,17
 260 873 260 873 332 940.5 c 128,-1,18
 404 1008 404 1008 500 1046 c 128,-1,19
 596 1084 596 1084 704 1084 c 4,20,21
 818 1084 818 1084 916.5 1044 c 128,-1,22
 1015 1004 1015 1004 1087.5 932.5 c 128,-1,23
 1160 861 1160 861 1202 763.5 c 128,-1,24
 1244 666 1244 666 1244 552 c 2,25,-1
 1244 -4 l 1,0,-1
EndSplineSet
Substitution2: "VowelB-1" u16F61.B
Substitution2: "VowelR-1" u16F61.R
Substitution2: "VowelA-1" u16F61.A
Substitution2: "VowelT-1" u16F61.T
EndChar

StartChar: u16F62
Encoding: 93 94050 93
Width: 1730
VWidth: 4000
GlyphClass: 2
Flags: W
AnchorPoint: "F" 0 0 entry 0
AnchorPoint: "V" 1730 0 exit 0
AnchorPoint: "V" 0 0 entry 0
LayerCount: 2
Back
Fore
SplineSet
1586 140 m 1,0,-1
 866 140 l 1,1,2
 867 191 867 191 869 240.5 c 128,-1,3
 871 290 871 290 871 341 c 0,4,5
 871 375 871 375 869.5 418 c 128,-1,6
 868 461 868 461 861.5 505.5 c 128,-1,7
 855 550 855 550 842.5 592 c 128,-1,8
 830 634 830 634 807.5 667 c 128,-1,9
 785 700 785 700 751.5 720 c 128,-1,10
 718 740 718 740 670 740 c 0,11,12
 625 740 625 740 588.5 719.5 c 128,-1,13
 552 699 552 699 526.5 666 c 128,-1,14
 501 633 501 633 487.5 591.5 c 128,-1,15
 474 550 474 550 474 508 c 2,16,-1
 474 -8 l 1,17,-1
 174 -8 l 1,18,-1
 174 508 l 2,19,20
 174 614 174 614 209 711.5 c 128,-1,21
 244 809 244 809 308.5 884 c 128,-1,22
 373 959 373 959 463.5 1003.5 c 128,-1,23
 554 1048 554 1048 666 1048 c 0,24,25
 774 1048 774 1048 863 1006.5 c 128,-1,26
 952 965 952 965 1016 894.5 c 128,-1,27
 1080 824 1080 824 1115 730 c 128,-1,28
 1150 636 1150 636 1150 532 c 2,29,-1
 1150 432 l 1,30,-1
 1586 428 l 1,31,-1
 1586 140 l 1,0,-1
EndSplineSet
Substitution2: "VowelB-1" u16F62.B
Substitution2: "VowelR-1" u16F62.R
Substitution2: "VowelA-1" u16F62.A
Substitution2: "VowelT-1" u16F62.T
EndChar

StartChar: u16F63
Encoding: 94 94051 94
Width: 1818
VWidth: 4000
GlyphClass: 2
Flags: W
AnchorPoint: "F" 0 0 entry 0
AnchorPoint: "V" 1818 0 exit 0
AnchorPoint: "V" 0 0 entry 0
LayerCount: 2
Back
Fore
SplineSet
1729 -334 m 1,0,1
 1788.2 -511.51 l 1,2,3
 1735.7 -597.855 1735.7 -597.855 1558.2 -619 c 0,4,5
 1451.74 -631.682 1451.74 -631.682 1313.75 -564.75 c 0,6,7
 1170.26 -495.168 1170.26 -495.168 1173.2 -293 c 4,8,9
 1177.2 -17.51 1177.2 -17.51 1328.2 138.49 c 1,10,-1
 866 140 l 1,11,12
 867 191 867 191 869 240.5 c 128,-1,13
 871 290 871 290 871 341 c 0,14,15
 871 375 871 375 869.5 418 c 128,-1,16
 868 461 868 461 861.5 505.5 c 128,-1,17
 855 550 855 550 842.5 592 c 128,-1,18
 830 634 830 634 807.5 667 c 128,-1,19
 785 700 785 700 751.5 720 c 128,-1,20
 718 740 718 740 670 740 c 0,21,22
 625 740 625 740 588.5 719.5 c 128,-1,23
 552 699 552 699 526.5 666 c 128,-1,24
 501 633 501 633 487.5 591.5 c 128,-1,25
 474 550 474 550 474 508 c 2,26,-1
 474 -8 l 1,27,-1
 174 -8 l 1,28,-1
 174 508 l 2,29,30
 174 614 174 614 209 711.5 c 128,-1,31
 244 809 244 809 308.5 884 c 128,-1,32
 373 959 373 959 463.5 1003.5 c 128,-1,33
 554 1048 554 1048 666 1048 c 0,34,35
 774 1048 774 1048 863 1006.5 c 128,-1,36
 952 965 952 965 1016 894.5 c 128,-1,37
 1080 824 1080 824 1115 730 c 128,-1,38
 1150 636 1150 636 1150 532 c 2,39,-1
 1150 432 l 1,40,-1
 1586 428 l 1,41,-1
 1586 140 l 1,42,43
 1399.18 -107.431 1399.18 -107.431 1397.99 -263.944 c 0,44,45
 1397.28 -357.667 1397.28 -357.667 1513.2 -404 c 0,46,47
 1559.52 -422.512 1559.52 -422.512 1598.2 -414 c 0,48,49
 1662.47 -399.621 1662.47 -399.621 1729 -334 c 1,0,1
EndSplineSet
Substitution2: "VowelB-1" u16F63.B
Substitution2: "VowelR-1" u16F63.R
Substitution2: "VowelA-1" u16F63.A
Substitution2: "VowelT-1" u16F63.T
EndChar

StartChar: u16F64
Encoding: 95 94052 95
Width: 1818
VWidth: 4000
GlyphClass: 2
Flags: W
AnchorPoint: "F" 0 0 entry 0
AnchorPoint: "V" 1818 0 exit 0
AnchorPoint: "V" 0 0 entry 0
LayerCount: 2
Back
Fore
SplineSet
871 341 m 1,0,1
 871 740 871 740 670 740 c 0,2,3
 583.682 740 583.682 740 526.5 666 c 0,4,5
 474 598.059 474 598.059 474 508 c 2,6,-1
 474 -8 l 1,7,-1
 174 -8 l 1,8,-1
 174 508 l 2,9,10
 174 727.605 174 727.605 308.5 884 c 0,11,12
 449.54 1048 449.54 1048 666 1048 c 0,13,14
 876.652 1048 876.652 1048 1016 894.5 c 0,15,16
 1150 746.891 1150 746.891 1150 532 c 2,17,-1
 1150 432 l 1,18,-1
 1586 428 l 1,19,-1
 1579.7 141.008 l 1,20,21
 1548 92 l 2,22,23
 1454.59 -52.3652 1454.59 -52.3652 1439 -81 c 1,24,25
 1486 -50 1486 -50 1553.5 -50 c 0,26,27
 1669.26 -50 1669.26 -50 1760.08 -120.887 c 128,-1,28
 1850.9 -191.774 1850.9 -191.774 1855.95 -306.887 c 128,-1,29
 1861 -422 1861 -422 1770.5 -500.5 c 128,-1,30
 1680 -579 1680 -579 1548.5 -586 c 128,-1,31
 1417 -593 1417 -593 1315.5 -513.5 c 128,-1,32
 1214 -434 1214 -434 1214 -293 c 0,33,34
 1214 -31.208 1214 -31.208 1380.78 140.718 c 1,35,-1
 866 140 l 1,36,-1
 871 341 l 1,0,1
1696 -313 m 0,37,38
 1692.25 -260.512 1692.25 -260.512 1646.63 -233.256 c 128,-1,39
 1601 -206 1601 -206 1558 -206 c 0,40,41
 1484.25 -206 1484.25 -206 1441.12 -231 c 128,-1,42
 1398 -256 1398 -256 1393 -294 c 0,43,44
 1384.57 -358.098 1384.57 -358.098 1443.28 -404.549 c 128,-1,45
 1502 -451 1502 -451 1580.04 -429.422 c 0,46,47
 1701.91 -395.729 1701.91 -395.729 1696 -313 c 0,37,38
EndSplineSet
Substitution2: "VowelB-1" u16F64.B
Substitution2: "VowelR-1" u16F64.R
Substitution2: "VowelT-1" u16F64.T
Substitution2: "VowelA-1" u16F64.A
EndChar

StartChar: u16F65
Encoding: 96 94053 96
Width: 2108
VWidth: 4000
GlyphClass: 2
Flags: W
AnchorPoint: "F" 0 0 entry 0
AnchorPoint: "V" 2108 0 exit 0
AnchorPoint: "V" 0 0 entry 0
LayerCount: 2
Back
Fore
SplineSet
1699 409 m 128,-1,1
 1696 453 1696 453 1674 484.5 c 128,-1,2
 1652 516 1652 516 1618 536 c 0,3,4
 1551 577 1551 577 1483.5 577 c 128,-1,5
 1416 577 1416 577 1377 568.5 c 128,-1,6
 1338 560 1338 560 1306 541 c 0,7,8
 1234 498 1234 498 1227 439 c 0,9,10
 1224 422 1224 422 1224 406 c 0,11,12
 1224 369 1224 369 1238 344 c 1,13,14
 1256 307 1256 307 1289 280 c 0,15,16
 1363 221 1363 221 1454 221 c 0,17,18
 1497 221 1497 221 1544 234 c 0,19,20
 1640 261 1640 261 1671 313 c 128,-1,0
 1702 365 1702 365 1699 409 c 128,-1,1
1290 788 m 0,21,22
 1381 820 1381 820 1477 820 c 0,23,24
 1583 820 1583 820 1663.5 790.5 c 128,-1,25
 1744 761 1744 761 1806 708 c 1,26,27
 1942 595 1942 595 1950 420 c 0,28,29
 1957.92 240.696 1957.92 240.696 1812 113 c 0,30,31
 1682.86 -1.55469 1682.86 -1.55469 1436 -16 c 0,32,33
 1229.87 -28.8848 1229.87 -28.8848 1062 92 c 0,34,35
 938.8 180.106 938.8 180.106 945.63 428.827 c 1,36,-1
 944 564 l 2,37,38
 943.45 609.949 943.45 609.949 926 651 c 1,39,40
 907 692 907 692 875.5 722.5 c 128,-1,41
 844 753 844 753 803 770.5 c 128,-1,42
 762 788 762 788 716 788 c 0,43,44
 667 788 667 788 623.5 770.5 c 128,-1,45
 580 753 580 753 547 722 c 128,-1,46
 514 691 514 691 495 648.5 c 128,-1,47
 476 606 476 606 476 556 c 2,48,-1
 476 -4 l 1,49,-1
 176 -4 l 1,50,-1
 176 576 l 2,51,52
 176 686 176 686 218 779.5 c 128,-1,53
 260 873 260 873 332 940.5 c 128,-1,54
 404 1008 404 1008 500 1046 c 128,-1,55
 596 1084 596 1084 704 1084 c 0,56,57
 818 1084 818 1084 916.5 1044 c 128,-1,58
 1015 1004 1015 1004 1087.5 932.5 c 0,59,60
 1161.02 859.988 1161.02 859.988 1202 764 c 2,61,-1
 1206.23 754.097 l 1,62,63
 1245.2 772.038 1245.2 772.038 1290 788 c 0,21,22
EndSplineSet
Substitution2: "VowelB-1" u16F65.B
Substitution2: "VowelR-1" u16F65.R
Substitution2: "VowelT-1" u16F65.T
Substitution2: "VowelA-1" u16F65.A
EndChar

StartChar: u16F66
Encoding: 97 94054 97
Width: 1413
VWidth: 4000
GlyphClass: 2
Flags: W
AnchorPoint: "F" 0 0 entry 0
AnchorPoint: "V" 1413 0 exit 0
AnchorPoint: "V" 0 0 entry 0
LayerCount: 2
Back
Fore
SplineSet
1227 644 m 1,0,-1
 175 644 l 1,1,-1
 175 944 l 1,2,-1
 1227 944 l 1,3,-1
 1227 644 l 1,0,-1
1227 80 m 1,4,-1
 175 80 l 1,5,-1
 175 376 l 1,6,-1
 1227 376 l 1,7,-1
 1227 80 l 1,4,-1
EndSplineSet
Substitution2: "VowelB-1" u16F66.B
Substitution2: "VowelR-1" u16F66.R
Substitution2: "VowelT-1" u16F66.T
Substitution2: "VowelA-1" u16F66.A
EndChar

StartChar: u16F67
Encoding: 98 94055 98
Width: 1706
VWidth: 4000
GlyphClass: 2
Flags: W
AnchorPoint: "F" 0 0 entry 0
AnchorPoint: "V" 1706 0 exit 0
AnchorPoint: "V" 0 0 entry 0
LayerCount: 2
Back
Fore
SplineSet
1523 0 m 1,0,-1
 1231 4 l 1,1,-1
 1231 684 l 2,2,3
 1231 708 1231 708 1220.5 730 c 128,-1,4
 1210 752 1210 752 1193 768.5 c 128,-1,5
 1176 785 1176 785 1153.5 794.5 c 128,-1,6
 1131 804 1131 804 1107 804 c 0,7,8
 1082 804 1082 804 1058.5 796 c 128,-1,9
 1035 788 1035 788 1016.5 773 c 128,-1,10
 998 758 998 758 986.5 736.5 c 128,-1,11
 975 715 975 715 975 688 c 2,12,-1
 975 332 l 1,13,-1
 703 332 l 1,14,-1
 703 688 l 2,15,16
 703 711 703 711 694 733 c 128,-1,17
 685 755 685 755 669 771.5 c 128,-1,18
 653 788 653 788 632 798 c 128,-1,19
 611 808 611 808 587 808 c 0,20,21
 530 808 530 808 504.5 775 c 128,-1,22
 479 742 479 742 479 688 c 2,23,-1
 479 0 l 1,24,-1
 179 4 l 1,25,-1
 178 651 l 2,26,27
 178 757 178 757 197.5 844.5 c 128,-1,28
 217 932 217 932 265 994 c 128,-1,29
 313 1056 313 1056 393 1090.5 c 128,-1,30
 473 1125 473 1125 595 1125 c 0,31,32
 635 1125 635 1125 671.5 1113.5 c 128,-1,33
 708 1102 708 1102 740.5 1082 c 128,-1,34
 773 1062 773 1062 801 1034.5 c 128,-1,35
 829 1007 829 1007 851 976 c 1,36,37
 898 1051 898 1051 971 1087.5 c 128,-1,38
 1044 1124 1044 1124 1131 1124 c 0,39,40
 1221 1124 1221 1124 1293.5 1087.5 c 128,-1,41
 1366 1051 1366 1051 1417 990.5 c 128,-1,42
 1468 930 1468 930 1495.5 851 c 128,-1,43
 1523 772 1523 772 1523 688 c 2,44,-1
 1523 0 l 1,0,-1
EndSplineSet
Substitution2: "VowelB-1" u16F67.B
Substitution2: "VowelR-1" u16F67.R
Substitution2: "VowelT-1" u16F67.T
Substitution2: "VowelA-1" u16F67.A
EndChar

StartChar: u16F68
Encoding: 99 94056 99
Width: 1817
VWidth: 4000
GlyphClass: 2
Flags: W
AnchorPoint: "F" 0 0 entry 0
AnchorPoint: "V" 1817 0 exit 0
AnchorPoint: "V" 0 0 entry 0
LayerCount: 2
Back
Fore
SplineSet
1633 1116 m 1,0,-1
 1629 420 l 2,1,2
 1629 333 1629 333 1592.5 252 c 128,-1,3
 1556 171 1556 171 1494.5 109 c 128,-1,4
 1433 47 1433 47 1353 9.5 c 128,-1,5
 1273 -28 1273 -28 1185 -28 c 0,6,7
 1142 -28 1142 -28 1092.5 -22.5 c 128,-1,8
 1043 -17 1043 -17 994.5 -3.5 c 128,-1,9
 946 10 946 10 900.5 31 c 128,-1,10
 855 52 855 52 820.5 83.5 c 128,-1,11
 786 115 786 115 765.5 156.5 c 128,-1,12
 745 198 745 198 745 252 c 0,13,14
 745 307 745 307 752 362 c 128,-1,15
 759 417 759 417 767 472 c 128,-1,16
 775 527 775 527 782 581.5 c 128,-1,17
 789 636 789 636 789 692 c 0,18,19
 789 729 789 729 781.5 761 c 128,-1,20
 774 793 774 793 756.5 817 c 128,-1,21
 739 841 739 841 710.5 854.5 c 128,-1,22
 682 868 682 868 641 868 c 0,23,24
 595 868 595 868 564 835 c 128,-1,25
 533 802 533 802 513 749.5 c 128,-1,26
 493 697 493 697 482 632.5 c 128,-1,27
 471 568 471 568 466.5 505.5 c 128,-1,28
 462 443 462 443 461 389 c 128,-1,29
 460 335 460 335 460 304 c 0,30,31
 460 228 460 228 463.5 152 c 128,-1,32
 467 76 467 76 469 0 c 1,33,-1
 177 0 l 1,34,-1
 177 632 l 2,35,36
 177 690 177 690 194.5 752.5 c 128,-1,37
 212 815 212 815 244 874.5 c 128,-1,38
 276 934 276 934 320 987.5 c 128,-1,39
 364 1041 364 1041 416.5 1081 c 128,-1,40
 469 1121 469 1121 528 1144.5 c 128,-1,41
 587 1168 587 1168 649 1168 c 0,42,43
 731 1168 731 1168 808 1144.5 c 128,-1,44
 885 1121 885 1121 945 1075.5 c 128,-1,45
 1005 1030 1005 1030 1041 962 c 128,-1,46
 1077 894 1077 894 1077 804 c 0,47,48
 1077 759 1077 759 1070.5 714.5 c 128,-1,49
 1064 670 1064 670 1056.5 626 c 128,-1,50
 1049 582 1049 582 1043 537.5 c 128,-1,51
 1037 493 1037 493 1037 448 c 0,52,53
 1037 407 1037 407 1044 368.5 c 128,-1,54
 1051 330 1051 330 1069 299.5 c 128,-1,55
 1087 269 1087 269 1118 250.5 c 128,-1,56
 1149 232 1149 232 1197 232 c 0,57,58
 1249 232 1249 232 1277 252.5 c 128,-1,59
 1305 273 1305 273 1317.5 305.5 c 128,-1,60
 1330 338 1330 338 1331.5 378.5 c 128,-1,61
 1333 419 1333 419 1333 458 c 2,62,-1
 1333 1116 l 1,63,-1
 1633 1116 l 1,0,-1
EndSplineSet
Substitution2: "VowelB-1" u16F68.B
Substitution2: "VowelR-1" u16F68.R
Substitution2: "VowelT-1" u16F68.T
Substitution2: "VowelA-1" u16F68.A
EndChar

StartChar: u16F69
Encoding: 100 94057 100
Width: 1998
VWidth: 4000
GlyphClass: 2
Flags: W
AnchorPoint: "F" 0 0 entry 0
AnchorPoint: "V" 1998 0 exit 0
AnchorPoint: "V" 0 0 entry 0
LayerCount: 2
Back
Fore
SplineSet
1477 239 m 0,0,1
 1950 239 1950 239 1950 -161 c 0,2,3
 1950 -594 1950 -594 1478 -597 c 1,4,5
 946 -599 946 -599 946 -141 c 1,6,7
 944 239 944 239 1477 239 c 0,0,1
1696 -175 m 1,8,9
 1695 -1 1695 -1 1496 0 c 0,10,11
 1226 2 1226 2 1224 -170 c 1,12,13
 1224 -351 1224 -351 1496 -351 c 1,14,15
 1696 -350 1696 -350 1696 -175 c 1,8,9
1238 54 m 1,16,-1
 946 -116 l 1,17,-1
 944 564 l 2,18,19
 944 610 944 610 926 651 c 0,20,21
 907 692 907 692 875.5 722.5 c 128,-1,22
 844 753 844 753 803 770.5 c 128,-1,23
 762 788 762 788 716 788 c 0,24,25
 667 788 667 788 623.5 770.5 c 128,-1,26
 580 753 580 753 547 722 c 128,-1,27
 514 691 514 691 495 648.5 c 128,-1,28
 476 606 476 606 476 556 c 2,29,-1
 476 -4 l 1,30,-1
 176 -4 l 1,31,-1
 176 576 l 2,32,33
 176 686 176 686 218 779.5 c 128,-1,34
 260 873 260 873 332 940.5 c 128,-1,35
 404 1008 404 1008 500 1046 c 128,-1,36
 596 1084 596 1084 704 1084 c 0,37,38
 818 1084 818 1084 916.5 1044 c 128,-1,39
 1015 1004 1015 1004 1087.5 932.5 c 128,-1,40
 1160 861 1160 861 1202 764 c 0,41,42
 1245 664 1245 664 1244 552 c 2,43,-1
 1238 54 l 1,16,-1
EndSplineSet
Substitution2: "VowelB-1" u16F69.B
Substitution2: "VowelR-1" u16F69.R
Substitution2: "VowelT-1" u16F69.T
Substitution2: "VowelA-1" u16F69.A
EndChar

StartChar: u16F6A
Encoding: 101 94058 101
Width: 1448
VWidth: 4000
GlyphClass: 2
Flags: W
AnchorPoint: "F" 0 0 entry 0
AnchorPoint: "V" 1448 0 exit 0
AnchorPoint: "V" 0 0 entry 0
LayerCount: 2
Back
Fore
SplineSet
1265 782 m 0,0,1
 1265 679 1265 679 1260 576.5 c 128,-1,2
 1255 474 1255 474 1237 381 c 128,-1,3
 1219 288 1219 288 1183.5 208 c 128,-1,4
 1148 128 1148 128 1086 69.5 c 128,-1,5
 1024 11 1024 11 932 -22.5 c 128,-1,6
 840 -56 840 -56 709 -56 c 0,7,8
 568 -56 568 -56 466 -23.5 c 128,-1,9
 364 9 364 9 299 76 c 128,-1,10
 234 143 234 143 203 246 c 128,-1,11
 172 349 172 349 172 489 c 2,12,-1
 172 908 l 1,13,-1
 173 1076 l 1,14,-1
 469 1072 l 1,15,16
 470 921 470 921 470.5 772 c 128,-1,17
 471 623 471 623 473 472 c 0,18,19
 475 357 475 357 529 296.5 c 128,-1,20
 583 236 583 236 701 236 c 0,21,22
 760 236 760 236 807 250 c 128,-1,23
 854 264 854 264 886.5 292.5 c 128,-1,24
 919 321 919 321 936 365.5 c 128,-1,25
 953 410 953 410 953 472 c 2,26,-1
 953 1076 l 1,27,-1
 1257 1072 l 1,28,29
 1262 1000 1262 1000 1263.5 927.5 c 128,-1,30
 1265 855 1265 855 1265 782 c 0,0,1
EndSplineSet
Substitution2: "VowelB-1" u16F6A.B
Substitution2: "VowelR-1" u16F6A.R
Substitution2: "VowelT-1" u16F6A.T
Substitution2: "VowelA-1" u16F6A.A
EndChar

StartChar: u16F6B
Encoding: 102 94059 102
Width: 1769
VWidth: 4000
GlyphClass: 2
Flags: W
AnchorPoint: "F" 0 0 entry 0
AnchorPoint: "V" 1769 0 exit 0
AnchorPoint: "V" 0 0 entry 0
LayerCount: 2
Back
Fore
SplineSet
1590 596 m 1,0,-1
 1170 596 l 1,1,-1
 1170 496 l 2,2,3
 1170 282.054 1170 282.054 1030.62 133.027 c 128,-1,4
 891.25 -16 891.25 -16 672.838 -16 c 128,-1,5
 454.432 -16 454.432 -16 312.216 140.117 c 128,-1,6
 170 296.233 170 296.233 170 520 c 2,7,-1
 170 1084 l 1,8,-1
 494 1084 l 1,9,-1
 494 520 l 2,10,11
 494 288 494 288 684.5 288 c 0,12,13
 866 288 866 288 866 504 c 2,14,-1
 866 892 l 1,15,-1
 1590 892 l 1,16,-1
 1590 596 l 1,0,-1
EndSplineSet
Substitution2: "VowelB-1" u16F6B.B
Substitution2: "VowelR-1" u16F6B.R
Substitution2: "VowelT-1" u16F6B.T
Substitution2: "VowelA-1" u16F6B.A
EndChar

StartChar: u16F6C
Encoding: 103 94060 103
Width: 2475
VWidth: 4000
GlyphClass: 2
Flags: W
AnchorPoint: "F" 0 0 entry 0
AnchorPoint: "V" 2475 0 exit 0
AnchorPoint: "V" 0 0 entry 0
LayerCount: 2
Back
Fore
SplineSet
866 1069 m 1,0,-1
 2086 1067 l 1,1,2
 2079 1062 2079 1062 1801 786 c 0,3,4
 1570 557 1570 557 1535 402 c 1,5,6
 1535 156 1535 156 1823 156 c 0,7,8
 1828 156 1828 156 1834 156 c 0,9,10
 1988 150 1988 150 2096 355 c 1,11,-1
 2323 353 l 1,12,13
 2319 171 2319 171 2179 50.5 c 128,-1,14
 2039 -70 2039 -70 1833.5 -81.5 c 128,-1,15
 1628 -93 1628 -93 1469 32 c 128,-1,16
 1310 157 1310 157 1310 376 c 0,17,18
 1310 621 1310 621 1495 773 c 1,19,-1
 1170 773 l 1,20,-1
 1170 496 l 2,21,22
 1170 -16 1170 -16 678 -16 c 0,23,24
 170 -16 170 -16 170 520 c 2,25,-1
 170 1084 l 1,26,-1
 494 1084 l 1,27,-1
 494 520 l 2,28,29
 494 288 494 288 686 288 c 0,30,31
 866 288 866 288 866 504 c 2,32,-1
 866 1069 l 1,0,-1
EndSplineSet
Substitution2: "VowelB-1" u16F6C.B
Substitution2: "VowelR-1" u16F6C.R
Substitution2: "VowelT-1" u16F6C.T
Substitution2: "VowelA-1" u16F6C.A
EndChar

StartChar: u16F6D
Encoding: 104 94061 104
Width: 2290
VWidth: 4000
GlyphClass: 2
Flags: W
AnchorPoint: "F" 0 0 entry 0
AnchorPoint: "V" 2290 0 exit 0
AnchorPoint: "V" 0 0 entry 0
LayerCount: 2
Back
Fore
SplineSet
1866.87 451.799 m 128,-1,1
 1810 486 1810 486 1737.13 486 c 128,-1,2
 1664.27 486 1664.27 486 1610.63 454.5 c 128,-1,3
 1557 423 1557 423 1549.03 359.918 c 128,-1,4
 1541.06 296.837 1541.06 296.837 1600.12 249.08 c 128,-1,5
 1659.18 201.324 1659.18 201.324 1713 201.324 c 128,-1,6
 1766.82 201.324 1766.82 201.324 1823.91 217.162 c 128,-1,7
 1881 233 1881 233 1906 274.5 c 128,-1,8
 1931 316 1931 316 1927.37 366.799 c 128,-1,0
 1923.74 417.597 1923.74 417.597 1866.87 451.799 c 128,-1,1
1608 642 m 1,9,10
 1667 680 1667 680 1788.02 680 c 128,-1,11
 1909.05 680 1909.05 680 2019.67 586.932 c 128,-1,12
 2130.29 493.865 2130.29 493.865 2130.29 351.969 c 128,-1,13
 2130.29 210.073 2130.29 210.073 2014.48 110.151 c 128,-1,14
 1898.68 10.2285 1898.68 10.2285 1734.07 10.2285 c 128,-1,15
 1569.46 10.2285 1569.46 10.2285 1447.73 105.614 c 128,-1,16
 1326 201 1326 201 1326 395.5 c 128,-1,17
 1326 590 1326 590 1434 780 c 1,18,-1
 1170 780 l 1,19,-1
 1170 496 l 2,20,21
 1170 282.054 1170 282.054 1030.62 133.027 c 128,-1,22
 891.25 -16 891.25 -16 672.838 -16 c 128,-1,23
 454.432 -16 454.432 -16 312.216 140.117 c 128,-1,24
 170 296.233 170 296.233 170 520 c 2,25,-1
 170 1084 l 1,26,-1
 494 1084 l 1,27,-1
 494 520 l 2,28,29
 494 373.75 494 373.75 605 309 c 0,30,31
 641 288 641 288 702.975 288 c 128,-1,32
 764.951 288 764.951 288 815.475 353.574 c 128,-1,33
 866 419.149 866 419.149 866 504 c 2,34,-1
 866 1076 l 1,35,36
 1701 1076 1701 1076 1947 1070 c 1,37,38
 1793 924 1793 924 1731 839.5 c 128,-1,39
 1669 755 1669 755 1608 642 c 1,9,10
EndSplineSet
Substitution2: "VowelB-1" u16F6D.B
Substitution2: "VowelR-1" u16F6D.R
Substitution2: "VowelT-1" u16F6D.T
Substitution2: "VowelA-1" u16F6D.A
EndChar

StartChar: u16F6E
Encoding: 105 94062 105
Width: 1696
VWidth: 4000
GlyphClass: 2
Flags: W
AnchorPoint: "F" 0 0 entry 0
AnchorPoint: "V" 1696 0 exit 0
AnchorPoint: "V" 0 0 entry 0
LayerCount: 2
Back
Fore
SplineSet
1513 711 m 0,0,1
 1513 642 1513 642 1510.5 561.5 c 128,-1,2
 1508 481 1508 481 1496.5 400.5 c 128,-1,3
 1485 320 1485 320 1461 245.5 c 128,-1,4
 1437 171 1437 171 1394 114 c 128,-1,5
 1351 57 1351 57 1285 22.5 c 128,-1,6
 1219 -12 1219 -12 1124 -12 c 0,7,8
 1038 -12 1038 -12 965 26 c 128,-1,9
 892 64 892 64 844 136 c 1,10,11
 797 61 797 61 724 24.5 c 128,-1,12
 651 -12 651 -12 564 -12 c 256,13,14
 477 -12 477 -12 405 24.5 c 128,-1,15
 333 61 333 61 281 121.5 c 128,-1,16
 229 182 229 182 200.5 259.5 c 128,-1,17
 172 337 172 337 172 420 c 2,18,-1
 172 1112 l 1,19,-1
 472 1104 l 1,20,-1
 472 428 l 2,21,22
 472 371 472 371 500 337.5 c 128,-1,23
 528 304 528 304 588 304 c 0,24,25
 612 304 612 304 635.5 312.5 c 128,-1,26
 659 321 659 321 678 336.5 c 128,-1,27
 697 352 697 352 708.5 373 c 128,-1,28
 720 394 720 394 720 420 c 2,29,-1
 720 776 l 1,30,-1
 988 776 l 1,31,-1
 988 420 l 2,32,33
 988 397 988 397 997.5 376 c 128,-1,34
 1007 355 1007 355 1023 339 c 128,-1,35
 1039 323 1039 323 1060 313.5 c 128,-1,36
 1081 304 1081 304 1104 304 c 0,37,38
 1161 304 1161 304 1186.5 337 c 128,-1,39
 1212 370 1212 370 1212 424 c 2,40,-1
 1212 1112 l 1,41,-1
 1508 1104 l 1,42,43
 1508 1005 1508 1005 1510.5 907.5 c 128,-1,44
 1513 810 1513 810 1513 711 c 0,0,1
EndSplineSet
Substitution2: "VowelB-1" u16F6E.B
Substitution2: "VowelR-1" u16F6E.R
Substitution2: "VowelT-1" u16F6E.T
Substitution2: "VowelA-1" u16F6E.A
EndChar

StartChar: u16F6F
Encoding: 106 94063 106
Width: 1664
VWidth: 4000
GlyphClass: 2
Flags: W
AnchorPoint: "F" 0 0 entry 0
AnchorPoint: "V" 1664 0 exit 0
AnchorPoint: "V" 0 0 entry 0
LayerCount: 2
Back
Fore
SplineSet
1496 400 m 0,0,1
 1485 320 1485 320 1461 245.5 c 128,-1,2
 1437 171 1437 171 1394 114 c 128,-1,3
 1351 57 1351 57 1285 22.5 c 128,-1,4
 1219 -12 1219 -12 1124 -12 c 0,5,6
 1038 -12 1038 -12 965 26 c 128,-1,7
 892 64 892 64 844 136 c 1,8,9
 797 61 797 61 724 24.5 c 128,-1,10
 651 -12 651 -12 564 -12 c 256,11,12
 477 -12 477 -12 405 24.5 c 128,-1,13
 333 61 333 61 281 121.5 c 128,-1,14
 229 182 229 182 200.5 259.5 c 128,-1,15
 172 337 172 337 172 420 c 2,16,-1
 172 1112 l 1,17,-1
 472 1104 l 1,18,-1
 472 428 l 2,19,20
 472 371 472 371 500 337.5 c 128,-1,21
 528 304 528 304 588 304 c 0,22,23
 612 304 612 304 635.5 312.5 c 128,-1,24
 659 321 659 321 678 336.5 c 128,-1,25
 697 352 697 352 708.5 373 c 128,-1,26
 720 394 720 394 720 420 c 2,27,-1
 720 1101 l 1,28,-1
 988 1101 l 1,29,-1
 988 420 l 2,30,31
 988 397 988 397 997.5 376 c 128,-1,32
 1007 355 1007 355 1023 339 c 128,-1,33
 1039 323 1039 323 1060 313.5 c 128,-1,34
 1081 304 1081 304 1104 304 c 0,35,36
 1161 304 1161 304 1186.5 337 c 128,-1,37
 1212 370 1212 370 1212 424 c 2,38,-1
 1212 645 l 1,39,-1
 1508 637 l 1,40,41
 1512 510 1512 510 1496 400 c 0,0,1
EndSplineSet
Substitution2: "VowelB-1" u16F6F.B
Substitution2: "VowelR-1" u16F6F.R
Substitution2: "VowelT-1" u16F6F.T
Substitution2: "VowelA-1" u16F6F.A
EndChar

StartChar: u16F70
Encoding: 107 94064 107
Width: 2010
VWidth: 4000
GlyphClass: 2
Flags: W
AnchorPoint: "F" 0 0 entry 0
AnchorPoint: "V" 2010 0 exit 0
AnchorPoint: "V" 0 0 entry 0
LayerCount: 2
Back
Fore
SplineSet
1700 303 m 128,-1,1
 1700 460 1700 460 1469 460 c 0,2,3
 1236 460 1236 460 1236 303 c 128,-1,4
 1236 146 1236 146 1469 146 c 0,5,0
 1700 146 1700 146 1700 303 c 128,-1,1
1864 311.5 m 128,-1,7
 1864 -1 1864 -1 1469 -1 c 0,8,9
 1228 -1 1228 -1 1137 127 c 1,10,11
 1114 96 1114 96 1086 70 c 0,12,13
 1024 11 1024 11 932 -22.5 c 128,-1,14
 840 -56 840 -56 709 -56 c 0,15,16
 568 -56 568 -56 466 -23.5 c 128,-1,17
 364 9 364 9 299 76 c 128,-1,18
 234 143 234 143 203 246 c 128,-1,19
 172 349 172 349 172 489 c 2,20,-1
 172 908 l 1,21,-1
 173 1076 l 1,22,-1
 469 1072 l 1,23,24
 470 921 470 921 470.5 772 c 128,-1,25
 471 623 471 623 473 472 c 0,26,27
 475 357 475 357 529 296.5 c 128,-1,28
 583 236 583 236 701 236 c 0,29,30
 760 236 760 236 807 250 c 128,-1,31
 854 264 854 264 886.5 292.5 c 128,-1,32
 919 321 919 321 936 365.5 c 128,-1,33
 953 410 953 410 953 472 c 2,34,-1
 953 1076 l 1,35,-1
 1257 1072 l 1,36,37
 1262 1000 1262 1000 1263.5 927.5 c 128,-1,38
 1265 855 1265 855 1265 782 c 0,39,40
 1265 688 1265 688 1261 594 c 1,41,42
 1344 624 1344 624 1466 624 c 0,43,6
 1864 624 1864 624 1864 311.5 c 128,-1,7
EndSplineSet
Substitution2: "VowelB-1" u16F70.B
Substitution2: "VowelR-1" u16F70.R
Substitution2: "VowelT-1" u16F70.T
Substitution2: "VowelA-1" u16F70.A
EndChar

StartChar: u16F71
Encoding: 108 94065 108
Width: 1408
VWidth: 4000
GlyphClass: 2
Flags: W
AnchorPoint: "F" 0 0 entry 0
AnchorPoint: "V" 1408 0 exit 0
AnchorPoint: "V" 0 0 entry 0
LayerCount: 2
Back
Fore
SplineSet
179 1084 m 1,0,-1
 703 1084 l 2,1,2
 819 1084 819 1084 916.5 1042.5 c 128,-1,3
 1014 1001 1014 1001 1084.5 928.5 c 128,-1,4
 1155 856 1155 856 1195 757 c 128,-1,5
 1235 658 1235 658 1235 544 c 0,6,7
 1235 435 1235 435 1196.5 339 c 128,-1,8
 1158 243 1158 243 1090 171 c 128,-1,9
 1022 99 1022 99 928 57.5 c 128,-1,10
 834 16 834 16 723 16 c 2,11,-1
 179 16 l 1,12,-1
 179 316 l 1,13,-1
 719 316 l 2,14,15
 764 316 764 316 804 335 c 128,-1,16
 844 354 844 354 874 385.5 c 128,-1,17
 904 417 904 417 921.5 458.5 c 128,-1,18
 939 500 939 500 939 544 c 0,19,20
 939 610 939 610 919 654 c 128,-1,21
 899 698 899 698 865 725 c 128,-1,22
 831 752 831 752 786.5 765.5 c 128,-1,23
 742 779 742 779 692 784 c 128,-1,24
 642 789 642 789 590.5 788.5 c 128,-1,25
 539 788 539 788 491 788 c 2,26,-1
 179 788 l 1,27,-1
 179 1084 l 1,0,-1
EndSplineSet
Substitution2: "VowelB-1" u16F71.B
Substitution2: "VowelR-1" u16F71.R
Substitution2: "VowelT-1" u16F71.T
Substitution2: "VowelA-1" u16F71.A
EndChar

StartChar: u16F72
Encoding: 109 94066 109
Width: 1264
VWidth: 4000
GlyphClass: 2
Flags: W
AnchorPoint: "F" 0 0 entry 0
AnchorPoint: "V" 1264 0 exit 0
AnchorPoint: "V" 0 0 entry 0
LayerCount: 2
Back
Fore
SplineSet
743 653 m 1,0,1
 670 605 670 605 564 605 c 128,-1,2
 458 605 458 605 377.5 634.5 c 128,-1,3
 297 664 297 664 235 716 c 0,4,5
 99 830 99 830 91 1005 c 1,6,7
 90.6777 1013.34 90.6777 1013.34 90.6777 1021.55 c 0,8,9
 90.6777 1191.8 90.6777 1191.8 229 1312 c 1,10,11
 367 1430 367 1430 563 1441 c 0,12,13
 582.398 1442.08 582.398 1442.08 601.3 1442.08 c 0,14,15
 791.895 1442.08 791.895 1442.08 932 1332 c 0,16,17
 1095 1204 1095 1204 1095 985 c 0,18,19
 1095 607 1095 607 828 290 c 1,20,-1
 671 109 l 1,21,-1
 319 117 l 1,22,23
 512 300 512 300 573 383 c 0,24,25
 667 511 667 511 743 653 c 1,0,1
342 1016 m 128,-1,27
 345 972 345 972 367 940.5 c 128,-1,28
 389 909 389 909 423 888 c 0,29,30
 491 848 491 848 558 848 c 128,-1,31
 625 848 625 848 664 856.5 c 128,-1,32
 703 865 703 865 735 884 c 0,33,34
 807 926 807 926 814.5 985.5 c 128,-1,35
 822 1045 822 1045 803.5 1081.5 c 128,-1,36
 785 1118 785 1118 752 1144 c 0,37,38
 678.594 1203.13 678.594 1203.13 587.17 1203.13 c 0,39,40
 544.086 1203.13 544.086 1203.13 497 1190 c 0,41,42
 402 1164 402 1164 370.5 1112 c 128,-1,26
 339 1060 339 1060 342 1016 c 128,-1,27
EndSplineSet
Substitution2: "VowelB-1" u16F72.B
Substitution2: "VowelR-1" u16F72.R
Substitution2: "VowelT-1" u16F72.T
Substitution2: "VowelA-1" u16F72.A
EndChar

StartChar: u16F73
Encoding: 110 94067 110
Width: 1326
VWidth: 4000
GlyphClass: 2
Flags: W
AnchorPoint: "F" 0 0 entry 0
AnchorPoint: "V" 1326 0 exit 0
AnchorPoint: "V" 0 0 entry 0
LayerCount: 2
Back
Fore
SplineSet
89 1416 m 5,0,-1
 617 1416 l 2,1,2
 727 1416 727 1416 824 1378 c 128,-1,3
 921 1340 921 1340 994.5 1272.5 c 128,-1,4
 1068 1205 1068 1205 1110.5 1111 c 128,-1,5
 1153 1017 1153 1017 1153 904 c 0,6,7
 1153 796 1153 796 1112 705 c 128,-1,8
 1071 614 1071 614 1000.5 548 c 128,-1,9
 930 482 930 482 836.5 445 c 128,-1,10
 743 408 743 408 637 408 c 2,11,-1
 537 408 l 1,12,-1
 541 -20 l 1,13,-1
 241 -20 l 1,14,-1
 241 708 l 1,15,-1
 633 708 l 2,16,17
 674 708 674 708 713 722.5 c 128,-1,18
 752 737 752 737 782 762.5 c 128,-1,19
 812 788 812 788 830.5 824.5 c 128,-1,20
 849 861 849 861 849 904 c 0,21,22
 849 951 849 951 829.5 990 c 128,-1,23
 810 1029 810 1029 777.5 1057 c 128,-1,24
 745 1085 745 1085 703.5 1100.5 c 128,-1,25
 662 1116 662 1116 617 1116 c 2,26,-1
 89 1116 l 1,27,-1
 89 1416 l 5,0,-1
EndSplineSet
Substitution2: "VowelB-1" u16F73.B
Substitution2: "VowelR-1" u16F73.R
Substitution2: "VowelT-1" u16F73.T
Substitution2: "VowelA-1" u16F73.A
EndChar

StartChar: u16F74
Encoding: 111 94068 111
Width: 1381
VWidth: 4000
GlyphClass: 2
Flags: W
AnchorPoint: "F" 0 0 entry 0
AnchorPoint: "V" 1381 0 exit 0
AnchorPoint: "V" 0 0 entry 0
LayerCount: 2
Back
Fore
SplineSet
1227 -20 m 1,0,-1
 699 -20 l 2,1,2
 589 -20 589 -20 492 18 c 128,-1,3
 395 56 395 56 321.5 123.5 c 128,-1,4
 248 191 248 191 205.5 285 c 128,-1,5
 163 379 163 379 163 492 c 0,6,7
 163 600 163 600 204 691 c 128,-1,8
 245 782 245 782 315.5 848 c 128,-1,9
 386 914 386 914 479.5 951 c 128,-1,10
 573 988 573 988 679 988 c 2,11,-1
 779 988 l 1,12,-1
 775 1416 l 1,13,-1
 1075 1416 l 1,14,-1
 1075 688 l 1,15,-1
 683 688 l 2,16,17
 642 688 642 688 603 673.5 c 128,-1,18
 564 659 564 659 534 633.5 c 128,-1,19
 504 608 504 608 485.5 571.5 c 128,-1,20
 467 535 467 535 467 492 c 0,21,22
 467 445 467 445 486.5 406 c 128,-1,23
 506 367 506 367 538.5 339 c 128,-1,24
 571 311 571 311 612.5 295.5 c 128,-1,25
 654 280 654 280 699 280 c 2,26,-1
 1227 280 l 1,27,-1
 1227 -20 l 1,0,-1
EndSplineSet
Substitution2: "VowelB-1" u16F74.B
Substitution2: "VowelR-1" u16F74.R
Substitution2: "VowelT-1" u16F74.T
Substitution2: "VowelA-1" u16F74.A
EndChar

StartChar: u16F75
Encoding: 112 94069 112
Width: 1249
VWidth: 4000
GlyphClass: 2
Flags: W
AnchorPoint: "F" 0 0 entry 0
AnchorPoint: "V" 1249 0 exit 0
AnchorPoint: "V" 0 0 entry 0
LayerCount: 2
Back
Fore
SplineSet
1062 -20 m 1,0,-1
 726 -20 l 1,1,-1
 726 956 l 1,2,-1
 -10 956 l 1,3,-1
 -10 1224 l 1,4,-1
 1062 1224 l 1,5,-1
 1062 -20 l 1,0,-1
EndSplineSet
Substitution2: "VowelB-1" u16F75.B
Substitution2: "VowelR-1" u16F75.R
Substitution2: "VowelT-1" u16F75.T
Substitution2: "VowelA-1" u16F75.A
EndChar

StartChar: u16F76
Encoding: 113 94070 113
Width: 1363
VWidth: 4000
GlyphClass: 2
Flags: W
AnchorPoint: "F" 0 0 entry 0
AnchorPoint: "V" 1363 0 exit 0
AnchorPoint: "V" 0 0 entry 0
LayerCount: 2
Back
Fore
SplineSet
1183 -24 m 1,0,-1
 887 -20 l 1,1,-1
 883 636 l 2,2,3
 883 685 883 685 867.5 727 c 128,-1,4
 852 769 852 769 823.5 800.5 c 128,-1,5
 795 832 795 832 754.5 850 c 128,-1,6
 714 868 714 868 663 868 c 0,7,8
 593 868 593 868 549 840.5 c 128,-1,9
 505 813 505 813 480.5 768 c 128,-1,10
 456 723 456 723 448 666.5 c 128,-1,11
 440 610 440 610 443 552 c 1,12,-1
 147 560 l 1,13,14
 147 636 147 636 162 710.5 c 128,-1,15
 177 785 177 785 207 852.5 c 128,-1,16
 237 920 237 920 280.5 978 c 128,-1,17
 324 1036 324 1036 381.5 1078 c 128,-1,18
 439 1120 439 1120 509.5 1144 c 128,-1,19
 580 1168 580 1168 663 1168 c 0,20,21
 784 1168 784 1168 880.5 1119.5 c 128,-1,22
 977 1071 977 1071 1044.5 990 c 128,-1,23
 1112 909 1112 909 1147.5 803.5 c 128,-1,24
 1183 698 1183 698 1183 584 c 2,25,-1
 1183 -24 l 1,0,-1
EndSplineSet
Substitution2: "VowelB-1" u16F76.B
Substitution2: "VowelR-1" u16F76.R
Substitution2: "VowelT-1" u16F76.T
Substitution2: "VowelA-1" u16F76.A
EndChar

StartChar: u16F77
Encoding: 114 94071 114
Width: 1395
VWidth: 4000
GlyphClass: 2
Flags: W
AnchorPoint: "F" 0 0 entry 0
AnchorPoint: "V" 1395 0 exit 0
AnchorPoint: "V" 0 0 entry 0
LayerCount: 2
Back
Fore
SplineSet
1252 956 m 1,0,-1
 512 956 l 1,1,-1
 512 -20 l 1,2,-1
 180 -20 l 1,3,-1
 180 1224 l 1,4,-1
 1252 1224 l 1,5,-1
 1252 956 l 1,0,-1
EndSplineSet
Substitution2: "VowelB-1" u16F77.B
Substitution2: "VowelR-1" u16F77.R
Substitution2: "VowelT-1" u16F77.T
Substitution2: "VowelA-1" u16F77.A
EndChar

StartChar: u16F78
Encoding: 115 94072 115
Width: 1384
VWidth: 4000
GlyphClass: 2
Flags: W
AnchorPoint: "F" 0 0 entry 0
AnchorPoint: "V" 1384 0 exit 0
AnchorPoint: "V" 0 0 entry 0
LayerCount: 2
Back
Fore
SplineSet
177 568 m 2,0,1
 177 681 177 681 213.5 786 c 128,-1,2
 250 891 250 891 317.5 972.5 c 128,-1,3
 385 1054 385 1054 481 1103 c 128,-1,4
 577 1152 577 1152 697 1152 c 0,5,6
 781 1152 781 1152 851.5 1128 c 128,-1,7
 922 1104 922 1104 979.5 1061.5 c 128,-1,8
 1037 1019 1037 1019 1080.5 960.5 c 128,-1,9
 1124 902 1124 902 1153.5 834 c 128,-1,10
 1183 766 1183 766 1198 691 c 128,-1,11
 1213 616 1213 616 1213 540 c 1,12,-1
 921 540 l 1,13,14
 922 599 922 599 914 655.5 c 128,-1,15
 906 712 906 712 881.5 755.5 c 128,-1,16
 857 799 857 799 813 825.5 c 128,-1,17
 769 852 769 852 697 852 c 0,18,19
 647 852 647 852 605.5 834 c 128,-1,20
 564 816 564 816 534.5 785 c 128,-1,21
 505 754 505 754 489 711.5 c 128,-1,22
 473 669 473 669 473 620 c 2,23,-1
 473 -36 l 1,24,-1
 177 -36 l 1,25,-1
 177 568 l 2,0,1
EndSplineSet
Substitution2: "VowelB-1" u16F78.B
Substitution2: "VowelR-1" u16F78.R
Substitution2: "VowelT-1" u16F78.T
Substitution2: "VowelA-1" u16F78.A
EndChar

StartChar: u16F79
Encoding: 116 94073 116
Width: 661
VWidth: 4000
GlyphClass: 2
Flags: W
AnchorPoint: "F" 0 0 entry 0
AnchorPoint: "V" 661 0 exit 0
AnchorPoint: "V" 0 0 entry 0
LayerCount: 2
Back
Fore
SplineSet
476 12 m 1,0,-1
 180 12 l 1,1,-1
 180 1080 l 1,2,-1
 472 1080 l 1,3,-1
 476 12 l 1,0,-1
EndSplineSet
Substitution2: "VowelB-1" u16F79.B
Substitution2: "VowelR-1" u16F79.R
Substitution2: "VowelT-1" u16F79.T
Substitution2: "VowelA-1" u16F79.A
EndChar

StartChar: u16F7A
Encoding: 117 94074 117
Width: 1355
VWidth: 4000
GlyphClass: 2
Flags: W
AnchorPoint: "F" 0 0 entry 0
AnchorPoint: "V" 1355 0 exit 0
AnchorPoint: "V" 0 0 entry 0
LayerCount: 2
Back
Fore
SplineSet
169 1168 m 1,0,-1
 465 1164 l 1,1,-1
 469 508 l 2,2,3
 469 459 469 459 484.5 417 c 128,-1,4
 500 375 500 375 528.5 343.5 c 128,-1,5
 557 312 557 312 597.5 294 c 128,-1,6
 638 276 638 276 689 276 c 0,7,8
 759 276 759 276 803 303.5 c 128,-1,9
 847 331 847 331 871.5 376 c 128,-1,10
 896 421 896 421 904 477.5 c 128,-1,11
 912 534 912 534 909 592 c 1,12,-1
 1205 584 l 1,13,14
 1205 508 1205 508 1190 433.5 c 128,-1,15
 1175 359 1175 359 1145 291.5 c 128,-1,16
 1115 224 1115 224 1071.5 166 c 128,-1,17
 1028 108 1028 108 970.5 66 c 128,-1,18
 913 24 913 24 842.5 0 c 128,-1,19
 772 -24 772 -24 689 -24 c 0,20,21
 568 -24 568 -24 471.5 24.5 c 128,-1,22
 375 73 375 73 307.5 154 c 128,-1,23
 240 235 240 235 204.5 340.5 c 128,-1,24
 169 446 169 446 169 560 c 2,25,-1
 169 1168 l 1,0,-1
EndSplineSet
Substitution2: "VowelB-1" u16F7A.B
Substitution2: "VowelR-1" u16F7A.R
Substitution2: "VowelT-1" u16F7A.T
Substitution2: "VowelA-1" u16F7A.A
EndChar

StartChar: u16F7B
Encoding: 118 94075 118
Width: 1231
VWidth: 4000
GlyphClass: 2
Flags: W
AnchorPoint: "F" 0 0 entry 0
AnchorPoint: "V" 1231 0 exit 0
AnchorPoint: "V" 0 0 entry 0
LayerCount: 2
Back
Fore
SplineSet
480 1038 m 1,0,-1
 480 -14 l 1,1,-1
 180 -14 l 1,2,-1
 180 1038 l 1,3,-1
 480 1038 l 1,0,-1
1044 1038 m 1,4,-1
 1044 -14 l 1,5,-1
 748 -14 l 1,6,-1
 748 1038 l 1,7,-1
 1044 1038 l 1,4,-1
EndSplineSet
Substitution2: "VowelB-1" u16F7B.B
Substitution2: "VowelR-1" u16F7B.R
Substitution2: "VowelT-1" u16F7B.T
Substitution2: "VowelA-1" u16F7B.A
EndChar

StartChar: u16F7C
Encoding: 119 94076 119
Width: 1439
VWidth: 4000
GlyphClass: 2
Flags: W
AnchorPoint: "F" 0 0 entry 0
AnchorPoint: "V" 1439 0 exit 0
AnchorPoint: "V" 0 0 entry 0
LayerCount: 2
Back
Fore
SplineSet
1256 -176 m 1,0,-1
 976 -172 l 1,1,2
 974 -55 974 -55 973.5 60 c 128,-1,3
 973 175 973 175 976 292 c 1,4,5
 916 254 916 254 848 233 c 128,-1,6
 780 212 780 212 708 212 c 0,7,8
 598 212 598 212 497 250.5 c 128,-1,9
 396 289 396 289 319.5 358 c 128,-1,10
 243 427 243 427 197.5 522.5 c 128,-1,11
 152 618 152 618 152 732 c 0,12,13
 152 848 152 848 197.5 943 c 128,-1,14
 243 1038 243 1038 319.5 1105.5 c 128,-1,15
 396 1173 396 1173 496.5 1210.5 c 128,-1,16
 597 1248 597 1248 708 1248 c 0,17,18
 821 1248 821 1248 920.5 1206 c 128,-1,19
 1020 1164 1020 1164 1094.5 1091.5 c 128,-1,20
 1169 1019 1169 1019 1212.5 920.5 c 128,-1,21
 1256 822 1256 822 1256 708 c 2,22,-1
 1256 -176 l 1,0,-1
720 516 m 256,23,24
 768 516 768 516 811.5 530.5 c 128,-1,25
 855 545 855 545 888 572.5 c 128,-1,26
 921 600 921 600 940.5 640.5 c 128,-1,27
 960 681 960 681 960 732 c 0,28,29
 960 780 960 780 939.5 820 c 128,-1,30
 919 860 919 860 885.5 888.5 c 128,-1,31
 852 917 852 917 808.5 932.5 c 128,-1,32
 765 948 765 948 720 948 c 0,33,34
 666 948 666 948 617 937.5 c 128,-1,35
 568 927 568 927 531.5 901.5 c 128,-1,36
 495 876 495 876 473.5 835 c 128,-1,37
 452 794 452 794 452 732 c 0,38,39
 452 678 452 678 476 637.5 c 128,-1,40
 500 597 500 597 538 570 c 128,-1,41
 576 543 576 543 624 529.5 c 128,-1,42
 672 516 672 516 720 516 c 256,23,24
EndSplineSet
Substitution2: "VowelB-1" u16F7C.B
Substitution2: "VowelR-1" u16F7C.R
Substitution2: "VowelT-1" u16F7C.T
Substitution2: "VowelA-1" u16F7C.A
EndChar

StartChar: u16F7D
Encoding: 120 94077 120
Width: 1324
VWidth: 4000
GlyphClass: 2
Flags: W
AnchorPoint: "F" 0 0 entry 0
AnchorPoint: "V" 1324 0 exit 0
AnchorPoint: "V" 0 0 entry 0
LayerCount: 2
Back
Fore
SplineSet
471 751 m 1,0,1
 391 631 391 631 390 438 c 0,2,3
 390 417 390 417 396 399 c 0,4,5
 467 200 467 200 678 192 c 0,6,7
 683 192 683 192 688 192 c 0,8,9
 846 192 846 192 951 391 c 1,10,11
 1065 390 1065 390 1178 389 c 1,12,13
 1174 207 1174 207 1034 86.5 c 128,-1,14
 894 -34 894 -34 688 -45 c 0,15,16
 671 -46 671 -46 654 -46 c 0,17,18
 469 -46 469 -46 324 68 c 0,19,20
 165 193 165 193 165 412 c 0,21,22
 165 790 165 790 433 1106 c 1,23,-1
 589 1288 l 1,24,-1
 941 1280 l 1,25,26
 860 1277 860 1277 656 1021 c 0,27,28
 606 959 606 959 471 751 c 1,0,1
EndSplineSet
Substitution2: "yclStyle-1" u16F7D.ycl
Substitution2: "VowelB-1" u16F7D.B
Substitution2: "VowelR-1" u16F7D.R
Substitution2: "VowelT-1" u16F7D.T
Substitution2: "VowelA-1" u16F7D.A
EndChar

StartChar: u16F7E
Encoding: 121 94078 121
Width: 1328
VWidth: 4000
GlyphClass: 2
Flags: W
AnchorPoint: "F" 0 0 entry 0
AnchorPoint: "V" 1328 0 exit 0
AnchorPoint: "V" 0 0 entry 0
LayerCount: 2
Back
Fore
SplineSet
517 761 m 1,0,1
 591 809 591 809 696.5 809 c 128,-1,2
 802 809 802 809 882.5 779.5 c 128,-1,3
 963 750 963 750 1025 697 c 1,4,5
 1161 584 1161 584 1169 409 c 0,6,7
 1177 228 1177 228 1031 102 c 0,8,9
 894 -17 894 -17 697 -27 c 1,10,11
 483 -40 483 -40 329 81 c 0,12,13
 165 210 165 210 165 429 c 0,14,15
 165 807 165 807 433 1123 c 1,16,-1
 589 1305 l 1,17,-1
 941 1297 l 1,18,19
 749 1114 749 1114 688 1031 c 0,20,21
 594 903 594 903 517 761 c 1,0,1
918 398 m 128,-1,23
 915 442 915 442 893 473.5 c 128,-1,24
 871 505 871 505 837 525 c 0,25,26
 770 566 770 566 702.5 566 c 128,-1,27
 635 566 635 566 596 557.5 c 128,-1,28
 557 549 557 549 525 530 c 0,29,30
 453 487 453 487 445.5 428 c 128,-1,31
 438 369 438 369 456.5 332.5 c 128,-1,32
 475 296 475 296 508 269 c 0,33,34
 616 183 616 183 763 223 c 0,35,36
 859 250 859 250 890 302 c 128,-1,22
 921 354 921 354 918 398 c 128,-1,23
EndSplineSet
Substitution2: "VowelB-1" u16F7E.B
Substitution2: "VowelR-1" u16F7E.R
Substitution2: "VowelT-1" u16F7E.T
Substitution2: "VowelA-1" u16F7E.A
EndChar

StartChar: u16F93
Encoding: 122 94099 122
Width: 2355
VWidth: 4000
Flags: W
LayerCount: 2
Back
Fore
SplineSet
1405 1745 m 1,0,-1
 1395 463 l 1,1,-1
 1395 7 l 1,2,-1
 1020 7 l 1,3,-1
 1020 463 l 1,4,-1
 1030 1750 l 1,5,-1
 80 1750 l 1,6,-1
 120 2075 l 1,7,-1
 2250 2075 l 1,8,-1
 2275 1755 l 1,9,-1
 1405 1745 l 1,0,-1
EndSplineSet
Validated: 1
EndChar

StartChar: u16F94
Encoding: 123 94100 123
Width: 1518
VWidth: 4000
Flags: W
LayerCount: 2
Back
Fore
SplineSet
1438 763 m 0,0,1
 1488.27 -1.12247 1488.27 -1.12247 724 0 c 0,2,3
 424.122 0.496458 424.122 0.496458 240.2 98.4004 c 0,4,5
 124.649 159.909 124.649 159.909 100.2 306.4 c 0,6,7
 102.913 316.581 102.913 316.581 100.2 464.298 c 1,8,9
 288.2 456.298 l 1,10,11
 302.596 341.047 302.596 341.047 328.2 316.298 c 0,12,13
 425.708 222.044 425.708 222.044 716.2 218.4 c 0,14,15
 1189.65 212.462 1189.65 212.462 1180.2 688.298 c 0,16,17
 1170.65 1169.44 1170.65 1169.44 800.2 1177.4 c 0,18,19
 614.571 1181.37 614.571 1181.37 550.2 1134 c 1,20,-1
 408 1270 l 1,21,-1
 1012.2 1924.3 l 1,22,-1
 160.2 1928.3 l 1,23,-1
 160.2 2150.4 l 1,24,-1
 1341 2157 l 1,25,-1
 1341 1966 l 1,26,-1
 819 1373 l 1,27,28
 853.141 1382.44 853.141 1382.44 945.5 1363 c 0,29,30
 1404.89 1266.31 1404.89 1266.31 1438 763 c 0,0,1
EndSplineSet
EndChar

StartChar: u16F95
Encoding: 124 94101 124
Width: 2798
VWidth: 4000
Flags: W
LayerCount: 2
Back
Fore
SplineSet
2411 20 m 1,0,-1
 2416 1895 l 1,1,-1
 1422 0 l 1,2,-1
 1356 0 l 1,3,-1
 371 1895 l 1,4,-1
 379 16 l 1,5,-1
 80 5 l 1,6,-1
 80 2139 l 1,7,-1
 509 2119 l 1,8,-1
 1392 489 l 1,9,-1
 2214 2119 l 1,10,-1
 2698 2154 l 1,11,-1
 2718 10 l 1,12,-1
 2411 20 l 1,0,-1
EndSplineSet
Validated: 1
EndChar

StartChar: u16F96
Encoding: 125 94102 125
Width: 1433
VWidth: 4000
Flags: W
LayerCount: 2
Back
Fore
SplineSet
1353 1825 m 1,0,-1
 443 1825 l 1,1,-1
 443 -5 l 1,2,-1
 80 0 l 1,3,-1
 95 2117 l 1,4,-1
 1353 2112 l 1,5,-1
 1353 1825 l 1,0,-1
EndSplineSet
Validated: 1
EndChar

StartChar: u16F97
Encoding: 126 94103 126
Width: 1593
VWidth: 4000
Flags: W
LayerCount: 2
Back
Fore
SplineSet
1513 567 m 0,0,1
 1513 444 1513 444 1463 335 c 128,-1,2
 1413 226 1413 226 1322.5 144.5 c 128,-1,3
 1232 63 1232 63 1107.5 15 c 128,-1,4
 983 -33 983 -33 834 -33 c 0,5,6
 724 -33 724 -33 633 -16 c 128,-1,7
 542 1 542 1 476 15 c 128,-1,8
 410 29 410 29 354 47.5 c 128,-1,9
 298 66 298 66 255 90 c 1,10,11
 201 117 201 117 154.5 141.5 c 128,-1,12
 108 166 108 166 80 232 c 1,13,-1
 101 707 l 1,14,-1
 158 707 l 1,15,16
 178 540 178 540 238 423 c 128,-1,17
 298 306 298 306 384 252.5 c 128,-1,18
 470 199 470 199 551 174 c 128,-1,19
 632 149 632 149 801 138 c 1,20,21
 918 145 918 145 986 169 c 128,-1,22
 1054 193 1054 193 1108 223 c 128,-1,23
 1162 253 1162 253 1195.5 312.5 c 128,-1,24
 1229 372 1229 372 1229 444 c 0,25,26
 1229 523 1229 523 1201.5 583 c 128,-1,27
 1174 643 1174 643 1111.5 699.5 c 128,-1,28
 1049 756 1049 756 950 817.5 c 128,-1,29
 851 879 851 879 710 959 c 1,30,31
 517 1066 517 1066 395 1151 c 128,-1,32
 273 1236 273 1236 203.5 1314.5 c 128,-1,33
 134 1393 134 1393 109 1473 c 128,-1,34
 84 1553 84 1553 84 1653 c 0,35,36
 84 1767 84 1767 127.5 1869.5 c 128,-1,37
 171 1972 171 1972 252.5 2050 c 128,-1,38
 334 2128 334 2128 450 2173.5 c 128,-1,39
 566 2219 566 2219 710 2219 c 0,40,41
 804 2219 804 2219 883.5 2202.5 c 128,-1,42
 963 2186 963 2186 1020 2164.5 c 128,-1,43
 1077 2143 1077 2143 1124.5 2121 c 128,-1,44
 1172 2099 1172 2099 1231 2055 c 1,45,46
 1341 1969 1341 1969 1384 1858 c 1,47,-1
 1368 1473 l 1,48,-1
 1311 1473 l 1,49,50
 1293 1625 1293 1625 1241 1741.5 c 128,-1,51
 1189 1858 1189 1858 1108.5 1936 c 128,-1,52
 1028 2014 1028 2014 931 2035 c 128,-1,53
 834 2056 834 2056 724 2061 c 1,54,55
 609 2051 609 2051 561.5 2036 c 128,-1,56
 514 2021 514 2021 454 1985 c 128,-1,57
 394 1949 394 1949 364 1889 c 128,-1,58
 334 1829 334 1829 334 1762 c 0,59,60
 334 1699 334 1699 357.5 1645.5 c 128,-1,61
 381 1592 381 1592 441.5 1536 c 128,-1,62
 502 1480 502 1480 606 1415 c 128,-1,63
 710 1350 710 1350 869 1264 c 1,64,65
 1023 1182 1023 1182 1123 1118.5 c 128,-1,66
 1223 1055 1223 1055 1281 1015 c 1,67,68
 1390 933 1390 933 1451.5 816 c 128,-1,69
 1513 699 1513 699 1513 567 c 0,0,1
EndSplineSet
Validated: 1
EndChar

StartChar: u16F98
Encoding: 127 94104 127
Width: 1595
VWidth: 4000
Flags: W
LayerCount: 2
Back
Fore
SplineSet
1483 0 m 1,0,-1
 68 0 l 1,1,-1
 64 2118 l 1,2,-1
 360 2118 l 1,3,-1
 360 400 l 2,4,5
 360 370.75 360 370.75 360 341.5 c 0,6,7
 360 302 360 302 388.25 298.1 c 128,-1,8
 416.5 294.2 416.5 294.2 817.5 294.5 c 1,9,-1
 1364.5 288.2 l 1,10,-1
 1446 326.5 l 1,11,12
 1474.25 324.35 1474.25 324.35 1502.5 322.2 c 1,13,-1
 1483 0 l 1,0,-1
EndSplineSet
EndChar

StartChar: u16F99
Encoding: 128 94105 128
Width: 1250
VWidth: 4000
Flags: W
LayerCount: 2
Back
Fore
SplineSet
1250 420.4 m 1,0,1
 1215 155.4 1215 155.4 1100 77.7 c 128,-1,2
 985 0 985 0 883.5 -1 c 128,-1,3
 782 -2 782 -2 723 -2 c 0,4,5
 658 -2 658 -2 595.5 16 c 128,-1,6
 533 34 533 34 482.5 85.5 c 128,-1,7
 432 137 432 137 400.5 230 c 128,-1,8
 369 323 369 323 369 473 c 2,9,-1
 369 1713 l 1,10,-1
 82 1713 l 1,11,-1
 80 1979 l 1,12,-1
 367 1976 l 1,13,-1
 369 2424 l 1,14,-1
 696 2424 l 1,15,-1
 694 1977 l 1,16,-1
 1116 1980 l 1,17,-1
 1115 1713 l 1,18,-1
 696 1713 l 1,19,-1
 696 520 l 2,20,21
 700.484 392.195 700.484 392.195 698.5 389.95 c 0,22,23
 684.189 373.321 684.189 373.321 700 325.4 c 0,24,25
 712.372 287.902 712.372 287.902 817.985 287.902 c 0,26,27
 930 287.667 930 287.667 945 339.033 c 128,-1,28
 960 390.4 960 390.4 965 425.4 c 1,29,-1
 1250 420.4 l 1,0,1
EndSplineSet
EndChar

StartChar: u16FA2
Encoding: 129 94114 129
Width: 1704
VWidth: 4000
Flags: W
LayerCount: 2
Back
Fore
SplineSet
1596 1116 m 1,0,-1
 1592 420 l 2,1,2
 1592 333 1592 333 1555.5 252 c 128,-1,3
 1519 171 1519 171 1457.5 109 c 128,-1,4
 1396 47 1396 47 1316 9.5 c 128,-1,5
 1236 -28 1236 -28 1148 -28 c 0,6,7
 1105 -28 1105 -28 1055.5 -22.5 c 128,-1,8
 1006 -17 1006 -17 957.5 -3.5 c 128,-1,9
 909 10 909 10 863.5 31 c 128,-1,10
 818 52 818 52 783.5 83.5 c 128,-1,11
 749 115 749 115 728.5 156.5 c 128,-1,12
 708 198 708 198 708 252 c 0,13,14
 708 307 708 307 715 362 c 128,-1,15
 722 417 722 417 730 472 c 128,-1,16
 738 527 738 527 745 581.5 c 128,-1,17
 752 636 752 636 752 692 c 0,18,19
 752 729 752 729 744.5 761 c 128,-1,20
 737 793 737 793 719.5 817 c 128,-1,21
 702 841 702 841 673.5 854.5 c 128,-1,22
 645 868 645 868 604 868 c 0,23,24
 558 868 558 868 527 835 c 128,-1,25
 496 802 496 802 476 749.5 c 128,-1,26
 456 697 456 697 445 632.5 c 128,-1,27
 434 568 434 568 429.5 505.5 c 128,-1,28
 425 443 425 443 424 389 c 128,-1,29
 423 335 423 335 423 304 c 0,30,31
 423 228 423 228 426.5 152 c 128,-1,32
 430 76 430 76 432 0 c 1,33,-1
 140 0 l 1,34,-1
 140 632 l 2,35,36
 140 690 140 690 157.5 752.5 c 128,-1,37
 175 815 175 815 207 874.5 c 128,-1,38
 239 934 239 934 283 987.5 c 128,-1,39
 327 1041 327 1041 379.5 1081 c 128,-1,40
 432 1121 432 1121 491 1144.5 c 128,-1,41
 550 1168 550 1168 612 1168 c 0,42,43
 694 1168 694 1168 771 1144.5 c 128,-1,44
 848 1121 848 1121 908 1075.5 c 128,-1,45
 968 1030 968 1030 1004 962 c 128,-1,46
 1040 894 1040 894 1040 804 c 0,47,48
 1040 759 1040 759 1033.5 714.5 c 128,-1,49
 1027 670 1027 670 1019.5 626 c 128,-1,50
 1012 582 1012 582 1006 537.5 c 128,-1,51
 1000 493 1000 493 1000 448 c 0,52,53
 1000 407 1000 407 1007 368.5 c 128,-1,54
 1014 330 1014 330 1032 299.5 c 128,-1,55
 1050 269 1050 269 1081 250.5 c 128,-1,56
 1112 232 1112 232 1160 232 c 0,57,58
 1212 232 1212 232 1240 252.5 c 128,-1,59
 1268 273 1268 273 1280.5 305.5 c 128,-1,60
 1293 338 1293 338 1294.5 378.5 c 128,-1,61
 1296 419 1296 419 1296 458 c 2,62,-1
 1296 1116 l 1,63,-1
 1596 1116 l 1,0,-1
EndSplineSet
Validated: 1
EndChar

StartChar: u16F30.dot
Encoding: 130 -1 130
Width: 3003
VWidth: 4000
GlyphClass: 2
Flags: W
AnchorPoint: "BL" 100 -1200 basechar 0
AnchorPoint: "B" 771 -1200 basechar 0
AnchorPoint: "AL" 100 3300 basechar 0
AnchorPoint: "A" 771 3400 basechar 0
AnchorPoint: "F" 3003 0 exit 0
AnchorPoint: "R" 3003 850 exit 0
AnchorPoint: "C" 3003 3000 exit 0
AnchorPoint: "S" 3003 2455 exit 0
LayerCount: 2
Back
Fore
SplineSet
2560 2295 m 0,0,1
 2213 2295 2213 2295 2211 2642 c 768,2,3
 2208.68 2940.02 2208.68 2940.02 2535 2946 c 0,4,5
 2884 2952.4 2884 2952.4 2884 2628.4 c 0,6,7
 2882 2295 2882 2295 2560 2295 c 0,0,1
2104 0 m 1,8,-1
 80 0 l 1,9,-1
 80 2932 l 1,10,-1
 2104 2932 l 1,11,-1
 2104 2528 l 1,12,-1
 496 2528 l 1,13,-1
 496 404 l 1,14,-1
 2104 404 l 1,15,-1
 2104 0 l 1,8,-1
EndSplineSet
Substitution2: "dotUnWart-1" u16F30
MultipleSubs2: "ConsToneR-1" u16F30.dot u16F8F
MultipleSubs2: "ConsToneT-1" u16F30.dot u16F90
MultipleSubs2: "ConsToneA-1" u16F30.dot u16F91
EndChar

StartChar: u16F2B.dot
Encoding: 131 -1 131
Width: 2437
VWidth: 4000
GlyphClass: 2
Flags: W
AnchorPoint: "BL" 100 -1200 basechar 0
AnchorPoint: "B" 488 -1200 basechar 0
AnchorPoint: "AL" 100 3300 basechar 0
AnchorPoint: "A" 488 3400 basechar 0
AnchorPoint: "F" 2437 0 exit 0
AnchorPoint: "R" 2437 850 exit 0
AnchorPoint: "C" 2437 3000 exit 0
AnchorPoint: "S" 2437 2455 exit 0
LayerCount: 2
Back
Fore
SplineSet
1993 2280 m 0,0,1
 1646 2280 1646 2280 1644 2627 c 768,2,3
 1641.68 2925.02 1641.68 2925.02 1968 2931 c 0,4,5
 2317 2937.4 2317 2937.4 2317 2613.4 c 0,6,7
 2315 2280 2315 2280 1993 2280 c 0,0,1
2300 0 m 1,8,-1
 80 0 l 1,9,-1
 80 411 l 1,10,-1
 1008 411 l 1,11,-1
 1008 2520 l 1,12,-1
 184 2520 l 1,13,-1
 184 2932 l 1,14,-1
 1433 2932 l 1,15,-1
 1433 411 l 1,16,-1
 2300 411 l 1,17,-1
 2300 0 l 1,8,-1
EndSplineSet
Substitution2: "dotUnWart-1" u16F2B
MultipleSubs2: "ConsToneB-1" u16F2B.dot u16F92
MultipleSubs2: "ConsToneR-1" u16F2B.dot u16F8F
MultipleSubs2: "ConsToneT-1" u16F2B.dot u16F90
MultipleSubs2: "ConsToneA-1" u16F2B.dot u16F91
EndChar

StartChar: u16F1B.dot
Encoding: 132 -1 132
Width: 2515
VWidth: 4000
GlyphClass: 2
Flags: W
AnchorPoint: "BL" 100 -1200 basechar 0
AnchorPoint: "B" 527 -1200 basechar 0
AnchorPoint: "AL" 100 3300 basechar 0
AnchorPoint: "A" 527 3400 basechar 0
AnchorPoint: "F" 2515 0 exit 0
AnchorPoint: "R" 2515 850 exit 0
AnchorPoint: "C" 2515 3000 exit 0
AnchorPoint: "S" 2515 2455 exit 0
LayerCount: 2
Back
Fore
SplineSet
2073 2269 m 0,0,1
 1726 2269 1726 2269 1724 2616 c 768,2,3
 1721.68 2914.02 1721.68 2914.02 2048 2920 c 0,4,5
 2397 2926.4 2397 2926.4 2397 2602.4 c 0,6,7
 2395 2269 2395 2269 2073 2269 c 0,0,1
2344 0 m 1,8,-1
 80 0 l 1,9,-1
 987 2932 l 1,10,-1
 1433 2932 l 1,11,-1
 2344 0 l 1,8,-1
1814 388 m 1,12,-1
 1273 2328 l 1,13,-1
 1164 2328 l 1,14,-1
 590 388 l 1,15,-1
 1814 388 l 1,12,-1
EndSplineSet
Substitution2: "dotUnWart-1" u16F1B
MultipleSubs2: "ConsToneR-1" u16F1B.dot u16F8F
MultipleSubs2: "ConsToneT-1" u16F1B.dot u16F90
MultipleSubs2: "ConsToneA-1" u16F1B.dot u16F91
EndChar

StartChar: u16F1D.dot
Encoding: 133 -1 133
Width: 2507
VWidth: 4000
GlyphClass: 2
Flags: W
AnchorPoint: "BL" 100 -1200 basechar 0
AnchorPoint: "B" 523 -1200 basechar 0
AnchorPoint: "AL" 100 3300 basechar 0
AnchorPoint: "A" 523 3400 basechar 0
AnchorPoint: "F" 2507 0 exit 0
AnchorPoint: "R" 2507 850 exit 0
AnchorPoint: "C" 2507 3000 exit 0
AnchorPoint: "S" 2507 2455 exit 0
LayerCount: 2
Back
Fore
SplineSet
2064 2264 m 0,0,1
 1717 2264 1717 2264 1715 2611 c 768,2,3
 1712.68 2909.02 1712.68 2909.02 2039 2915 c 0,4,5
 2388 2921.4 2388 2921.4 2388 2597.4 c 0,6,7
 2386 2264 2386 2264 2064 2264 c 0,0,1
2348 0 m 1,8,-1
 80 0 l 1,9,-1
 987 2932 l 1,10,-1
 1433 2932 l 1,11,-1
 2348 0 l 1,8,-1
1568 1218 m 1,12,-1
 1275 2369 l 1,13,-1
 1158 2369 l 1,14,-1
 860 1218 l 1,15,16
 906 1220 906 1220 950.5 1231 c 128,-1,17
 995 1242 995 1242 1038.5 1254 c 128,-1,18
 1082 1266 1082 1266 1125 1276 c 128,-1,19
 1168 1286 1168 1286 1212 1286 c 256,20,21
 1256 1286 1256 1286 1300 1276 c 128,-1,22
 1344 1266 1344 1266 1388 1254 c 128,-1,23
 1432 1242 1432 1242 1477 1231 c 128,-1,24
 1522 1220 1522 1220 1568 1218 c 1,12,-1
1828 384 m 1,25,-1
 1630 991 l 1,26,27
 1579 984 1579 984 1528 971.5 c 128,-1,28
 1477 959 1477 959 1426.5 946.5 c 128,-1,29
 1376 934 1376 934 1325 924.5 c 128,-1,30
 1274 915 1274 915 1222 915 c 0,31,32
 1168 915 1168 915 1114.5 924 c 128,-1,33
 1061 933 1061 933 1007.5 945.5 c 128,-1,34
 954 958 954 958 901 970.5 c 128,-1,35
 848 983 848 983 795 991 c 1,36,-1
 587 384 l 1,37,-1
 1828 384 l 1,25,-1
EndSplineSet
Substitution2: "dotUnWart-1" u16F1D
MultipleSubs2: "ConsToneR-1" u16F1D.dot u16F8F
MultipleSubs2: "ConsToneT-1" u16F1D.dot u16F90
MultipleSubs2: "ConsToneA-1" u16F1D.dot u16F91
EndChar

StartChar: u16F38.dot
Encoding: 134 -1 134
Width: 2563
VWidth: 4000
GlyphClass: 2
Flags: W
AnchorPoint: "BL" 100 -1200 basechar 0
AnchorPoint: "B" 551 -1200 basechar 0
AnchorPoint: "AL" 100 3300 basechar 0
AnchorPoint: "A" 551 3400 basechar 0
AnchorPoint: "F" 2563 0 exit 0
AnchorPoint: "R" 2563 850 exit 0
AnchorPoint: "C" 2563 3000 exit 0
AnchorPoint: "S" 2563 2455 exit 0
LayerCount: 2
Back
Fore
SplineSet
2119 2368 m 0,0,1
 1772 2368 1772 2368 1770 2715 c 768,2,3
 1767.68 3013.02 1767.68 3013.02 2094 3019 c 0,4,5
 2443 3025.4 2443 3025.4 2443 2701.4 c 0,6,7
 2441 2368 2441 2368 2119 2368 c 0,0,1
2360 1865 m 1,8,-1
 1424 1865 l 1,9,-1
 1424 0 l 1,10,-1
 1000 0 l 1,11,-1
 1000 1865 l 1,12,-1
 80 1865 l 1,13,-1
 80 2260 l 1,14,-1
 1000 2260 l 1,15,-1
 1000 2932 l 1,16,-1
 1424 2932 l 1,17,-1
 1424 2260 l 1,18,-1
 2360 2260 l 1,19,-1
 2360 1865 l 1,8,-1
EndSplineSet
Substitution2: "dotUnWart-1" u16F38
MultipleSubs2: "ConsToneB-1" u16F38.dot u16F92
MultipleSubs2: "ConsToneR-1" u16F38.dot u16F8F
MultipleSubs2: "ConsToneT-1" u16F38.dot u16F90
MultipleSubs2: "ConsToneA-1" u16F38.dot u16F91
EndChar

StartChar: u16F0F.dot
Encoding: 135 -1 135
Width: 3299
VWidth: 4000
GlyphClass: 2
Flags: W
AnchorPoint: "BL" 100 -1200 basechar 0
AnchorPoint: "B" 919 -1200 basechar 0
AnchorPoint: "AL" 100 3300 basechar 0
AnchorPoint: "A" 919 3400 basechar 0
AnchorPoint: "F" 3299 0 exit 0
AnchorPoint: "R" 3299 850 exit 0
AnchorPoint: "C" 3299 3000 exit 0
AnchorPoint: "S" 3299 2455 exit 0
LayerCount: 2
Back
Fore
SplineSet
2857 2341 m 0,0,1
 2510 2341 2510 2341 2508 2688 c 768,2,3
 2505.68 2986.02 2505.68 2986.02 2832 2992 c 0,4,5
 3181 2998.4 3181 2998.4 3181 2674.4 c 0,6,7
 3179 2341 3179 2341 2857 2341 c 0,0,1
2380 2524 m 1,8,-1
 1419 2524 l 1,9,-1
 1419 395 l 1,10,-1
 2247 395 l 1,11,-1
 2247 0 l 1,12,-1
 1002 0 l 1,13,-1
 1002 2524 l 1,14,-1
 80 2524 l 1,15,-1
 80 2932 l 1,16,-1
 2380 2932 l 1,17,-1
 2380 2524 l 1,8,-1
EndSplineSet
MultipleSubs2: "ConsToneR-1" u16F0F.dot u16F8F
EndChar

StartChar: u16F22.dot
Encoding: 136 -1 136
Width: 3301
VWidth: 4000
GlyphClass: 2
Flags: W
AnchorPoint: "BL" 100 -1200 basechar 0
AnchorPoint: "B" 920 -1200 basechar 0
AnchorPoint: "AL" 100 3300 basechar 0
AnchorPoint: "A" 920 3400 basechar 0
AnchorPoint: "F" 3301 0 exit 0
AnchorPoint: "R" 3301 850 exit 0
AnchorPoint: "C" 3301 3000 exit 0
AnchorPoint: "S" 3301 2455 exit 0
LayerCount: 2
Back
Fore
SplineSet
2859 2317 m 0,0,1
 2512 2317 2512 2317 2510 2664 c 768,2,3
 2507.68 2962.02 2507.68 2962.02 2834 2968 c 0,4,5
 3183 2974.4 3183 2974.4 3183 2650.4 c 0,6,7
 3181 2317 3181 2317 2859 2317 c 0,0,1
2420 2520 m 1,8,-1
 1556 2520 l 1,9,-1
 1556 0 l 1,10,-1
 160 0 l 1,11,-1
 160 403 l 1,12,-1
 1140 403 l 1,13,-1
 1140 2520 l 1,14,-1
 80 2520 l 1,15,-1
 80 2932 l 1,16,-1
 2420 2932 l 1,17,-1
 2420 2520 l 1,8,-1
EndSplineSet
Substitution2: "dotUnWart-1" u16F22
MultipleSubs2: "ConsToneB-1" u16F22.dot u16F92
MultipleSubs2: "ConsToneR-1" u16F22.dot u16F8F
MultipleSubs2: "ConsToneT-1" u16F22.dot u16F90
MultipleSubs2: "ConsToneA-1" u16F22.dot u16F91
EndChar

StartChar: u16F44.dot
Encoding: 137 -1 137
Width: 3225
VWidth: 4000
GlyphClass: 2
Flags: W
AnchorPoint: "BL" 100 -1200 basechar 0
AnchorPoint: "B" 882 -1200 basechar 0
AnchorPoint: "AL" 100 3300 basechar 0
AnchorPoint: "A" 882 3400 basechar 0
AnchorPoint: "F" 3225 0 exit 0
AnchorPoint: "R" 3225 850 exit 0
AnchorPoint: "C" 3225 3000 exit 0
AnchorPoint: "S" 3225 2455 exit 0
LayerCount: 2
Back
Fore
SplineSet
2783 2350 m 0,0,1
 2436 2350 2436 2350 2434 2697 c 768,2,3
 2431.68 2995.02 2431.68 2995.02 2758 3001 c 0,4,5
 3107 3007.4 3107 3007.4 3107 2683.4 c 0,6,7
 3105 2350 3105 2350 2783 2350 c 0,0,1
2350 2932 m 1,8,-1
 1444 1095 l 1,9,-1
 1448 0 l 1,10,-1
 1030 0 l 1,11,-1
 1030 1089 l 1,12,-1
 80 2932 l 1,13,-1
 542 2932 l 1,14,-1
 1243 1495 l 1,15,-1
 1893 2932 l 1,16,-1
 2350 2932 l 1,8,-1
EndSplineSet
Substitution2: "dotUnWart-1" u16F44
MultipleSubs2: "ConsToneB-1" u16F44.dot u16F92
MultipleSubs2: "ConsToneR-1" u16F44.dot u16F8F
MultipleSubs2: "ConsToneT-1" u16F44.dot u16F90
MultipleSubs2: "ConsToneA-1" u16F44.dot u16F91
EndChar

